<?xml version="1.0" encoding="UTF-8"?><svg id="idle" xmlns="http://www.w3.org/2000/svg" viewBox="0 0 1097.96 1015.5"><style>
  path {
    transition: fill 0.3s ease;
    cursor: pointer;
  }

  /* Hover effect for each state */
  #vic:hover,
  #nsw:hover,
  #sa:hover,
  #tas:hover,
  #wa:hover,
  #qld:hover,
  #nt:hover,
  #act:hover {
    fill: orange;
  }
</style><path d="M415.59,134.18l1.91-.48-1.93-12.93,6.71.95-1.91-6.71,13.44,1.92-.1,492.88c-17.39,4.41-34.03,14.95-52.23,16.38-7.53.59-14.71-1.65-22.1-.98-12.65,1.15-25.04,15.13-36.68,19.93-7.11,2.93-16.23.51-19.91,8.88-1.69,3.85-.83,7.6-2.51,10.92-1.12,2.19-12.1,12.61-14.43,13.39-9.75,3.28-9.62-2-15.66-2.09-4.09-.06-6.87,3.12-8.87,3.51-1.58.31-3-.89-4.54-.77-5.2.4-4.4,6.3-10.78-2.77-9.25,2.99-17.62-1.04-27.69-.16-6.06.53-11.8,4.49-15.41,4.82-2.36.22-4.77-1.09-7.54-.99-4.78.18-14.97,3.9-15.74,9.37-.17,1.23.95,3.02.82,3.13-.22.18-1.87-.33-2.63.2-.85.59-1.29,4.39-3.15,5.14-1.51.76-4.93-1.39-7.22-1.54-6.71-.44-9.01,4.81-13.4,8.68-1.31,1.15-3.34,1.46-4.32,2.43-5.46,5.45-1.3,4.86-10.85,7.18-.75.18-.58,1.63-1.36,1.84-.96.27-9.75,2-10.27,1.99-.55-.02-.59-1.66-1.75-2.23-8.38-4.11-12.07,1.17-17.25.09-1.19-.25-20.2-7.9-21.23-8.59-3.78-2.53-4.59-6.86-8.29-9.93-5.34-4.43-9.76-4.3-16.37-4.74-2.87-1.9-2.37-21.18-1.88-25.45,5.72,1.15,9.97,2.28,14.38-2.41,5.92-6.31,1.63-16.43,1.87-23.97.17-5.34,3.08-14.45,3.82-20.21,1.73-13.42-9.72-28.01-15.44-39.08-9.17-17.73-2.23-32.29-9.93-50.5-2.51-5.93-6.46-17.12-8.91-21.79-1.31-2.5-3.98-4.23-5.61-6.86-3.97-6.4-4.31-13.27-1.8-20.27-7.77-14.47-19-27.93-27.15-41.91-3.01-5.15-5.84-10.14-6.91-16.11,1.01-1.18,2.68,3.04,3.04,3.68,3.78,6.63,8.03,15.15,12.5,21.08,1.94,2.58,3.62,5.01,7.11,2.66,5.38-4.27-6.59-16.44-7.79-21.16-.74-2.89-.46-5.74-.44-8.65l4.96,7.02c.16,3.29,3.81,7.24,4.56,9.06.82,2,.93,10.01,4.42,10.76,3.76.81,7.27-15.98,6.05-19.49-.47-1.37-3.35-2.39-4.64-3.99-5.69-7.05-10.75-20.89-13.45-29.72s-5.47-17.66.56-26.33c1.27-1.82,3.65-3.14,4.66-4.93,3.27-5.81-1.39-24.05-.41-33.02.32-2.96,5.77-22.1,10.56-17.73-2.18,4.11-3.86,20.03,3.17,18.06,4.66-1.31,4.63-10.61,6.41-13.59.6-1.01,2.06-.38,2.96-1.26s1.41-3.1,2.92-4.56c5.3-5.08,12.95-4.42,19.03-7.83,5.65-3.17,14.2-13.95,20.28-18.09,4.79-3.26,11.85-3.98,15.78-9.17,2.7,9.26,5.79,2.09,9.67,1.89,3.08-.16,4.03,3.42,9.26,2.7,8.14-1.12,12.39-8.91,16.78-10.15,2.59-.73,5.67.18,8.35-.28,9.85-1.71,17.68-11.69,25.94-10.42,6.32.97,5.22,2.29,13.02.44,11.71-2.77,36.03-13.3,42.66-23.55,2.84-4.39,2.06-9.09,3.56-12.75.8-1.95,2.9-1.12,3.48-1.78.44-.51.17-2.65,1.1-4.17,3.69-6.03,18.08-7.59,15.31-15.19-.71-1.93-3.5-1.01-3.8-2.13-.32-1.19-1.07-13.75-.83-15.19.49-3.07,3.42-5.73,5.68-7.75,3.74-3.34,6.5-1.35,5.21-8.18,8.09-.8,6.57-8.71,12.08-12.41-1.76,6.34,1.9,6.33,3.34,8.66s2,10.77,4.46,13.76c1.45,1.1,4.48,9.95,6.11,9.22,3.44-1.55,2.24-10.25,2.42-13.42l6.7,3.83c-.76-6.22-3.09-13.66-9.67-15.96l3.45-10.95c.69-1.11,1.26-.5,2.14-.27,2.96.77,16.09,7.94,17.45,6.97-.05-4.47,5.78-6.68,5.83-10.09s-2.05-2.55-2.93-3.93c-4.76-7.5,9.41-16.94,16.37-14.7l-5.74-4.31,4.31-4.31c1.42,4.14,5.25,2.96,8.97,2.74l1.07-5.58c-15.55-3.74,7.18-9.73,5.8-18.25,1.78.81,1.12,3.39,2.84,5.3,1.41,1.58,3.95,2.29,5.78,3.32l1.94-14.39c4.27,2.39,7.77.12,11.5-1.92-.13,1.68,1.15,6.22,3.35,5.74.52-.11,6.2-7.28,6.13-7.98-.18-1.77-4.12-4.62.63-5.47s4.79,2.2,7.21,3.35c1.78.85,3.93.48,6.09,1.59,6.33,3.25,11.42,15.33,16.38,18.16,2.05,1.17,5.68.58,6.26,2.43-3.86,8.75-1.62,14.74,2.93,22.45Z" fill="#8b6e82"/><path d="M798.52,3.75l-1.91,5.74c12.52.53,6.87,14.9,9.07,22.12,1.75,5.74,8.4,4.29,9.17,6.19-9.76,6.96.24,8.48,2.94,11.7s3.16,9.57,2.83,13.71l2.86-.96c2.07,7.58-.27,17.1,1.19,24.23.79,3.87,5.05,6.63,6.05,10.26.9,3.24-.41,8.11,4.01,9.43,7.02,2.09,6.17-4.13,8.15-5.42.31-.2,5.26-.09,6.91-2,5.48,8.4,14.82,17.27,24.56,20.1.34.33-3.35,4.22-3.63,5.5-.26,1.16.63,2.4.45,3.44-.25,1.46-1.98,1.9-1.48,4.72.3,1.68,2.14,3.39,2.53,5.25.56,2.64-.16,5.25.64,7.99.58,1.99,3.47,4.38,3.94,6.64.41,1.96-.75,4.04-.6,6.24.44,6.59,6.79,12.28,12.58,14.57-1.43,6.95,4.47,13.77,4.81,20,.27,4.98-2.69,9.91-1.91,15.24.64,4.43,5.24,7.73,6.23,11.06,1.04,3.51-.39,7.62.94,10.57.83,1.84,14.77,11.15,16.47,11.41,1.49.23,2.62-2.21,3.18-1.8,1.02,7.2,6.84,6.43,12.43,4.81,1.4,3.43,3.31,12.26,8.2,11.54.98-.14-.18-2.4,1.44-1.96l1.02,3.8c8.45-3.88,8.83,4.04,12.44,6.31,1.72,1.08,3.87-.95,6.01-.4,1.55.39,9.57,8.91,8.36,10.42l-5.75-.96c-.01,1.93-.33,3.89.5,5.74,1.25,2.8,6.35,3.01,2.38,6.72l5.18-.06c.45,5.45,5.57,2.99,6.88,4.79,1.57,2.14-.6,6.09-.38,6.64.2.51,6,7.28,6.36,8.48.79,2.64-.05,6.56.61,9.94.38,1.93,4.68,12.16,5.85,13.33,1.93,1.92,7.9,3.64,10.03,6.75-1.93-5.39-7.09-8.84-.47-13.41,3.43,6.35,7.36,11.27,13.45,15.32l1.43-4.78c9.83,7.51.63,24.63,9.21,33.54l3.27-1.45,8.78,13.83c1.61.95,4.7-1.58,6.27-1.62,3.21-.07,12.81,17.08,17.65,20.37,1.2.81,4.34,1.23,4.6,1.63.34.52.85,8.21,2.51,10.43,1.33,1.78,8.9.89,9.21,7.18.23,4.53-3.45,6.35,1.79,10.6,1.77,1.44,5.09,1.84,5.68,3.99.18,4.89-2.38,10.51-2.56,15.15s.25,16.51.85,21.02,11.55,29.09,10.48,30.28c-3.5-.83-7.87,3.63-10.11,3.83-.72.06-8.98-.37-10.19-.5-2.79-.31-6.51-3.78-8.77-3.2-1.89.49-3.78,4.38-5.49,5.13-2.77,1.22-6.81-.57-8.72,1.84l-.88,13.04c-6.61-7-8.21-3.13-12.95,2.87-1.64-3.8-4.97-9.44-8.85-11.29s-8.4-.94-11.85-1.76c-3.14-.75-9.71-4.04-12-4.19-3.03-.21-5.27,2.89-8.55,2.91-4.92.03-8.67-5.28-13.47-1.02-1.01.9-1.59,2.95-2.33,3.37-.87.49-2.81-1.1-4.45.37-1.17,1.04-.97,3.09-1.63,3.69-.6.55-2.11.22-3.05,1.27-1.55,1.74.82,3.23-4.82,3.79-10.4,1.03-21.54-.92-31.64-1-30.41-.25-60.89.86-91.18,1.05-27.07.17-54.02-1.84-81.15-1-.63-16.62.85-33.84.04-50.4-.26-5.29-1.04-11.29-1.93-16.29-1.29-1-2.75-1.25-4.33-1.43-14.24-1.64-30.75,1.99-45.09-.98l-35.08,1-1-40.81c1.84-41.02,1.04-82.71.97-123.64-.07-41.73,1.27-83.63-1.87-125.2,5.68,5.91,11.02,11.75,19.92,12.22,3.44.18,6.49-2.06,10.21.34,2.09,1.35,3.49,7.48,5.83,10.47,9.53,12.16,30.95,18.72,43.7,8.14l16.82-36.91c-2.59-9.21,4.14-16.9,5.21-22.61,2.36-12.71-2.01-29.16-1.96-41.2.02-5.63,3.6-10.52,3.87-15.48.16-2.95-1.96-6.06-1.68-7.41.21-1.06,5.11-5.74,6.06-7.3l3.37,2.37c-.1-4.53-3.99-7.1-7.66-8.59l4.78-13.93,3.82,2.87c.62-7.53.79-24.54,4.05-30.96,1.36-2.68,3.47-2.58,5.49-4.1,1.6-1.2,1.46-4.21,4.86-3.29Z" fill="#8b6e82"/><path d="M531.75,25.77c3.37.61,4.86-2.89,7.15-4.74,2.45,2.59,3.69,6.51,6.71,8.62.79.55,8.44,4.24,9.12,4.38,4.04.86,6.06-5.99,11.53-2.46l-.97,3.82c4.8-1.43,7.57,3.79,11.24,4.6s11.41,1.99,13.24-1.7c.58.01,4.27,7.07,7.72,7.66,5.13.88,6.22-3.68,9.92-4.29,1.78-.29,3.73.78,6.14.27,2.24-.47,3.19-2.85,5.5-2.7l-5.17,3.74-.56,2.46c3.5,4.53,3.23-3.64,7.65-3.32-.8,1.76,1.05,8.98,2.53,9.49,5.7,1.25,15-4.87,7.09-8.58l-.02-1.39,5.28-4.32,3.39,7.64,6.11-1.97c5.93,6.65-.47,6.45-2.04,8.97-.58.93-.23,2.61-1.17,4.09-2.3,3.64-7.62,3.84-2.93,10.02l-2.73.12-2.54,6.62-2.05-5.84c-3.25-.33-5.43,1.82-6.21,4.81l-2.78-.91-2.91,14.86,2.9.5-.05,1.37c-3.31,6.98-6.81,14.01-11.49,20.18-1.93,2.55-5.74,4.19-5.79,7.65.59,6.01,16.01,10.61,19.74,13.94,2.19,1.96,3.16,5.59,5.73,7.7,3.79,3.11,9.66,2.06,9.29,8.45l8.86,2.15,1.04-1.99c6.24,2.47,12.02,7.04,18.74,7.69v295.4s-231.31,0-231.31,0c.17-5.59-.2-11.23-.03-16.83,2.25-74.03,1.26-148.86.96-223.47-.07-17.58.35-35.99.08-53.62-.17-11.03-1.83-22.04-.99-33.13l1.55,1.94c1.32.06,3.12.23,4.24-.47,2.37-1.5-1.86-6.29,1.38-5.3,3,.92,4.65,5.45,7.22,7.19l1.92-.98-1.02-6.67,2.94-.51-.11-1.31c-.15-1.02-2.59-6.72-3.23-7.34-2.19-2.1-6.23.97-6.11-4.28s4.71-5.73,7.09-10.04c1.8-3.25,2.81-11.34,3.76-12.54,1.04-1.32,3.61-.69,5.28-1.44,1.5-.67,4.88-4.61,6.73-5.72-2.78-2.34-4.54-5.23-3.71-9,6.45-.9,6.94-2.45,7.66-8.65l3.75-.08c-1.36-4.56,2.84-7.94,7.11-6.79,1.09.29.39,3.78,2.47,3.91l1.94-11.51c4.69.56,6.63,2.71,9.58-1.91,2.6,7.54,8.2,5.88,13.93,5.66,1.62-.06,3.54,1.04,4.69.83,1.62-.3,4.15-5.89,9.02-2.46,1.27.9.09,4.57,3.08,3.64l.97-6.72,2.87.96c.01-6.86,2.7-12.02-3.9-16.71s-9.08-.55-13.08-2.21c-1.71-.71-5.79-4.48-4.21-6.51,3.29-4.24,5.02-.78,7.33-.5,8.82,1.07,9.76-.94,12.97,9.59Z" fill="#8b6e82"/><path d="M755.34,453.56l.46,361.6c-10.79.26-24.27-16.31-28.47-25.26-.78-1.65-3.72-10.4-3.75-11.66-.08-3.08,2.52-4.42,2.94-6.8,1.31-7.45-9.53-24.74-14.82-30.19-1.72-1.78-11.92-9.89-13.73-10.34-3.79-.93-10.86,4.44-15.58,2.7,1.21-3.88,4.24-4.78,5.81-9.05,3.3-8.99,1.95-18.65-1.51-27.37-.88-2.23-6.47-14.01-9.1-11.53-.1,4.76-8.04,29.68-11.2,30.58-7.41-2.22-12.1,5.14-18.55,6.83.02-3.68,2.63-9.53,6.43-10.35,5.75-1.24,8.04,2.13,8.92-6.43,1.02-9.98-2.66-18.95,3.87-27.78,5.39-7.29,12.79-7.41,5.88-19.07l5.45-6.67c-3.2-5.72-6.51-11.05-6.57-17.93-2.57-.24-1.54,0-1.9,1.44-.63,2.61-.81,10.05-1.83,11.42-.69.94-2.78.08-4.82,2.1-4.98,4.93-5,16.05-8.7,20.08-2.12,2.3-8.15,3.22-11.44,4.87-6.87,3.46-18.2,15.15-17.39,23.39-4.77-1.01-8.32,2.25-6.59,7.08.73,2.06,5.17.63.36,7.3l-3.01-2.79-3.6,1.78c-1.11-.2-8.04-10.98-8.12-12.09-.09-1.31,1.87-2.21,1.6-5.31-.93-10.5-8.68-19.9-14.05-28.28-1.84-2.87-2.48-6.94-4.98-9.41-3.14-3.11-17.41-4.3-14.3-13.29.97-2.8,5.38-.22,4.67-2.97-1.27-4.9-6.41-9.54-11.48-6.27-.72-1.97,2.7-4.41,2.69-5.28,0-1.04-6.45-5.95-7.81-6.47-4.24-1.62-4.82,2.71-7.89,3.15-5.87.83-15.23-8.07-20.71-10.94-6.63-3.46-31.34-12.23-38.23-12.62-5.29-.31-10.91,2.72-15.98,3.29-13.25,1.48-27.23-1.68-40.2,2.99-.15-8.02.64-16.25.51-24.51-.29-18.54-.1-37.05,0-55.55.14-25.11-.18-50.24-.04-75.33l316.74.96Z" fill="#8b6e82"/><path d="M1093.18,501.52c-1.08,3.58,1.44,6.34,1.87,9.16,1.22,8.03-5.63,20.82-8.1,29.21-2.61,8.86-6.88,23.56-7.92,32.37-1.83,15.64,3.07,24.25-6.75,39.3-1.21,1.86-2.97,2.34-3.92,3.75-1.19,1.77-6.73,10.74-1.12,9,.68,8.59-9.35,10.2-14.36,14.85l2.87,2.38c-1.53,1.23-9.2,2.05-9.59,2.35-1.35,1.03-1.11,4.05-2.41,5.36-.92.92-2.81.54-3.38,1.6-1.26,2.34-1.41,8.13-3.04,11.17-.68,1.28-2.49,1.38-2.7,2.27-.48,1.99.52,4.32-.68,6.79-.88,1.8-2.81,1.93-3.02,2.24s1.26,2.52.79,4.1c-.34,1.15-5.29,2.15-2.13,3.47l2.17.46c-2.26,3.87-6.5,7.9-8.15,12-2.47,6.13.18,13.57-8.16,15.36v1.88s2.77,1.54,2.77,1.54c1.19,3.21-1.32,3.25-1.46,3.59-1.63,3.86-2.42,4.14-4.05,7.03-2.62,4.64-4.8,13.29-10.71,13.76,1.45,3.57,2.44,4.15-.95,7.19l1.92.91c-3.46,5.86-2.03,13.82-2.96,20.1-.95,6.41-6.63,12.27-4.53,19.07.44,1.42,2.41,2.27,2.63,3.19.36,1.54-2.34,2.45-2.61,3.82s1.38,4.22.74,6.12c-3.81,1.06-4.6-2.74-6.42-3.61-2.77-1.33-8-1.3-11.8-2.64-4.84-1.7-10.2-5.6-15.03-8-2.68-1.33-11.52-3.9-12.83-5.4-1.47-1.68-.86-7.04-2.11-10.36-1.07-2.84-3.84-4.61-4.4-7.11-.77-3.43,1.36-7.05-3.03-8.49-5.56-1.83-12.24,2.79-17.8,3.42-6.16.69-14.72-2.2-18.03-1.74-2.16.3-3.9,2.84-6.85,2.68s-5.51-3.56-7.83-3.83c-2.86-.34-5.73-.59-8.61-.9-2.54-.28-10.39-1.16-12.33-.99-5.23.45-4.64,4.46-4.41,8.62-1.92,1.9-12.5-3.58-14.36-5.32-2.98-2.79-3.15-8.24-9.68-12.39-7.4-4.71-12.48-1.19-16.76-11.06-3.25-7.5-.03-12.52-10.78-14.15-6.6-1-9.61,1.23-15.59,2.63-.61-6.49-3.43-13-9.87-15.56-1.62-.65-11.55-1.78-13.68-1.77-3.04.02-4.99,1.96-6.71,1.95-1.88,0-4.56-2.58-7.16-1.9l-.05-180.27c14.23.21,28.51-.25,42.76-.03,43.98.66,88.52,1.37,132.37,1.04,7.98-.06,30.65,1.39,36.3-1.93,1.1-.65,2.26-3.67,5.1-3.81l-.58-2.93c4.17,1.82,6.53-4.68,7.39-4.86,2.25-.47,6.73,2.2,10.39,2.07,3.2-.11,5.1-2,7.63-2.04,3.76-.06,8.96,2.8,12.74,3.64,2.47.55,5.02-.09,7.4.28,6.3.97,10.54,10.41,9.17,16.26,2.54,2.47,10.59-6.75,10.57-9.59,2.21-1.59,4.15,7.27,9.63,1.48,3.86-4.08.18-7.1.91-12.04,6.42,1.33,8.03-2.02,12.2-5.62,2.68-.69,6.41,3.4,8.6,3.54,1.28.08,2.29-1.59,3.71-1.74,2.08-.22,4.12,1.38,7.41.76,2.97-.55,5.92-4.14,9.35-3.64Z" fill="#8b6e82"/><path d="M817.56,721.31c.29,6.03,2.52,12.34,6.84,16.66,5.18,5.17,14.89,3.28,19.64,12.02.88,1.62.66,4.29,1.74,5.46.47.5,11.03,6.52,11.98,6.72,3.3.69,11.25,1.14,11.57-3.32.15-2.15-1.66-3.72.66-4.97l20.13,2.82c6.47,5.28,10.28,1.07,15.43.83,3.75-.17,9.2,2.02,13.28,1.92,6.37-.16,13.46-3.99,19.83-4.73-1.37,6.87,5.54,11.4,6.35,17.24.41,2.95-1.17,5.32.28,7.27l30.82,15.27c11.41,1.35,21.5,7.06,4.04,10.78-13.11,2.79-28.52,1.75-41.78,5-2.51,3.54-5.62,6.73-8.8,9.67-8.99,8.29-17.47,18.97-31.21,16.28l.96,6.71,4.78-.96-.96,7.67c-2.23.6-1.61-.53-2.2-1.21-2.4-2.8-3.7-6.17-7.41-7.91l-4.77,2.41-2.05-6.58c-5.91,1.17-12.42-.49-10.47-8.09.3-1.16,3.32-1.1,2.98-3.06.02-1.32-3.38-4.78-4.58-5.13-6.39-1.85-2.8,6.5-5.02,8.06l-11.58-.56c-.64-3.51,4.4-.95,6.73-3.32,4.47-4.52-3.98-9.76-8.29-10.06-2.29-.16-10.35,2.35-10.77,4.36-.2.94.91,2.49.81,3.74-.28,3.55-7.43,4.98-10.1,7.19-2.94,2.44-7.07,11.26-10.59,11.58-4.54.4-22.68-15.74-30.16-16.94-2.7-.43-5.17.82-8.15.62-4.53-.3-7.42-3.61-12.54-2.99-4.25.52-3.17,5.02-8.11,3.92,1.9-5.38-5.89-8.25-6.57-10.23-.36-1.05-.98-12.66-1.11-15.2-1.56-31.75,1.47-63.72.96-95.42,2.6-.17,4.71,2.8,7.19,2.8,2.16,0,4.06-2.36,5.96-2.62,1.09-.15,10.59.85,11.83,1.21,8.23,2.4,5.64,8.5,8.72,13.34,4.7,7.38,8.96-.07,14.78-.39,3.22-.18,6.04.98,8.92,2.12Z" fill="#8b6e82"/><path d="M914.65,922.56c-.72-9.14,11.03-5.66,16.6-6.91,2.82-.63,4.57-4.01,7.14-4.46,2.09-.36,3.52.91,4.49.86.42-.02,1.76-4.26,5.48-3.4,3.14.73,3.52,4.01,3.77,6.68,1.25,13.33-.84,28.36-1.01,41.76-1.23-.31-5.04-5.23-6.26-2.91-2.68,8.67.36,36.22-14.83,28.8l-1.46,2.86c-.88.03-4.43-6.26-5.77-3.83-.55,5.75-.46,10.31-2.35,15.88-.64,1.88-5.72,11.83-6.74,12.49-2.04,1.32-5.98-2.08-9.1-2.47-5.43-.69-19.35,3.8-11.08-6.24v-1.4c-12.45-7.61-20.65-23.09-23.02-37.42l8.63,4.32c-7.31-11.03-15.8-23-19.9-35.74-2.41-7.46-4.53-18.7-1.7-26.12l48.97,20.11,2.92-4.76,5.22,1.91Z" fill="#8b6e82"/></svg>
