<?xml version="1.0" encoding="UTF-8"?><svg xmlns="http://www.w3.org/2000/svg" viewBox="0 0 1098 1015.5"><g id="nt"><path d="M670.7,401.9c0-7.6.6-10.2.6-18-3.2,7.8-7.7,17.9-12,27.3-7.2,15.7-15.9,34-19,38.9,3.9,0,7.4,0,10.3,0,4.3-13,12.8-32.9,20-48.2Z" fill="#d67847"/><path d="M643.2,394.5c4.9-10.4,10.4-22.2,9.7-23.5-5-1.4-15.7-2.7-14.2-13.4,1.8-8.9,24.7-12.7,32.4-4-.2-9.7-.3-19-.4-25.1-6.7-2.9-3.4-11.1.5-19.1.4-9.6.7-19.7.2-25.4-.7-8.2,0-29.5,0-37.4-19.5,9.7-34.6,23.6-37.4,48.2-7.3,64.4,8.4,100.6-40.2,155,4.6,0,9.2,0,14.4.2,4.2.1,9.3.2,14.7.2-1.1-10.5,11.1-36.5,20.1-55.7Z" fill="#d67847"/><path id="_Path_" d="M530.8,27.3c-1.1,2.5-1.4,2.4.9,4.9-.8,1.3-2.5,4.6-.5,7.6-2.4-.8-4.5-2.5-4.6,6.1-1.7-4.3-2.9-4.9-2.9-4.9l-2.1,1.3-1.4-2.6s-2.9,1.4-4.7,5.3c-1.6-.7-2.4-2.2-8-.9-1.4.3-2.8.3-4,0,1.7,4.5-3.3,10.5-7.9,7.4,0,9.8-12.2,11.2-17.3,4.5-3.6-4.9-2.8-9.5,1.4-14.1,0,0,.2-.2.3-.3-.6-.4-1.2-.9-1.7-1.6-.1.1-.2.2-.3.2-4.1,4.6-5.5,9-3.4,14.1-.9,0-2.3-.2-3.3-1.2-.6,6.6-1.5,12.1-8.1,12-.2,2,.8,5.3,4,7.4l-7.9,6.3s-1.8-.4-3.7-2.1c-.3,5.4-3.7,18.2-7.2,19.5l-2.2.5s-5.4,11.2,4,9.5c2.6,5,3.8,8.4,3.8,8.4,0,0-3.3-.7-3.3-.7,0,0,.5,3.1.8,5.8,3.1,1.4,5.9,6.3,4,9.4-4.7,7.3-16.5-4.2-7.4-9.2-.3-.4-.5-.8-.8-1.2-1.3-2.5-4.3-3.2-5.7-2.6.4,3.7,1.1,4.7,1.1,4.7,0,0-3,2.1-4.1.8-1.1-1.3-4-6.7-4-6.7,0,0-.7,0-1.6,0,.1.3,0,.8.3.8,1.1,6.1-.3,3.3-.7,5.7-.4,2.8.6,8.4.6,12.1,0,3.7-.6,6.5,0,9.5.4,1.7.3,8.6.2,15.4,2.5,2.4,2,5.6,0,7.5,0,2.6,0,4.8.2,6.1.6,7.9.2,22.7.8,30.4,4.7,2.1,5.7,10.2-.2,11.1.4,10.8,0,17.9,0,33,8-3.1,11.4,10.4,4.5,12.1-1.7.4-3.3,0-4.6-1-.3,37.3-.8,39.1.4,70.6,4.9-3,11.8,2.9,7.3,8.5-2.3,3-5,3-7,1.7,0,2.5,0,4.5,0,5.6-.2,6.3-1.5,40.5-1.7,47-.1,3.7.1,6.4.5,8.6,1.6-.9,3.6-.9,5.6.7,6.1,5,0,10.8-4.6,10.4-.2,4.9-.7,10.9-.7,13.3,0,3.7-.9,10.2-.9,15.2,0,2.5.3,6.5.7,11,10.6,1.1,22.7.9,36,.4-1.7-2.6-1.9-6.4.3-7.7,5.2-3,13.7,2.1,9,7.5,5.2,0,11-.1,17.3-.1-1.2-2.2-1-5,1.4-6.9,4.6-3.6,12.1,2.6,10.4,7,7,.1,16.7.4,22.8.3,4.5-5.3,11.4-4.3,15.2-.4,2.7-.1,5-.3,7.4-.4-6.5-3.9-6.2-15.9,3.1-17.8,13.1-2.6,14.6,12.7,6.9,17.6,6.1,0,12.9.3,18.2.3,84.5-86-7.1-168.6,89.7-215-.2-2.8-.3-6.3-.2-11.5,0-.4,0-.9,0-1.4-3.9-1.3-4.1-5.5-7.1-6.9-1.4,3.6,2.4,11.4-5.3,14.8-16.8,7.4-22.1-27.5,5.3-14.8,2.2-5.8,4.7-9.3,7.2-11.1,0-13.5-.2-28.3-.7-32.8-.4-3.8-.6-10.7-.7-16.3,1.5,1.4-1.1-2.1-1.3-2.3,1.6,2.6,1.5,6.3-2.2,8-6.3,2.9-10.8-5.7-6-9.6.7-.6,1.5-.9,2.2-1.1,0,0-16.3-7.7-16.3-7.7,0,0,1.8,3.7,1.8,3.7,0,0-5.8-2.3-8.5-2,.4-2.3-.4-4.2-1.9-5.2-1-.8-2.9-.9-3.7-1.9-1.3-.6-2.6-1.1-3-1.4-.8-.5-2.6-2.6-4.5-5.8-1.9-3.2-6.2-4.7-9.6-6.5s-12.6-6.2-12.2-11.2c2.2-2,4.1-3,5.1-5.4.1-.2.5-.3,1-.5,1.1-1.3,2-2.6,2.8-3.8,1.8-2.9,8.9-14.5,9.5-19.5-1.8.8-3.2,1.6-3.2,1.6,0,0,.2-10.7,2.5-14.3-4.1-1-6.1-7-2.3-10,4.7-3.7,9.7,1.3,9.2,5.6.5,0,1,0,1.6,0,.8,3.9,0,6.5-1,7.4,2.9-.8,6.2-2.8,5.5-7.8l4.2-1.3s-2.8-1.8-2.6-4.1c-.8-.1-1.7-.4-2.4-.9-5-3.3,1.5-14,7.5-8.8,0,0,0,0,0,0l2.2.2,3.4-4.3s-3.2-5.9-4.2-5.8c-1.1,0-4.5,3-4.5,3,0,0-4-8.3-4-8.3l-8.1,5.9s4.8.8,4.7,3.2c-.2,2.4-1,4.4-5.1,5.1-4.1.7-5.8.3-5.4-2.5.4-2.8,1.2-3.2,1.2-3.2,0,0-1.6,0-1.6,0-2.2,1-4.2.5-5.6-.7,0,0-.1.2-.1.2-.4,1.3-1.2,1.8-1.2,1.8,0,0-2.7-1.3-.2-3.1.1,0,.3-.2.4-.3-.5-.7-.8-1.5-1-2.3-1.2.6-2.2,1.2-2.5,1.2-.7,0-2.8-1.8-4.9-.8-1.2.6-2.7,1.6-3.9,2.5,6.2-3.7,12.4,6.8,5.3,10.1-6.2,2.9-10.7-5.6-6.1-9.5-1.5,1.3-6,2.5-9.5-3.8-.7-1.4-1.9-3.8-1.9-3.8,0,0-3,1.9-4.2,3.8-1.9-.5-1.9-.7-1.7-.7-1.1.1-7.2.7-9.6-1.3-3,.5-5.3-1.7-6.1-4.2-1.7.6-3.1.7-2.8-.3.3-1.2,2-2.4,0-3.2-1.8-.7-3.8-1.4-5.5-.4,2,2.6,2.4,6.1-1.4,7.6-5.6,2.2-8.5-2.7-7.8-6.6-1.3-.6-2.9-1.1-4.8-1.5-5.9-6.9-7.4-10.3-7.4-10.3,0,0-3.6,5.7-6.7,5.7,0,0,0,3.8,0,3.8ZM447,445.5c-4-4,1.1-13.7,7.6-8.5,7.2,5.8-2.9,13.1-7.6,8.5ZM455.2,254.2c5.8-7.2,11.8,2.3,8.7,7.8-1.8,3.2-14.8-.3-8.7-7.8ZM449.1,211.3c4.7-6,13.3,1.9,9.5,8.6-3,5.3-14.5-2.2-9.5-8.6ZM458.9,331.2c6.2-3.2,12.6,6.5,5.8,9.5-8,3.5-13.3-5.6-5.8-9.5ZM458.9,414.4c-1.5-1.5.4-10.9,6.1-8.7,8,3-2.2,12.5-6.1,8.7ZM478.3,375.2c-5.8,7.2-11.8-2.3-8.7-7.8,1.8-3.2,14.8.3,8.7,7.8ZM484.9,64.7c4.8,3.1,0,15.1-6.9,9.5-5.6-4.5,1.4-13.1,6.9-9.5ZM491.5,140c7-1.5,11,9.8,2.9,11.7-7.5,1.8-10.3-10.2-2.9-11.7ZM487.7,305.9c-5.6,2.1-8.7-6.7-3.5-8.7,5.6-2.1,8.7,6.7,3.5,8.7ZM484,269c-6.3,2.9-10.8-5.7-6-9.6,6.4-5.1,13.4,6.1,6,9.6ZM482.3,228.8c-6.3,2.9-10.8-5.7-6-9.6,6.4-5.1,13.4,6.1,6,9.6ZM481.2,190c-4.9,4.7-14.6-2.9-7.5-8.5,6.1-4.9,12.6,3.6,7.5,8.5ZM480,334.1c3.7-6.4,16.7,5.3,6.8,9.6-5,2.2-8.8-6.2-6.8-9.6ZM491.2,417.9c-5.6,2.1-8.7-6.7-3.5-8.7,5.6-2.1,8.7,6.7,3.5,8.7ZM495.5,187.7c6.4-5.1,13.4,6.1,6,9.6-6.3,2.9-10.8-5.7-6-9.6ZM558.4,302.2c-3.1,5.2-15.2-3.9-8.2-8.2,6.1-3.8,11.8,2.3,8.2,8.2ZM559.7,328.5c7.2,5.8-2.9,13.1-7.6,8.5-4-4,1.1-13.7,7.6-8.5ZM554.1,235.8c-6.3,2.9-10.8-5.7-6-9.6,6.4-5.1,13.4,6.1,6,9.6ZM540.1,202.8c-8.6-6.8,5.4-11.5,8-8.9,1.6,1.6,0,15.2-8,8.9ZM537.6,297.2c1.6,1.6,0,15.2-8,8.9-8.6-6.8,5.4-11.5,8-8.9ZM519.2,269.4c-7.8-6.3,4.2-13.9,7.7-8.7,3.4,5.1-2.2,13.1-7.7,8.7ZM540.4,151.8c5.4,6.7-7.3,12.8-9.6,8.7-3.7-6.7,4.7-14.8,9.6-8.7ZM532.6,78.6c5.6-3,15.1,2.9,7.8,8.7-7.6,6.1-11.1-6.9-7.8-8.7ZM531.6,232.5c-4.5,5.6-13.1-1.4-9.5-6.9,3.1-4.8,15.1,0,9.5,6.9ZM522.5,200.7c-8,3.5-13.3-5.6-5.8-9.5,6.2-3.2,12.6,6.5,5.8,9.5ZM512,307.5c-6.3,2.9-10.8-5.7-6-9.6,6.4-5.1,13.4,6.1,6,9.6ZM506.8,232.3c-6.3,2.9-10.8-5.7-6-9.6,6.4-5.1,13.4,6.1,6,9.6ZM497.6,260.7c2.5-4.3,14.5.4,8.7,7.7-5.7,7.2-11.8-2.1-8.7-7.7ZM505.2,379.4c-4.2,1.7-11.1-6.1-6.1-9.7,7.3-5.3,12.7,6.9,6.1,9.7ZM512,342.5c-6.3,2.9-10.8-5.7-6-9.6,6.4-5.1,13.4,6.1,6,9.6ZM525.1,419.4c-5.6,3.2-15-2.9-7.7-8.6,7.3-5.8,12.1,6.2,7.7,8.6ZM525.7,377.4c-5.3-3.5,2.3-15.4,8.7-7.7,4.5,5.5-3.6,11-8.7,7.7ZM527.3,340.7c-4.9-7.2,6.7-14.9,11.3-6.8,3.8,6.8-9.1,9.9-11.3,6.8ZM539.4,267.4c-1.6-1.6,0-15.2,8-8.9,8.6,6.8-5.4,11.5-8,8.9ZM546.6,415.9c-3.2-5.3,3-14.3,8.6-9.5,8.3,6.9-5.2,15.2-8.6,9.5ZM559.3,374c-6.3,2.9-10.8-5.7-6-9.6,6.4-5.1,13.4,6.1,6,9.6ZM581.9,429.8c-13.1,4.3-18.9-12.5-8.9-17.7,11.8-6,21,13.7,8.9,17.7ZM582.2,257.1c-7.8-6.3,4.2-13.9,7.7-8.7,3.4,5.1-2.2,13.1-7.7,8.7ZM583.3,296.4c-6.3,5-13.9-6.4-8.6-9.5,6.7-3.8,14.6,4.7,8.6,9.5ZM588.9,199c-7.7,1.7-8.7-10.6-2.9-11.9,7.5-1.8,10.5,10.2,2.9,11.9ZM583,230.5c-1.8,3.3-13.2,1-9.6-6.8,3.3-7.1,13,.7,9.6,6.8ZM581,323.9c5.1,5.3-2.8,12.7-7.6,6.6-3.1-3.9,3-11.3,7.6-6.6ZM586.5,404.9c-6.3-10.2,8.2-20.2,15.5-12.8,10.3,10.5-7.8,25.1-15.5,12.8ZM610.5,381.4c-10.2,11.6-23.5-4.7-14.6-13.7,7.4-7.6,23.7,3.4,14.6,13.7ZM606.4,361.6c-17.2,3.3-14-21.2-1-22.1,11.8-.8,13.1,19.7,1,22.1ZM609.9,333.6c-17.7,5.5-17.9-24.8,0-18.6,8.1,2.8,7.9,16.1,0,18.6ZM606.8,308.6c-13.9.2-12.3-20.2,0-20,11.7.1,13.5,19.8,0,20ZM601.1,281c-6.9-7,.7-23,12.8-15.4,12.6,7.8-3.7,24.7-12.8,15.4ZM604.1,213.9c6.4-5.1,13.4,6.1,6,9.6-6.3,2.9-10.8-5.7-6-9.6ZM618.6,260.1c-13,2.6-16.6-15.1-6.2-18.6,14.6-4.9,18.7,16.2,6.2,18.6ZM659.7,198.8c-5.8,5.9-14.1-5.4-8-9.8,6.2-4.4,13.5,4.1,8,9.8ZM642.6,163.2c6.4-5.1,13.4,6.1,6,9.6-6.3,2.9-10.8-5.7-6-9.6ZM637.9,244.4c-12.5,4.3-19.8-12.5-8.8-17.7,14.2-6.7,19.3,14,8.8,17.7ZM635.4,203c3.4,5.1-2.2,13.1-7.7,8.7-7.8-6.3,4.2-13.9,7.7-8.7ZM631.2,183.4c-4.2,1.7-11.1-6.1-6.1-9.7,7.3-5.3,12.7,6.9,6.1,9.7ZM616.6,136.3c2.2-3.6,15.9-.3,9.6,6.9-5,5.7-12.9-1.6-9.6-6.9ZM610.3,179.9c6.4,0,6.8,11,1.5,12.2-8.7,2-10-12.3-1.5-12.2ZM604.1,67c6.4-5.1,13.4,6.1,6,9.6-6.3,2.9-10.8-5.7-6-9.6ZM604.3,152.9c-5.7,7.2-11.8-2.1-8.7-7.7,2.5-4.3,14.5.4,8.7,7.7ZM596.1,122c-6.3,2.9-10.8-5.7-6-9.6,6.4-5.1,13.4,6.1,6,9.6ZM592.6,81.8c-6.3,2.9-10.8-5.7-6-9.6,6.4-5.1,13.4,6.1,6,9.6ZM592.1,51.2c4.6,5.3-3.7,11.2-8.7,7.7-4.7-3.2.7-16.9,8.7-7.7ZM583,158.7c-3.1,5.7-17.4-5.9-10-10,6.4-3.6,13.5,3.6,10,10ZM567.7,115.5c3-5.3,14.5,2.2,9.5,8.6-4.7,6-13.3-1.9-9.5-8.6ZM578.9,80.2c2.2,5-6.2,8.8-9.6,6.8-6.4-3.7,5.3-16.7,9.6-6.8ZM565.5,54.7c6.8-8.6,11.5,5.4,8.9,8-1.6,1.6-15.2,0-8.9-8ZM565.5,192.9c7-5.6,11.7,6.4,6.9,9.5-5.5,3.6-12.5-5.1-6.9-9.5ZM569,253.6c3.9,2.3.3,15.7-8.3,10.1-5.5-3.6,2.4-13.6,8.3-10.1ZM560.2,160.5c-2.3,4.2-14.9-1.9-9.6-8.7,4.9-6.1,13.2,2,9.6,8.7ZM560.4,81.1c2.3,5.7-8,9.7-10.3,5.9-4.1-7,7.6-12.5,10.3-5.9ZM548,54.7c6.4-5.1,13.4,6.1,6,9.6-6.3,2.9-10.8-5.7-6-9.6ZM544.8,115.4c7.5-4.7,13.7,10,5.7,11.9-7.5,1.8-9.1-9.8-5.7-11.9ZM535.2,26.1c8.1-3.6,10.6,9.7,4.9,12.1-5.3,2.3-11.9-8.9-4.9-12.1ZM529.3,54.4c4.9-5.1,13.4,1.4,8.5,7.5-5.6,7.1-13.2-2.7-8.5-7.5ZM524.5,113.9c5.3-.9,12.4,11.3,3.3,13.3-8.1,1.7-10.4-12.1-3.3-13.3ZM520.8,87c-6.3,2.9-10.8-5.7-6-9.6,6.4-5.1,13.4,6.1,6,9.6ZM511.3,49.5c6.4-5.1,13.4,6.1,6,9.6-6.3,2.9-10.8-5.7-6-9.6ZM512.6,145.1c8-1.5,10,10.4,2.8,11.8-7.2,1.5-9.9-10.5-2.8-11.8ZM507.1,111.6c5,6.3-6.5,13.9-9.5,8.6-3.8-6.7,4.7-14.6,9.5-8.6ZM499.6,83.4c-7.8,1.9-10-6.1-5.8-9.4,6.2-4.9,16,7,5.8,9.4ZM476.3,103.7c6.4-5.1,13.4,6.1,6,9.6-6.3,2.9-10.8-5.7-6-9.6ZM477.7,133.2c4.7,4.9-2.9,14.6-8.5,7.5-4.9-6.1,3.6-12.6,8.5-7.5ZM467.8,298c4.5,5.5-3.6,11-8.7,7.7-5.3-3.5,2.3-15.4,8.7-7.7ZM454.1,94.6c5.1-5.2,14.6,1.5,11,8.3-3.8,7.1-17.9-1.3-11-8.3ZM456.4,171c8.6,6.8-5.4,11.5-8,8.9-1.6-1.6,0-15.2,8-8.9ZM449.8,375.7c-6.7,3.8-14.6-4.7-8.6-9.5,6.3-5,13.9,6.4,8.6,9.5ZM442.9,300.5c-7,4.1-12.5-7.6-5.9-10.3,5.7-2.3,9.7,8,5.9,10.3Z" fill="#d67847"/><path id="_Path_-2" d="M497,43.3c-3.2-6.5-11.3-7.9-16.1-6.9-1.1.2-2.6,1.5-2.6,1.6-2.9,3.2-4.4,6.4-4.4,9.7,0,2.5.9,5.1,2.7,7.5,1.6,2.2,3.9,3.7,6.5,4.5,1.3.4,2.6.6,3.9.6,2.1,0,4.1-.5,6-1.5,3-1.6,4.6-4.8,5.1-8.3,0-.6.1-1.2.1-1.8,0-1.9-.4-3.9-1.2-5.5Z" fill="#fff"/><path id="_Path_-3" d="M497,43.3c-3.2-6.5-11.3-7.9-16.1-6.9-1.1.2-2.6,1.5-2.6,1.6-2.9,3.2-4.4,6.4-4.4,9.7,0,2.5.9,5.1,2.7,7.5,1.6,2.2,3.9,3.7,6.5,4.5,1.3.4,2.6.6,3.9.6,2.1,0,4.1-.5,6-1.5,3-1.6,4.6-4.8,5.1-8.3,0-.6.1-1.2.1-1.8,0-1.9-.4-3.9-1.2-5.5ZM483.6,57.3c-2-.6-3.9-1.9-5.1-3.6-1.5-2-2.3-4.1-2.3-6.1s1.2-5.3,3.7-8c.3-.3,1.2-.9,1.5-1,3.2-.7,10.7-.2,13.5,5.6.6,1.3.9,2.8.9,4.4s0,1.5-.2,2.2c-.5,2.5-1.7,4.7-3.7,5.8-2.5,1.3-5.6,1.5-8.3.6Z" fill="#1c1c1b"/><path id="_Path_-4" d="M489.6,40.6h0c-1.9-.9-4-1.1-5.7-.4-.4,0-.8.1-1.2.2-3.4,1-5.4,4.7-4.7,8.6.4,2,1.8,4.6,4,5.7.7.3,1.4.6,2,.7.6.1,1.2.2,1.8.2,1.3,0,2.7-.4,4.1-1.1,1.5-.8,2.7-2.2,3.3-3.9.4-1,.5-2.1.5-3.2,0-3.1-1.6-5.7-4-6.9ZM491.1,51.1c-.4.6-.8,1.2-1.4,1.6-.2.2-.4.3-.7.5-1.7.9-3.2,1.1-4.8.7-.5-.1-1-.3-1.5-.6-1.4-.7-2.7-2.6-3.1-4.5-.6-3.1.9-6,3.5-6.8.3,0,.6-.1,1-.2h.3c.6-.3,1.2-.4,1.8-.4s1.8.2,2.7.7h0c1.9.9,3.1,3,3.1,5.5,0,.8-.1,1.5-.3,2.2-.1.5-.3.9-.6,1.4Z"/></g><g id="qld"><path id="_Path_-5" d="M750.6,217c-22.4,11.7-53.9,17.2-78.6,29.4,0,7.7-.7,29.3,0,37.6.5,5.5.2,15.2-.2,24.5,3.7-6.9,8.7-14.2,12.5-19.8,2.7-3.9,5.2-7.5,5.2-8.2-5.2-4-16.8-7.9-11.3-18.6,2.3-4.1,11-4.7,17.8-3.9,9,1,18.8,4.7,20.4,10.5,1.4,5.2-7,21.4-16,35.1-7.4,11.2-17.6,24.5-22.1,25.1-2.5.3-4.9.4-7-.2,0,6.3.2,15.6.4,25.4,3.7,3.9,5.2,9.7,4.4,17.1-.2,1.5-1.8,5.9-4.2,11.7,0,4.2-.1,7.8-.3,10.3-.1,2-.2,4.7-.3,7.8,9.1-19.4,18.7-37.1,22.2-38.5,7.2-2.8,15.2,2.2,19.7,8.4,4.9,6.7,5.6,14,1.8,18.5-3.9,4.6-10.2,1.8-14.2,1-1.3.9-5.2,11.1-9.4,21.9-4.7,12.2-10.4,26.7-15.8,38.2,9-.3,25.3-.7,36.6-.4,3.7-3.3,9.2-4.3,13,.2,0,0,.1.1.2.2,6.1.2,11.3.4,14.1.4h14.9c.9,9.2.9,56.5.9,67.3,1.6,0,5.9,0,11.7,0,1.9-3,7.7-2.7,9.1,0,4.1,0,8.5,0,13,.1,1.5-3.6,6-6.4,9.9-1.6.5.6.8,1.2,1,1.8,4.5.1,9,.3,13,.5,15.5.9,26.6,0,36.7-.4,2.3-4.6,7.9-3.9,9.9-.1,1.3,0,2.6,0,4,.2,3.6.2,8.8.3,14.7.4-1.5-2.3-1.5-5.6,1-7.6,5.5-4.3,11.4,3.1,8.4,7.6,11,0,22.9-.2,31.7-.3,1.5-1.1,3.4-1.4,5.6,0,1.9,0,3.5,0,4.8,0,0,0,12.7.7,18.2.8,5.5.1,6.7-.2,9.6-.1.4,0,.7,0,1.2,0,.3-.3.6-.6,1-.9,2.6-2,5-1.5,6.9.1.7-.2,1.3-.4,1.8-.7,2.3-1.4,1.9-3.7,1.9-3.7,0,0,3.8,0,3.8,0,0,0-.5-4.1-.5-4.1l3.8.9s3.6-5.4,4.3-5.7.7,0,1.2.2c-.5-3.4,1.3-7.2,5.7-7.1,4.6,0,6.1,5.7,4.6,9.4,2.7-.5,6.8-2.9,6.8-2.9,0,0,2.8,2,5.8,2.4,2.9.3,6.7,2.4,6.7,2.4,0,0,1.7-.8,6.7.1,5,.9,4.9,1.6,6.3,3.5,1.4,1.8,3.5,4.3,3.7,6.2.2,1.9.7,7.1.7,7.1,0,0,2-1,3.6-2.3,1.6-1.2,6.8-8.9,6.8-8.9,0,0,.4.5,1,1.1-.6-4.9,4.1-9.4,8.1-7.7,0-1.3,0-2.6.5-3.6,2.9.5,6.2.2,6.2.2,0,0,5.8-6,5.8-6s2.3,1.1,4.9,2.3c-.4-2.8.9-5.7,4.4-6.6,5-1.2,8,3.7,7.1,7.6,1,.2,2,.5,2.6.6,2.9-1.5,5.7-3.5,5.7-3.5l5.3-1c0,.2,0,.4,0,.6,0,0,.3,0,.3,0-.2-1.7-.6-3.9-1.8-6.8-1.1-2.7-2.8-7.2-4.5-11.8-3,.6-5.2-1-6.2-3.2-4.4-.9-8.1-5.6-8-9.9-2.2,1.2-5.2,1.8-6.8.8-6.1-3.7,3.7-17.6,9.3-7.3.7-.9,1.6-2,2.7-2.4,1.1-.2,2.6-.3,4.3-.1,7.1.5,12.4,7,9.3,14.6.4,1.5.4,3.1-.3,4.5,3.7-3.4,4.5-9.9,2.3-14.3-2.3-4.6-7.1-6.7-11.4-7.1,0-3.1-.2-6.2-.5-8.4-1-5.7-.5-3.7-.5-3.7,0,0,.9-4.9.9-4.9-5.1.2-10.6-6.7-5.9-10,2.3-1.6,4.7-1.8,6.5-1.1l-2.2-2.5-1.6,1s-4.2-3.9-4-5.8c.2-1.9,1.9-4.4,1.6-6.3-.3-1.9-2.7-6.3-9.9-6.5.8-1.8-.2-3.6-1.6-5.2,0-3.7-.2-6.1-.2-6.1,0,0-4.5-.2-6.9-2.7-2.4-2.6-7.6-9-10-13.1-2.4-4-5.5-6.6-6.9-6-1.5.6-5,1.6-5,1.6,0,0-10.3-15.7-10.3-15.7s-1.6,3.4-1.6,3.4c0,0-3.1-2.1-3.1-3.6,0-1.5-.5-3.7-1-6.8-.5-3.1-.2-11-.3-14.1-.2-3.1-2.1-7.8-6.3-10,.3,3.4.3,4.2-.2,5.7-1.5-1-12.6-8.4-13.1-17.3-2.4,2.7-6,4.7-5.3,7.3.6,2.6,4.4,7.9,4.4,7.9,0,0-6.5-6.5-7.6-6l-1.1.5s-6.8-14.2-6.6-16.8c.2-2.6.8-5.8.3-7.3-.5-1.5-4.4-3.1-4.4-4.5,0-1.5-.6-5.2-.6-5.2,0,0-1.9,1.3-1.9,1.3s2.3-3.4.3-6.6c-1.5-2.5-3.9-2.1-5-1.8,2.9,5.6-6.7,10.9-9.7,6.2-2.4-3.6-.3-8.7,3.1-9.8h-.2s2.3-2.1,2.3-2.1-5.8-4-5.7-7.1c0-.8.3-1.4.5-1.8-1.6.8-3.5.3-5.7-2.4-3.8-4.8-.4-7.3,3.2-8.2-2.7-1.7-4.8-.5-5.6,1.1,0,0-5.2-8.9-9.4-8.6,0,0-3.6,1.8-3.6,1.8,0,0-2.3-6.7-2.3-6.7,0,0-1.5,3.2-1.3,4.8-3.2-1.8-5-4.7-5-4.7,0,0,1.2.2-.2-2.7-1.3-2.8-4.3-8.3-4.3-8.3,0,0,.3,3.8-.5,4.3-.8.5-6.7.7-7.3-.3s-3.7-7-3.7-7c0,0-1.3,3.7-1.3,3.7,0,0-8.8-5-11-6.3-.5-.3-1-.7-1.6-1.1-.6,2.3-2.2,4.3-4.9,5.3-12.3,5-17.4-11.7-9.2-16.3,3.8-2.1,7.2-1.9,9.7-.4,0-.9,0-1.7-.2-2.4-.7-2.2-6.2-7.5-6.7-11.5s2-12.2,2-14.8-3.2-9.3-4.3-14c-1.2-4.7-.2-7.3-.2-7.3,0,0-4.4-.4-8.3-4.7-8.1-1-6.5-9.7-4.7-16.9-.4-.8-.9-1.6-1.8-2.4-.9-.9-1.4-2-1.6-3.2-3.3,5.4-6.3,9.8-7.7,10.3-26.2,8.4-10-23.3,0-41.7-3.8-2.9-9.5-7.3-10.2-8.1-1-1.2-4.6-4.9-4.2-8.2-27.6,51.4-55.2,99.4-98.9,121.3ZM699.2,339.7c-27.1-2.7,21.5-56.8,32.2-58.4,8.2-1.5,12.6,3.5,14.8,7.8,5.5,11.6,5,31.9-7,31.7-5-.7-7.7-6.2-9.9-9.2-7.2,8.5-18.6,27.8-30.1,28.1ZM759.8,411.7c6.4-5.1,13.4,6.1,6,9.6-6.3,2.9-10.8-5.7-6-9.6ZM741.1,403.5c-7.4-7.5,2.9-23.4,13.5-14.4,10.6,9.1-5.9,22.2-13.5,14.4ZM767.1,428.6c2.3-4.2,14.9,1.9,9.6,8.7-4.9,6.1-13.2-2-9.6-8.7ZM774.9,381.2c4.7-1.9,11.8,7.5,5,10.3-7.9,3.2-10.5-8.1-5-10.3ZM775.6,446.7c6.4-5.1,13.4,6.1,6,9.6-6.3,2.9-10.8-5.7-6-9.6ZM779.7,410.4c-5.1-5,1.5-13.2,7.5-8.4,6.6,5.2-1.8,14.1-7.5,8.4ZM794.8,356.5c-1.8,3.2-14.8-.3-8.7-7.8,5.8-7.2,11.8,2.3,8.7,7.8ZM797.3,377.6c-6.3,1.8-11.2-9.3-4.7-12,8.4-3.5,12.3,9.8,4.7,12ZM794.1,421.3c6.4,0,6.8,11,1.5,12.2-8.7,2-10-12.3-1.5-12.2ZM796.9,384.9c1.8-3.2,14.8.3,8.7,7.8-5.8,7.2-11.8-2.3-8.7-7.8ZM811.5,347.9c-4.2,1.7-11.1-6.1-6.1-9.7,7.3-5.3,12.7,6.9,6.1,9.7ZM819.6,359.2c6.1,7.6-6.9,11.1-8.7,7.8-3-5.6,2.9-15.1,8.7-7.8ZM805.4,403c8.7-6,15.4,7,5.8,9.5-5.2,1.3-10.3-6.4-5.8-9.5ZM815,423c7.6-6.1,11.1,6.9,7.8,8.7-5.6,3-15.1-2.9-7.8-8.7ZM819.8,387.9c-4.6-3.3-.6-15.7,7.2-10.3,6.6,4.5-.2,15.3-7.2,10.3ZM826.5,320.7c6.2-3.2,12.6,6.5,5.8,9.5-8,3.5-13.3-5.6-5.8-9.5ZM829.9,399.4c6.4-5.1,13.4,6.1,6,9.6-6.3,2.9-10.8-5.7-6-9.6ZM833.3,350.7c-5.6-6.6,4.3-10.4,8.7-7.8,4.6,2.8-.7,17.2-8.7,7.8ZM843.9,364.4c6.4-5.1,13.4,6.1,6,9.6-6.3,2.9-10.8-5.7-6-9.6ZM845.9,306.1c5.6-3,15.1,2.9,7.8,8.7-7.6,6.1-11.1-6.9-7.8-8.7ZM853.5,326.8c6.1-4.9,12.6,3.6,7.5,8.5-4.9,4.7-14.6-2.9-7.5-8.5ZM863.4,346.4c6.5-4.2,12.5,7.8,8.4,10.1-8.3,4.6-13.5-6.8-8.4-10.1ZM873.7,368c8.7-4.5,12.1,6.8,5.9,9.5-6.2,2.7-12.4-6.2-5.9-9.5ZM874.5,305.8c7.3-5.8,12.1,6.2,7.7,8.6-5.6,3.2-15-2.9-7.7-8.6ZM870.7,295.2c-7.5,1.7-10.4-10.1-2.8-11.8,7.5-1.7,10.4,10.1,2.8,11.8ZM863.7,275.9c-10.6,1.7-15.9-14.7-6.2-18.6,14.1-5.6,19.4,16.4,6.2,18.6ZM837.4,289.8c-8.5-8.5,5.5-23.8,14.4-13.5,8.4,9.8-6.6,21.3-14.4,13.5ZM828.7,307.4c-12.5,3.2-16.1-16.2-4.4-18.7,14-3,14.1,16.2,4.4,18.7ZM810.8,321c-6.8,2-9-4-12.3-4.6-.6,3.6,4.8,7.7-.7,14.2-11.9,14.1-29.8-19.6.7-14.2,5.2-32.2,30.6-.7,12.3,4.6ZM776.2,345.8c-11.8,3.4-16.2-9.4-10.5-14.9,10.6-10.3,25.3,10.7,10.5,14.9ZM760.6,364.9c-12.7,1.7-14.4-17-3.1-18.8,12.9-2,15.1,17.3,3.1,18.8ZM756.9,367.6c14.8,4.2,0,25.2-10.5,14.9-5.7-5.6-1.3-18.3,10.5-14.9ZM732.4,445.6c-12.3,5-17.4-11.7-9.2-16.3,12.6-7.1,20,11.9,9.2,16.3ZM732.4,424.5c-7.5-7.5,3.3-23.6,13.5-14.4,9.7,8.7-4.8,23.1-13.5,14.4ZM746.2,440.9c3.1-4.8,15.1,0,9.5,6.9-4.5,5.6-13.1-1.4-9.5-6.9ZM764.8,458.6c4,4-1.1,13.7-7.6,8.5-7.2-5.8,2.9-13.1,7.6-8.5ZM762.3,510.4c-7.3,1.5-7.6-8.4-3.1-10.2,5.6-2.2,11.6,8.4,3.1,10.2ZM774.6,487.8c-6.3,2.9-10.8-5.7-6-9.6,6.4-5.1,13.4,6.1,6,9.6ZM785.1,507c-6.3,2.9-10.8-5.7-6-9.6,6.4-5.1,13.4,6.1,6,9.6ZM791.5,476.7c-4.9,2.4-8.8-6.4-6.9-9.6,3.8-6.2,18,4,6.9,9.6ZM802.5,498.2c-7.5,1.7-7.6-10.1-3.1-12,6.1-2.6,11.8,10,3.1,12ZM800.1,446.7c5.6-7.1,13.2,2.7,8.5,7.5-4.9,5.1-13.4-1.4-8.5-7.5ZM816.6,517.5c-6.3,2.9-10.8-5.7-6-9.6,6.4-5.1,13.4,6.1,6,9.6ZM818.4,475.5c-6.3,2.9-10.8-5.7-6-9.6,6.4-5.1,13.4,6.1,6,9.6ZM830,495.9c-5,2.2-8.8-6.2-6.8-9.6,3.7-6.4,16.7,5.3,6.8,9.6ZM833,450.7c-4.9,4.7-14.6-2.9-7.5-8.5,6.1-4.9,12.6,3.6,7.5,8.5ZM837.9,459.9c4.7-1.9,11.8,7.5,5,10.3-7.9,3.2-10.5-8.1-5-10.3ZM843,512.4c-4.2,1.7-11.1-6.1-6.1-9.7,7.3-5.3,12.7,6.9,6.1,9.7ZM844.5,431.7c-7.5,1.7-10.4-10.1-2.8-11.8,7.5-1.7,10.4,10.1,2.8,11.8ZM853.6,489c-8.5,0-7.2-11.6,0-11.6s8.5,11.6,0,11.6ZM859,449.6c-7.6,6.1-11.1-6.9-7.8-8.7,5.6-3,15.1,2.9,7.8,8.7ZM861.2,393.2c-2.5,4.3-14.5-.4-8.7-7.7,5.7-7.2,11.8,2.1,8.7,7.7ZM863.2,456.4c1.6-1.6,15.2,0,8.9,8-6.8,8.6-11.5-5.4-8.9-8ZM870.9,505.3c-6.3,2.9-10.8-5.7-6-9.6,6.4-5.1,13.4,6.1,6,9.6ZM864.8,415.4c-4.9-6.1,3.6-12.6,8.5-7.5,4.7,4.9-2.9,14.6-8.5,7.5ZM883,482.5c-7.5,1.8-10.3-10.2-2.9-11.7,7-1.5,11,9.8,2.9,11.7ZM884.8,436.9c-7.6,3.3-12.9-5.4-7.7-9.5,5.6-4.4,15.7,6,7.7,9.5ZM885.4,388.3c7.5-1.8,10.5,10.2,2.9,11.9-7.7,1.7-8.7-10.6-2.9-11.9ZM902.8,418.1c-5.7,4.9-12.8-3.5-7.6-8.5,7-6.6,14.6,2.4,7.6,8.5ZM906,372.3c7.3-5.8,12.1,6.2,7.7,8.6-5.6,3.2-15-2.9-7.7-8.6ZM891.4,358.2c-1.6-.9-1.4-6.8.6-8.6,11.6-10.3,13.1,16-.6,8.6ZM897.1,498.3c-6.3,2.9-10.8-5.7-6-9.6,6.4-5.1,13.4,6.1,6,9.6ZM900.7,458c-6.3,2.9-10.8-5.7-6-9.6,6.4-5.1,13.4,6.1,6,9.6ZM903.9,513.8c-4.5-4.9,2.6-14.7,8.5-7.5,4.5,5.4-4.2,12.2-8.5,7.5ZM907.8,479.4c-7.8-6.3,4.2-13.9,7.7-8.7,3.4,5.1-2.2,13.1-7.7,8.7ZM914.5,438.7c-8.1,1.9-9-10.2-2.9-11.9,7.1-2,10.9,10.1,2.9,11.9ZM951.5,405.8c-5.6-7,7.1-11.5,9.7-8.9,3.5,3.5-3.7,16.4-9.7,8.9ZM947.7,440.3c-5.4-5.5,4.6-14.5,9.3-8.4,4.3,5.5-4.6,13.3-9.3,8.4ZM940.7,384.3c-4.6-4.7,2.7-14.8,8.5-7.6,5.2,6.5-4.5,11.6-8.5,7.6ZM941.2,423.3c-4.7,6-13.3-1.9-9.5-8.6,3-5.3,14.5,2.2,9.5,8.6ZM932,363.5c-7.2,1.5-9.9-10.5-2.8-11.8,8-1.5,10,10.4,2.8,11.8ZM923.4,402c-6.3,2.9-10.8-5.7-6-9.6,6.4-5.1,13.4,6.1,6,9.6ZM922.6,444.9c6.4-5.1,13.4,6.1,6,9.6-6.3,2.9-10.8-5.7-6-9.6ZM923.2,494.4c-5.2-5,3.6-13.8,8.5-7.6,4.8,6.2-3.3,12.5-8.5,7.6ZM939.7,458.4c7.5-1.8,10.3,10.2,2.9,11.7-7,1.5-11-9.8-2.9-11.7ZM949.2,509.9c-5.8,7.2-13.1-2.9-8.5-7.6,4-4,13.7,1.1,8.5,7.6ZM956.9,483.8c-8.5,0-7.2-11.6,0-11.6s8.5,11.6,0,11.6ZM965.7,444.2c4.7-1.9,11.8,7.5,5,10.3-7.9,3.2-10.5-8.1-5-10.3ZM975.9,498.3c-6.7,2.9-13.6-7.8-5.8-11.3,6.3-2.9,13.1,8.2,5.8,11.3ZM972.2,422.7c-5.1-4.9,1.4-13.4,7.5-8.5,7.1,5.6-2.7,13.2-7.5,8.5ZM991.2,469.7c-5.8,7.2-11.8-2.3-8.7-7.8,1.8-3.2,14.8.3,8.7,7.8ZM990.9,439.9c-5.8-7.3,6.2-12.1,8.7-7.7,3.2,5.6-2.9,15-8.7,7.7ZM1004.5,402.4c7.3-1.5,7.6,8.4,3.1,10.2-5.6,2.2-11.6-8.4-3.1-10.2ZM1002,487.5c-5.4-5.7,1.6-15.5,8.5-7.6,5.3,6.2-4.5,11.8-8.5,7.6ZM1006.6,457.4c-5.6-6.5,4.4-10.4,8.6-7.8,5.8,3.7-1.1,16.4-8.6,7.8ZM1021,505.2c-3.2-1.8.3-14.8,7.8-8.7,7.2,5.8-2.3,11.8-7.8,8.7ZM1028,475.5c-5.1-3.3,0-14.7,8.4-10.1,4.2,2.3-1.9,14.3-8.4,10.1ZM1047.8,491.6c-7.8-6.3,4.2-13.9,7.7-8.7,3.4,5.1-2.2,13.1-7.7,8.7ZM1065.5,414.3c7.1,5.6-2.7,13.2-7.5,8.5-5.1-4.9,1.4-13.4,7.5-8.5ZM1057.5,458.2c-1.6,1.6-15.2,0-8.9-8,6.8-8.6,11.5,5.4,8.9,8ZM1043,398.9c7.5-1.7,10.4,10.1,2.8,11.8-7.5,1.7-10.4-10.1-2.8-11.8ZM1035.1,435.7c8.6-5.6,12.2,7.8,8.3,10.1-5.9,3.5-13.8-6.5-8.3-10.1ZM1024.5,384.9c3.2-2.1,11.9,1.9,9.5,6.8-5,10.1-16.9-2-9.5-6.8ZM1025.3,421.3c6.2,4.8-2.6,13.7-7.6,8.5-5-5.2,1.4-13.3,7.6-8.5ZM1018.8,369.1c5,3.2,0,14.8-8.3,10-5.3-3,2.2-13.9,8.3-10ZM1000.6,349.7c7.6,0,8.1,11.9-.3,12-7.7,0-7.2-12,.3-12ZM984.4,396.5c-5.1-4.7,2.9-13.1,7.9-7.9,5.9,6.2-3.2,12.2-7.9,7.9ZM982.6,330.7c5.1-3.4,13.1,2.2,8.7,7.7-6.3,7.8-13.9-4.2-8.7-7.7ZM971.7,308.4c6.4-5.1,13.4,6.1,6,9.6-6.3,2.9-10.8-5.7-6-9.6ZM978.5,371c5.5,3.6-2.4,13.6-8.3,10.1-3.9-2.3-.3-15.7,8.3-10.1ZM965.4,363.5c-6.3,2.9-10.8-5.7-6-9.6,6.4-5.1,13.4,6.1,6,9.6ZM957.9,334.7c4.9,6.1-3.6,12.6-8.5,7.5-4.7-4.9,2.9-14.6,8.5-7.5ZM947.3,319.9c-1.6,1.6-15.2,0-8.9-8,6.8-8.6,11.5,5.4,8.9,8ZM935.5,300.5c-7.5,1.8-10.3-10.2-2.9-11.7,7-1.5,11,9.8,2.9,11.7ZM931.6,268.2c6.1,7.6-6.9,11.1-8.7,7.8-3-5.6,2.9-15.1,8.7-7.8ZM919.1,245.4c6.4-5.1,13.4,6.1,6,9.6-6.3,2.9-10.8-5.7-6-9.6ZM920,340.9c-5.3,2.3-11.9-8.9-4.9-12.1,8.1-3.6,10.6,9.7,4.9,12.1ZM914,314.7c-2.6,2.6-15.3-1.8-9.7-8.9,6-7.5,13.2,5.3,9.7,8.9ZM904.8,285.3c4.6,4.7-2.7,14.8-8.5,7.6-5.2-6.5,4.5-11.6,8.5-7.6ZM899.2,263.7c7.8,6.3-4.2,13.9-7.7,8.7-3.4-5.1,2.2-13.1,7.7-8.7ZM886.9,325.1c5.5.4,6.2,8.3,1.5,10.4-9.4,4.2-9.6-10.9-1.5-10.4ZM877.7,258.4c-11.5,1.7-15.6-16.8-3-18.9,15.8-2.7,13.5,17.4,3,18.9ZM865.8,186.5c12.5.4,20.7,23.6,13.7,32.2-2.1,2.6-5.4,3.6-9.5,2.8-4.2-.8-6-5.1-6.9-6.9-1.7-3.8-19.1,12.5-33.8,24.7-23.2,18.7-55.2,51.7-65.3,37.3-1.9-3.6.5-9.1,2.8-13.4,2.9-5.5,26.3-25.5,47.8-42.4,21.3-16.7,45.9-34.5,51.1-34.2ZM820.8,178.4c-10.4-10.5-16.5-21,6.5-19.9,70.1,4.8-54.9,92.5-65.6,97.8-9.3,5.1-19.8,8.2-17.9-7.1,1-9.2,25-27.3,46.2-43.4,15.7-11.9,32-24.2,30.8-27.4Z" fill="#d67847"/><path id="_Path_-6" d="M671.3,203.6c10.3-6.6,19.9,15.6,5.4,18.3-2.4.5-4.2.4-5.5,0,0,4.8,0,10,.1,12.6,69.8-33.7,95.5-22.8,139.6-97.3,6.7-11.1,13.2-23.1,19.6-35.6-.1-.3-.2-.5-.3-.8-.5-2.7.4-4.2-.6-6.2-1.3-2.6-6-7.7-6.2-10.8-12.3,1-12-16.9-2.7-19.3.6-.2,1.2-.2,1.8-.3-.4-2.5-.9-4.7-.9-4.7l-2.8,1s.8-4.6.2-7.2c-.7-2.6-2.2-5.5-3.3-6.8s-5.5-1.5-5.8-5.2,3.1-5.1,4.6-5.2c.8-.4,0-1.5-3.9-1.8-3-.3-5.1-1.5-6.1-4.9-4.3-1.8-5.9-10.3-.5-11.9.1-1.2.1-2.2-.2-3-.8-2-2.7-8.4-8.7-7.2,2.4-3.1,3.6-5.1,1.2-6.1-2.4-1-3.9,2.2-4.7,3.2s-1.5,1.1-3.5,1.8c-2,.7-2.8,2.6-3.2,5.5-.5,2.9-3.2,18.6-3.2,22.2s-.2,5.8-.2,5.8c0,0-3.1-3.8-3.1-3.8,0,0-3.7,12.5-5.9,16,2.9.7,7.2,1.2,8.3,8.2-1.4-1.5-3.6-4.1-3.6-4.1,0,0-1.2,2.8-2.7,4.5-1.5,1.7-4.2,4.4-4.2,4.4,5.9,6.1-1.3,15.1-1.4,22.6,6.3-4.3,12.9,6.5,5.6,9.9-1.4.6-2.7.7-3.9.4.3,1.9.4,4.1.3,7.2-.2,6.8,0,24.7,0,24.7,0,0-3.6,4.3-4.2,7.3-.7,3-1.2,8.4-.2,12-.9,2.5-3.6,8.3-6.1,13.4,11.4-1.9,14.8,15.5,5.2,18.8-5.4,1.9-9.8-.2-12.2-3.6-.4,1.1-.8,2.1-1.1,3,1.6,2.7,1.6,6.4-1.1,10.6-3.7,5.7-9.5,4.9-13.5,1.5-2.7.3-5.7.4-8.8,0,1.8,4.8.4,11-5.3,12.9-13.3,4.5-18.2-13.1-8.9-17.7.3-.1.6-.3.9-.4-1-.7-2.1-1.4-3.1-2.3-6.2-5.2-7.6-5.6-10-13.7-3.7,3-8.5,1-9.3-3.1-3.7.2-7.2.2-10.3-1.4-3.8-2-6.5-3.9-7.9-5.5-.8-.9-3.1-3.9-5.1-6.5.4,18.4,1.6,24.3,1.3,48.2ZM797.7,145.1c-12.6,8-19.9-8.3-12.8-15.4,9.5-9.6,24.2,8.2,12.8,15.4ZM822.7,93.7c3.2,13.5-12,9.5-13.7,11-.5.4,4.4,6.2,3.5,11.2-2.1,12-20.3,9.5-19.3-3.2,1-12,11.3-6.4,14-8.1.6-.4-6.4-6.1-2.6-14,3.7-7.8,15.9-6.1,18.1,3ZM797.7,39.9c9.3-.4,6.8,10.9,1.3,12.1-7.5,1.7-10.3-11.7-1.3-12.1ZM783.1,63.1c4.3-4.7,13,2.2,8.5,7.5-5.9,7.1-13.1-2.6-8.5-7.5ZM787.5,148.9c9,8.6-7.9,24.6-15.4,12.8-8-12.4,8-19.9,15.4-12.8ZM696.7,193.1c12.5-1.8,15.2,18.1,2.5,19.8-12.6,1.7-15.7-17.9-2.5-19.8ZM674.1,177.2c6.4-5.1,13.4,6.1,6,9.6-6.3,2.9-10.8-5.7-6-9.6Z" fill="#d67847"/><path id="_Path_-7" d="M1093,463.4c-3.2-6.5-11.3-7.9-16.1-6.9-1.1.2-2.6,1.5-2.6,1.6-2.9,3.2-4.4,6.4-4.4,9.7,0,2.5.9,5.1,2.7,7.5,1.6,2.2,3.9,3.7,6.5,4.5,1.3.4,2.6.6,3.9.6,2.1,0,4.1-.5,6-1.5,3-1.6,4.6-4.8,5.1-8.3,0-.6.1-1.2.1-1.8,0-1.9-.4-3.9-1.2-5.5Z" fill="#fff"/><path id="_Path_-8" d="M1093,463.4c-3.2-6.5-11.3-7.9-16.1-6.9-1.1.2-2.6,1.5-2.6,1.6-2.9,3.2-4.4,6.4-4.4,9.7,0,2.5.9,5.1,2.7,7.5,1.6,2.2,3.9,3.7,6.5,4.5,1.3.4,2.6.6,3.9.6,2.1,0,4.1-.5,6-1.5,3-1.6,4.6-4.8,5.1-8.3,0-.6.1-1.2.1-1.8,0-1.9-.4-3.9-1.2-5.5ZM1079.6,477.5c-2-.6-3.9-1.9-5.1-3.6-1.5-2-2.3-4.1-2.3-6.1s1.2-5.3,3.7-8c.3-.3,1.2-.9,1.5-1,3.2-.7,10.7-.2,13.5,5.6.6,1.3.9,2.8.9,4.4s0,1.5-.2,2.2c-.5,2.5-1.7,4.7-3.7,5.8-2.5,1.3-5.6,1.5-8.3.6Z" fill="#1c1c1b"/><path id="_Path_-9" d="M1085.6,460.7h0c-1.9-.9-4-1.1-5.7-.4-.4,0-.8.1-1.2.2-3.4,1-5.4,4.7-4.7,8.6.4,2,1.8,4.6,4,5.7.7.3,1.4.6,2,.7.6.1,1.2.2,1.8.2,1.3,0,2.7-.4,4.1-1.1,1.5-.8,2.7-2.2,3.3-3.9.4-1,.5-2.1.5-3.2,0-3.1-1.6-5.7-4-6.9ZM1087.1,471.2c-.4.6-.8,1.2-1.4,1.6-.2.2-.4.3-.7.5-1.7.9-3.2,1.1-4.8.7-.5-.1-1-.3-1.5-.6-1.4-.7-2.7-2.6-3.1-4.5-.6-3.1.9-6,3.5-6.8.3,0,.6-.1,1-.2h.3c.6-.3,1.2-.4,1.8-.4s1.8.2,2.7.7h0c1.9.9,3.1,3,3.1,5.5,0,.8-.1,1.5-.3,2.2-.1.5-.3.9-.6,1.4Z"/></g><g id="sa"><path id="_Path_-10" d="M562.5,449.8c-2.5,1.5-6.6,1.5-8.9.2-2.5.1-4.9.3-7.7.4,3.5,3.7,4.6,9.6,0,14.4-7.8,8.2-22.3-5.6-15.7-13.9-3.9,0-8.4,0-13.9-.2-3,0-5.9-.1-8.8-.2-2.7,4.3-9.6,3.5-11.5,0-6.5,0-12.4,0-17.8.1-.3.3-.6.6-.9.8-3.4,2.7-6.2,1.6-7.9-.7-13.4.4-25.6.9-36.2-.4,1.3,16,.8,20.2.5,44.1,1,2.7,1,5.9-.1,8.6,0,4.3-.1,8.6-.2,12.9,51.9-17.8,108.9-27.6,147.4-65.7-5.3,0-12.4-.2-18.4-.3ZM450.5,501.7c-11,1.8-17.1-15.1-6.2-18.7,15.3-5,19.6,16.5,6.2,18.7ZM464.9,493.3c-12.6-7.8,3.7-24.7,12.8-15.4,6.9,7-.7,23-12.8,15.4ZM500.1,486.3c-11.6,7.4-20.3-7.8-12.8-15.4,9.4-9.6,24.2,8.1,12.8,15.4ZM517.2,478.8c-11.7.9-13-19.4-1.2-20.2,12.2-.8,14,19.2,1.2,20.2Z" fill="#d67847"/><path id="_Path_-11" d="M753.9,812.9c0-1.6-.2-3.3-.2-5.1-1.2-1.8-1.5-4.3-.3-6.3-.4-7.5-.7-14.4-.7-15.9,0-3.5.7-27.1,0-30.3-.7-3.2-.2-13.8.5-21,.7-7.2.3-34.5.3-34.5,0,0,0-.4,0-.4,0,0,.2,0,.4-.2,0-3.8-.3-15.8-.5-27.5-8.5,1-7.1-11.7-.1-12.3.1-17.3.5-17.8.5-42.2,0,0-.2,0-.3,0-8.7,2-10-12.3-1.5-12.2.7,0,1.2.1,1.8.3,0-12.3,0-25-.2-34.5-1.9.6-4,.3-5.5-1.2-4.5-4.3,0-11.4,5.3-9.7-.3-9-.1-20.1.1-28.3-4.4-3.6-2.7-6.5.3-8.2,0-1.9.1-2.9.1-2.9,0,0,.2-2.4.2-2.4s.1,0,.4,0c0-3.1,0-19.1,0-28-.5,1.1-1.4,2.1-2.8,2.8-6.3,2.9-10.8-5.7-6-9.6,3.7-3,7.6-.4,8.8,2.9,0-9.2-.9-35.2-.9-35.2,0,0-8.8,0-14.9,0s-7.7-.2-13.5-.4c7,9.5-6.1,22.2-14,14-4.8-4.9-3.3-10.8.3-14.4-11.2-.4-27.5.2-36.4.4-4.8,10-9.4,17.6-13.2,19.2-5.8,2.6-13.1,1.3-14.5-5.6-.5-2,.8-7.1,3.1-14-2.9,0-6.5,0-10.4,0-.1.2-.2.3-.3.5-5.1,7.2-14.8,11-16.8-.3-5.3,0-10.4,0-14.6-.2-5.3-.2-10.1-.2-14.8-.2-.3.4-.6.7-.9,1.1-48.5,53.6-97.8,53.8-159.5,75.9-.7,33.8.3,51.5-.1,80.8,11.7-4,23.7-4.2,37-4,8.8.5,16.5-2.8,19-3.1s4-.6,8.6,1,13.5,4.1,19.7,6.1c4.3,1.4,9.6,3.5,13.7,5.6,1.1-.7,2.4-1.2,3.9-1.4,7.4-.8,10.4,4.9,9.7,10.2,1.6.8,3.1,1.4,4.2,1.5,3.3.3,4.5.5,6-1.4-8.7-2.4-9.1-17.3,1.5-18.8,11.8-1.7,15.2,15.4,4.6,18.6,1.8,1.3,3.8,2.5,5.9,5-1.6,1.4-3.5,2.4-2.3,5.9,1.4-1.1,6.7-5,10.7,6.2-3.4.7-4.2,1-4.2,1,0,0-.9,2.4.2,5.4,1.5,0,3.1.4,4.4,1.8,1.2,1.3,1.6,2.8,1.4,4.4,1.1.5,5.5.7,7.2,2.3,1.6,1.4,2.6,2.8,4.8,8,2.5,5.9,7.9,10.6,9.7,14.9,1.4,1.4,2.5,4.2,2.3,5.7,1.4,3.8,2.8,8.2,3.2,11.7-.5.5-.8,1-1.1,1.3,4.1-.2,9,3.9,6.1,8.9-.4.7-1.1,1.1-1.8,1.3.5.7.8,1.3,1.1,1.6,1.4,1.6,2.5,3.9,3.2,3.6s2.5-2.8,2.9-2.4c.4.3,3.8,3.3,3.8,3.3,0,0,2.4-4.7,3-7.5-2.1,0-2.6-.1-2.6-.1,0,0-2-3.2.3-5.7,2.3-2.5,3.9-2.6,5.6-.6-.1-1.2-.1-2.3,0-3.4-2.6-4.2.5-8.3,4.2-8.6,2.9-3.6,7.6-9.4,11.2-11.3,4.2-2.3,6.8-3.3,10-4s3.6-1.1,4.9-4.2c.6-1.4,1.2-3.6,1.9-5.9-1.9-2.5-2-6.5.2-8,1.3-.9,2.6-1.3,3.7-1.3,1.7-3,3.6-6.1,6.6-3.8.4-3.8,1.9-14,1.9-14,0,0,2,9.1,3.3,11.2,1.3,2,4.1,7.2,4.1,7.2,0,0-4.1,3.8-4.8,4.3-.6.6-1.6,1.2-1.3,2.3s2.8,5.8,3.3,6.8c.4.9-.5,2.9-1.7,4.3,4.2,1.4,6,8.7,1,10.8-2.6,1.1-6.2-1.5-7.4-4.5-5.1,5.1-5,10.3-5.1,18.4,1.8,2.1,2.3,5.4.2,7.5-.3,3.8.5,9.2-4.4,9.2-3-.2-5.3-.9-7.6,2-2.4,3-4.7,8.7-2.1,8.8,3.6-.1,6.6-3.6,10.2-5.5.2-1.4,1.1-2.7,3.2-3.5,2.7-1.2,5.1-.4,6.7,1.1,2.6-5.9,5.4-12,6.7-16.9-3.8-3-1.2-8.6,2.7-9.7.5-1.9.9-3.2.9-3.2,0,0,1.2,1.1,2.7,3.2,2.2.7,4.3,4.3,3.6,6.2.3.7.6,1.4.9,2.1-.8.5-1.5,1.1-1.6,1.2-2.9,3.2-4.4,6.4-4.4,9.7,0,1.2.2,2.3.6,3.5,0-1.5.5-3,1.8-4.1.2-2.5,2.1-6.7,5.2-8.4,3.2-.7,10.7-.2,13.5,5.6,1.9,3.9.9,10.4-3,12.4-3.1,1.6-6.9,1.5-10,0-1.6.6-3,.4-4.2-.2,4.9,4.6,6,.6,3.2,8.8,2.5-1.7,6.3-1.8,7.7.4,1.4,2.2,1.6,4.1,1,5.7,1.2-.5,1.4-.7,1.4-.7,0,0,9.2,5.5,15.9,13.1-.7-4.4,2.9-12,9.8-7.5,5.2,3.4-1.6,12.5-7.3,10.5,1.9,2.6,3.5,5.3,4.9,7.7,3.3,1,5.9,4.4,3.7,7.8,1,2.5,1.7,4.6,2,5.9.9,3.4-1.1,5.2-1.1,5.2,0,0-1.3,1.3-1.9,3.1.4,1.2.5,2.5,0,3.7.4.9,1,1.8,2.1,2.6-.6,2.5-.6,3.3.6,5.5,1.2,2.1,8.2,12.6,10.7,15.5,2.5,2.9,4.3,6,9.1,8.7,4.1,2.3,8,2.4,11.1,3.1-.5-.2-.6-1.2-1.2-1.3ZM437.6,569.5c-1.3-3.8,2.8-9.3,10.7-14.4,6.5-5.5,57.5-16.8,67.2-21.8,0-.4-.9-1.8-1.7-3.1-3.5-5.3-8.6-14.9-.8-19,11.2-5.7,39.5,14.2,29.4,29.4-3.5,5.7-30.9,15.6-42.6,19.6-22.4,7.1-56.5,20.5-62.1,9.2ZM538.4,596.9c-14,1.7-10.4-11.2-8.2-19.5-1.1-.6-9.3,2.3-17.2,5.1-19.1,6.8-48,17-58.9,10.9-6-3.4-6.3-7.9-1.8-13.2,2.9-3.5,77.4-25.5,84.6-26.1,14.9-1.2,18.8,5.2,19.3,10.8,1.3,12.6-12.2,31.1-17.8,31.9ZM749.6,651.7c-6.3,5-13.9-6.4-8.6-9.5,6.7-3.8,14.6,4.7,8.6,9.5ZM703.1,680.3c5.5.4,6.2,8.3,1.5,10.4-9.4,4.2-9.6-10.9-1.5-10.4ZM690.1,599c4.5,5.5-3.6,11-8.7,7.7-5.3-3.5,2.3-15.4,8.7-7.7ZM692.6,557.7c7.8,6.3-4.2,13.9-7.7,8.7-3.4-5.1,2.2-13.1,7.7-8.7ZM692.2,614.4c5-5.1,13.2,1.5,8.4,7.5-5.2,6.6-14.1-1.8-8.4-7.5ZM702.5,545.4c-3.4-5.1,2.2-13.1,7.7-8.7,7.8,6.3-4.2,13.9-7.7,8.7ZM716.8,598c-6.3,2.9-10.8-5.7-6-9.6,6.4-5.1,13.4,6.1,6,9.6ZM704.9,580.8c-6.5,5.2-11.6-4.5-7.6-8.5,4.7-4.6,14.8,2.7,7.6,8.5ZM700.2,664.9c4.5,6.8-7.7,11.1-10.3,8.5-4.6-4.6,5.6-15.7,10.3-8.5ZM702.2,632.3c9.4-4.1,11.7,6.8,5.9,9.5-5.8,2.7-12.6-6.5-5.9-9.5ZM713.4,650.5c6.1-4.9,12.6,3.6,7.5,8.5-4.9,4.7-14.6-2.9-7.5-8.5ZM722.7,603.6c8.1-1.9,9,10.2,2.9,11.9-7.1,2-10.9-10.1-2.9-11.9ZM727.1,582c-4.8-4.8,2.9-13.7,8.4-9.3,6,4.8-3,14.7-8.4,9.3ZM723.2,529c-2.3-5.7,8-9.7,10.3-5.9,4.1,7-7.6,12.5-10.3,5.9ZM737.1,541.2c6.4-5.1,13.4,6.1,6,9.6-6.3,2.9-10.8-5.7-6-9.6ZM731.8,623.4c6.4-5.1,13.4,6.1,6,9.6-6.3,2.9-10.8-5.7-6-9.6ZM739.5,715.1c-6.8,1.6-8.1-7.7-3-10.1,7.9-3.6,10.6,8.3,3,10.1ZM742.9,599.6c-7.6,2.2-10.1-6.2-5.8-9.4,7.7-5.9,16.1,6.4,5.8,9.4ZM748.4,514c-6.3,2.9-10.8-5.7-6-9.6,6.4-5.1,13.4,6.1,6,9.6ZM742.2,467.1c3.3,5.1-5.1,13-9.9,8.1-6.2-6.3,6.2-13.8,9.9-8.1ZM724.8,486.9c6.4-5.1,13.4,6.1,6,9.6-6.3,2.9-10.8-5.7-6-9.6ZM723.9,564.7c-6.3,2.9-10.8-5.7-6-9.6,6.4-5.1,13.4,6.1,6,9.6ZM719.5,515.7c-5.4,3-13.7-2.7-10.1-8.4,4.8-7.4,16,5.1,10.1,8.4ZM715.3,470.5c9.2,10.2-6.9,21.1-14.4,13.5-8.7-8.7,5.7-23.2,14.4-13.5ZM705.3,490.1c7.9,7.5-4.1,22.1-14.5,13.6-9.1-7.5,4.4-23.2,14.5-13.6ZM687.7,507.5c11.3-1.4,14,15.5,4.5,18.6-15.8,5.1-17.1-17.1-4.5-18.6ZM683.1,530.7c7.6,11.9-8.5,19.8-15.5,12.8-9.6-9.6,8.2-24.1,15.5-12.8ZM674.7,591c-7.8,1.9-9.3-11.5-1.4-12.2,9-.7,7.1,10.8,1.4,12.2ZM651.9,547.8c8.5-8.3,23.3,5.2,14.9,13.1-9.6,9.1-23.3-5-14.9-13.1ZM612.7,615.8c4.1,7-7.6,12.5-10.3,5.9-2.3-5.7,8-9.7,10.3-5.9ZM598.4,582.7c11.1-1.6,15.3,15.6,4.4,18.6-13.5,3.7-17-16.8-4.4-18.6ZM613.3,589c-9.6-10,6.1-23.6,13.6-14.5,8.5,10.4-6.1,22.4-13.6,14.5ZM623.5,628.7c5.6,4.5-1.4,13.1-6.9,9.5-4.8-3.1,0-15.1,6.9-9.5ZM623.6,605.4c3.2-2.1,11.9,1.9,9.5,6.8-5,10.1-16.9-2-9.5-6.8ZM641.9,620.8c7.2,5.8-2.3,11.8-7.8,8.7-3.2-1.8.3-14.8,7.8-8.7ZM645.4,591.2c4.7-1.9,11.8,7.5,5,10.3-7.9,3.2-10.5-8.1-5-10.3ZM664.7,608.7c2.4,4.9-6.4,8.9-9.5,6.8-7.4-4.8,4.6-16.9,9.5-6.8ZM643.1,576.9c-11.8,1.7-16.8-17.8-2.9-18.9,13.1-1.1,14.4,17.2,2.9,18.9ZM634.9,492.9c16.1,1,15.3,34.3,7.6,40.3-11.4,9.6-15.7-1.9-17.2-11.3-.2-.9-.3-1.8-.4-2.1-.8.3-3.8,2.7-6.6,5.1-8.9,7.3-30.6,27.2-32.1,7.6.2-12,38.2-39.6,48.8-39.7ZM566.9,511.6c.7-11,23.1-23.9,31.6-31.6,0-.4-1.4-.6-2.6-.8-2.2-.3-4.9-.8-6.2-2.7-4.1-6-2.7-9.8-.8-12,9.9-10,41.5-3.9,36.4,18.7,2.6,4.3-56.2,54.7-58.3,28.4ZM574.4,595.5c13.6-6.4,19,12.5,9.2,16.3-12,4.6-19.1-11.7-9.2-16.3ZM589.4,635.1c-7.3,5.8-12.1-6.2-7.7-8.6,5.6-3.2,15,2.9,7.7,8.6ZM599.9,649.1c-6.5,5.2-11.6-4.5-7.6-8.5,4.7-4.6,14.8,2.7,7.6,8.5ZM610.1,662.7c-6.3,2.9-10.8-5.7-6-9.6,6.4-5.1,13.4,6.1,6,9.6ZM624.4,675.2c-4.3,9.9-16-3.2-9.6-6.8,3.4-1.9,11.7,1.8,9.6,6.8ZM632.2,653.4c-5,2.2-8.8-6.2-6.8-9.6,3.7-6.4,16.7,5.3,6.8,9.6ZM637.8,667.7c-6.2-6.3,6.2-13.8,9.9-8.1,3.3,5.1-5.1,13-9.9,8.1ZM653.7,647c-6.9,1.3-10.7-9.3-4.7-11.9,7.7-3.3,12.9,10.3,4.7,11.9ZM664,629.4c-5.1-7.9,6.4-13,9.4-6.7,3.5,7.2-6.8,10.7-9.4,6.7ZM675,642.1c-7.8-6.3,4.2-13.9,7.7-8.7,3.4,5.1-2.2,13.1-7.7,8.7ZM683.1,659.2c-4.9-2.7,1.6-14,8.4-10.2,4.9,2.7-1.6,14-8.4,10.2ZM704.2,708.1c-5.3-3.5,2.3-15.4,8.7-7.7,4.5,5.5-3.6,11-8.7,7.7ZM709.6,725.5c-4-4,1.1-13.7,7.6-8.5,7.2,5.8-2.9,13.1-7.6,8.5ZM720.2,668.6c4.9-4.7,14.6,2.9,7.5,8.5-6.1,4.9-12.6-3.6-7.5-8.5ZM728.3,688.2c6.4-5.1,13.4,6.1,6,9.6-6.3,2.9-10.8-5.7-6-9.6ZM734,799.1c-3.4-5.1,2.2-13.1,7.7-8.7,7.8,6.3-4.2,13.9-7.7,8.7ZM745.9,780.1c-2.6,2.6-15.3-1.8-9.7-8.9,6-7.5,13.2,5.3,9.7,8.9ZM737.9,757.6c-7.2-5.7,2.1-11.8,7.7-8.6,4.3,2.5-.4,14.4-7.7,8.6ZM744.9,734.5c-6.3,2.9-10.8-5.7-6-9.6,6.4-5.1,13.4,6.1,6,9.6Z" fill="#d67847"/><path id="_Path_-12" d="M701.3,702.2c-3.2-6.5-11.3-7.9-16.1-6.9-1.1.2-2.6,1.5-2.6,1.6-2.9,3.2-4.4,6.4-4.4,9.7,0,2.5.9,5.1,2.7,7.5,1.6,2.2,3.9,3.7,6.5,4.5,1.3.4,2.6.6,3.9.6,2.1,0,4.1-.5,6-1.5,3-1.6,4.6-4.8,5.1-8.3,0-.6.1-1.2.1-1.8,0-1.9-.4-3.9-1.2-5.5ZM687.9,716.2c-2-.6-3.9-1.9-5.1-3.6-1.5-2-2.3-4.1-2.3-6.1s1.2-5.3,3.7-8c.3-.3,1.2-.9,1.5-1,3.2-.7,10.7-.2,13.5,5.6.6,1.3.9,2.8.9,4.4s0,1.5-.2,2.2c-.5,2.5-1.7,4.7-3.7,5.8-2.5,1.3-5.6,1.5-8.3.6Z" fill="#1c1c1b"/><path id="_Path_-13" d="M693.9,699.5h0c-1.9-.9-4-1.1-5.7-.4-.4,0-.8.1-1.2.2-3.4,1-5.4,4.7-4.7,8.6.4,2,1.8,4.6,4,5.7.7.3,1.4.6,2,.7.6.1,1.2.2,1.8.2,1.3,0,2.7-.4,4.1-1.1,1.5-.8,2.7-2.2,3.3-3.9.4-1,.5-2.1.5-3.2,0-3.1-1.6-5.7-4-6.9ZM695.4,710c-.4.6-.8,1.2-1.4,1.6-.2.2-.4.3-.7.5-1.7.9-3.2,1.1-4.8.7-.5-.1-1-.3-1.5-.6-1.4-.7-2.7-2.6-3.1-4.5-.6-3.1.9-6,3.5-6.8.3,0,.6-.1,1-.2h.3c.6-.3,1.2-.4,1.8-.4s1.8.2,2.7.7h0c1.9.9,3.1,3,3.1,5.5,0,.8-.1,1.5-.3,2.2-.1.5-.3.9-.6,1.4Z"/></g><g id="wa"><path id="_Path_-14" d="M223.4,580.7c-73.5,8-48,100.3-140.9,124.5,2.6,3.2,7.9,4.9,11.7,5.9-.1-4.5,2.5-7.8,7.3-9.3,7.9-2.9,25.2,5.1,29.2,12.4.5.9.9,1.7,1.2,2.6,1.9-.3,4.2-.4,6.6,0-.7-1.6-1.1-2.5-1.1-2.5h5.4s2.9-5.2,5.4-2.5c0-.4.1-.8.2-1.1-6.2-8.3,6.2-22.7,16.2-34.4,21-23.9,3.7-12.6,0-21.5-8.1-21.9,41.1-24.8,37.3,0-.4,3.3-7.6,15.3-16.6,27.5,1.3-.6,3.3-1.4,4.9-1.8,12-13.8,19.7-19.2,23-19.7,5.5-.8,10.5,2.2,14,8.3,1.3,2.2,2.2,4.7,2.9,7.2,4.4.7,6.8,1.7,8.9,1.2,3.1-.7,5.8-2,5.8-2,2,4.3,4.3,8.8,10,3.1,3.4.4,4.8,1.3,4.8,1.3,5.8-4.4,11.8-5.5,18.4,1.1,0,0,.4-2.6,2.1-2.6,1.7,0,4.8,0,5.9-.6,1.1-.6,12.5-11.6,13.1-12.5.6-.9,1.4-2.1,1.6-5.3.2-3.1,1.1-10,7.5-12.3.4-2.2,1.5-5.9,1.5-7.5-1.4-1.1-10.9,1.1-20.9,3.4-18.8,4.3-44.5,10.3-53.2,4.1-3.3-2.3-4.5-6.8-1-9.9,15.7-12.8,76-18.6,90.2-17.5,10.1,1.6,12.3,7.4,12.3,12,0,1.1-.1,2.2-.3,3.4.4-.3.9-.6,1.3-1,6.6-4.8,17.8-12.3,25.1-9.5,1,.2.8-.6.8-.6,0,0,9.1,1.6,12.8,1.5,3.5,0,18.1-2.8,26.9-6,.1-.4.2-.8.3-1-11.3.9-37.3,7.5-43.7,0-1.4-1.7-1.6-4.1-.6-7,.7-2,3.4-4,8-5.9,14.7-6.2,47-10.7,53.9-7.5,4.4,2,6.6,6,6.5,11.7,0,0,0,0,0,.1,1.7-.6,3.3-1.2,4.8-1.7-.2-.5.4-1.6-.6-1.1,1.1-29.1-.7-47.2.3-80.9-29.6,10.8-55.9,29-86.1,38.5-46.4,14.7-78,10.3-123.3,14.9ZM330.7,607.1c-2.5,5.5-42.2,12-54.3,13.9-19.8,3.1-42.8,5.7-54,5.7-6,.3-12.3-2-13.8-6.4-3.5-24.3,65.5-18.4,85.4-22.4.5-.4-.5-2.1-1.3-3.6-1.2-2.2-2.7-5-2.1-7.2.8-2.7,2.8-4.4,5.9-5,9.3-2.6,39,11.1,34.1,25.1ZM364.7,581.7c3.7-2,16.6-3.9,20.3-5.7-1-5.5-5.5-15.1-.6-19.9,3.2-3,9.7-2.7,19.8,1,14.2,5.2,20.8,11.1,19.8,17.4-4.2,16.2-46.1,26.2-61,27-24.2,1-15.5-11.4,1.7-19.9Z" fill="#d67847"/><path id="_Path_-15" d="M434.2,343.1c0-1.1,0-2.8,0-5-2.6-2-3.8-6.2-1.2-9,.3-.3.6-.6,1-.8-.3-11.1-.8-24.8-.8-29.4s.2-24,.4-41.6c-3.3-2.8-4.3-8.8.1-10.7,0-8.7.1-15.8.1-18.3,0-6.5.1-11,0-14.9-5,.3-7.1-9.4-4.6-10.7,5-2.5,5.2,2.6,4.6-5.4-.6-5.6,0-20.6-.6-26.2-.1-1.1-.2-2.9-.2-5-2.3,2.1-6,3-8.8,1.2-6.7-4.3,2.6-15.2,8.8-9.3,0-7,.2-14.2-.2-15.9-.6-3,0-5.8,0-9.5s-1.1-9.3-.6-12.1c.3-2.3,1.7,0,.8-4.9-1.4-.2-1.9.5-3.1,1.1-3.4,1.6-6.3-.3-7.5-2.9-2.2-.6-4.3-1.1-4.3-1.1,0,0,.9,5.8,2.9,7.4-.5-.5-6.1-1.4-7.2-1.3.3,4,1.2,10.7,2.4,14.6-4.5-5.5-9.1-12.5-3.7-22l-2.9-3.4s-1.7,1.8-3,.9-4.5-4.5-6.5-7.5c-2-3-9-11.2-11.7-12.1-2.8-.9-4.6-.4-4.6-.4-3.2-4.1-5.8-5.3-11.2-3.2,0,0,.3,3.7,2.2,5.5-1.8,1.6-5,4.9-5.8,7.2-2-1.3-4-4.3-1.4-8-1.3.3-6.2,5.1-9,5-2.8-.1-6.6-1.6-6.6-1.6,0,0,1.8,1.4,1.3,3.7-.5,2.2-2,9-1.7,10.9,0,0-6-1.6-6.6-7.8l-2.1-1.1s-1.1,6-3,7.6c-1.9,1.7-8.2,4.8-8.4,6.7s0,5.4,5.6,5.2l-.7,4.5s-6,1.5-6.7.6c-.7-.9-1.7-3.7-1.7-3.7,0,0-4.8,4.5-5.6,6.3,4.7,2.6,6.5,3,6.5,3-7.5-1.6-9.8,2-15.3,6.2-1.7,1.1-3.7,5-1.1,10.6q1.9-.4,1.9-.4s.6,3.7-.4,6.2l-.9-1.5s-4.3,7.8-4.3,7.8c0,0-16.4-7.3-18.5-8-2.2,3-4.7,11.6-4.5,13.1,6,2.6,5.8,2.4,10.4,15.3-1.7-1.1-4.8-4.8-7.6-4.1,1.1,4.8.2,12.1-1.5,13.8-.4-.7-.9-1.5-1.5-2.6-.3.2-.6.4-1,.6-7.5,3.3-11.3-8.2-4.2-10.6-2-4.4-3.4-8.6-2.5-10.7-2.4-.2-6.7-4.5-2.8-5.8-1.3-2.2-2.4-4.3-2.4-4.3,0,0-.7,1.1-1.7,2.8,1,3.2,0,7-3.9,7.6-.8,0-.9,1.6-1.3,2.1-3,.4-3.9.4-3.9.4,0,0-3,3-.4,6.2-1.5.2-5.2,1.5-9.3,6.2-3.5,3.9-2.7,7.7-2.2,10.3,3.6,1.7,3.8,7.4.3,9.6,0,.7-.2,1.4-.3,1.8l4.5.2.6,4.8s-11.1,6.4-13.5,8.2-4.2,3.9-3.2,6.2c-2.3,1-3.2,1.1-3.2,1.1,0,0-1.6,11-4.5,14.2-.8.9-2.1,2.2-3.6,3.6,4.6.8,7.5,8.1,1.8,10.8-4.5,2.1-8.1-1.8-8-5.5-2.3,1.8-4.6,3.3-6.4,4.1-4.8,2.1-21.5,9.1-26.1,10s-7,1.9-8.5,1c-7.7-5.8-14.3,2.1-21.6,6-4.3,2.1-14,5.4-15,2-1.9,1-7.8,5.8-9.5,7.2-.1.1-.3.2-.5.4,3.4,1.4,5.1,6.3,1.7,9.5-4.2,4-11.9-.9-9.6-6-1.6.3-3.2.3-4.4-.3-3.9-2-3.1-2.6-4.9-2.2s-2.9.6-3.8,1.4-1.9,2-3.1,1.4-2.1-2-2.1-2l.5-4.2s0,0-.1-.1c-.7.8-3.2,3.7-6.8,5.8s-7.9,3.4-9.8,4.4-6.2,5.8-8.5,7.6-5,2.9-6,4.1-2.2,4.4-4.1,5.5-5.6,3.6-10.8,4.4c-5.1.8-12.4,4.2-14.2,10.6,0,0-2.2-.8-2.2-.8,0,0-1.4,5.5-3.2,10.6-.4,1.2-.8,2-1.2,2.6-.1,2.4-1.4,4.4-4.2,4.9-5,.8-8.8-10-3.2-12.1.4-.1.7-.2,1.1-.3,0-.3,0-.7,0-.9.1-2.6,2.4-8.5,2.4-8.5,0,0-6,1-6,1-6.7,13.9-8.3,21.7-5,39.6,1.1,7.1-.5,10.3-.5,10.3,0,0-3.4,2.3-6.4,8,4.1,1.2,5.9,8.2,2.7,10-1.5.9-3.3,1-5,.7.7,9.8,4.1,14.5,7.1,23.9,6.8-2.4,9.3,7,3.8,9.8,0,.2.2.4.2.5,2.4,5.2,5.7,9.6,10,12.7,1,4.8-.4,10.6-2.2,14.9,6.8,3.2,8.9,14.7.9,17.8l1.4,21.1c-4.5,6.1-1,17.5,3.2,21.8,1.1,1.1,2,2.2,2.7,3.1,7.5.7,10.9,11.7,5.8,16.1,3.1,5.6,7.4,13.1,8.2,19.5,3.4,1.2,6.2,4.6,2.8,9-.8,1-1.6,1.6-2.3,2.1,0,4.7.2,10,.8,14.6,1.1,9.1,6,14.2,10.3,21.9,4.4,7.7,7.6,16,8.5,19,.1.5.3,1,.5,1.6-1,0-1.9.1-2.8.3-3,1.2-3.9,3.1-5.4,5.3,1.1,2.1,1.1,4.5-1.2,5.8-.2,0-.3.1-.5.2,0,4.5,3.5,9.8,8,11.5-1.5,6,0,16.9.1,22,.1,5.3-2,7.2-5.1,9.8-3.1,2.6-6.2,2-12.4-.1-.5,2.6-.5,7.7-.4,11,.5-4,3.1-7.6,8.2-8.2,14.3-1.7,13.8,19.3,1.2,20.1-5.3.3-8.6-3.7-9.3-8.3,0,.7.1,2.2.5,5.7.7,5.8,2.2,7.3,3.3,7.3s5.6-1.6,9.7.9c1.5.9,2.9,1.6,4.2,2.4,79.1-22.3,75-102.5,121.7-121.2,23.6-9.4,60.5-4.5,87-7.5,64.2-7.1,92.5-33.3,148.7-52.2-.1-19.9,2.4-8.7-6.8-7.5-13.4,1.6-15.3-19.7-1.2-20,4.1,0,6.9,2.1,8.4,5.1.1-23.7.9-27.9-.4-43.5-.2-4.6-.7-9.2-.7-11.8,0-5,.9-11.5.9-15.2,0-2.2.5-7.7.7-12.5-1.1-.2-2-.7-2.7-1.7-2.1-3.2-.7-7.5,2-9.2-1.7-11.2,1.2-44.8,1.1-56.5ZM425.4,360.4c3.8,6.7-4.7,14.6-9.5,8.6-5-6.3,6.5-13.9,9.5-8.6ZM356,358.8c4-4,13.7,1.1,8.5,7.6-5.8,7.2-13.1-2.9-8.5-7.6ZM356.3,489.5c-6.3,2.9-10.8-5.7-6-9.6,6.4-5.1,13.4,6.1,6,9.6ZM304.8,396.9c-2.6-2.6,1.8-15.3,8.9-9.7,7.5,6-5.4,13.2-8.9,9.7ZM310.8,312.8c7.6-6.1,11.1,6.9,7.8,8.7-5.6,3-15.1-2.9-7.8-8.7ZM310.4,413c5.1-3.4,13.1,2.2,8.7,7.7-6.3,7.8-13.9-4.2-8.7-7.7ZM322.1,440.9c3.2,1.8-.3,14.8-7.8,8.7-7.2-5.8,2.3-11.8,7.8-8.7ZM313.8,465.4c7-4.1,12.5,7.6,5.9,10.3-5.7,2.3-9.7-8-5.9-10.3ZM314,490.1c4.7-4.6,14.8,2.7,7.6,8.5-6.5,5.2-11.6-4.5-7.6-8.5ZM321.8,334.1c8-1.5,10,10.4,2.8,11.8-7.2,1.5-9.9-10.5-2.8-11.8ZM327.5,359.2c6.4-5.1,13.4,6.1,6,9.6-6.3,2.9-10.8-5.7-6-9.6ZM336.2,380.2c6.4-5.1,13.4,6.1,6,9.6-6.3,2.9-10.8-5.7-6-9.6ZM342.5,403.9c5.7-2.3,9.7,8,5.9,10.3-7,4.1-12.5-7.6-5.9-10.3ZM343.2,432.7c6.2-4.9,16,7,5.8,9.4-7.8,1.9-10-6.1-5.8-9.4ZM352.7,335.5c-6.3,2.9-10.8-5.7-6-9.6,6.4-5.1,13.4,6.1,6,9.6ZM347.2,258.3c-6.2-6.2,5.1-11.6,8.4-8.4,3.2,3.2-2.2,14.5-8.4,8.4ZM366,338.2c6.4-5.1,13.4,6.1,6,9.6-6.3,2.9-10.8-5.7-6-9.6ZM374.6,379.6c7.4,4.8-4.6,16.9-9.5,6.8-2.4-4.9,6.4-8.9,9.5-6.8ZM373.3,405.9c4-7,14.2,5.1,5.9,8.5-4.8,2-7.8-5.1-5.9-8.5ZM376.5,431c7.3-5.3,12.7,6.9,6.1,9.7-4.2,1.7-11.1-6.1-6.1-9.7ZM389.7,312.9c5.5.4,6.2,8.3,1.5,10.4-9.4,4.2-9.6-10.9-1.5-10.4ZM381.7,457.2c6.4-5.1,13.4,6.1,6,9.6-6.3,2.9-10.8-5.7-6-9.6ZM393.9,350.5c7.5-1.6,9.9,9.4,2.4,11.2-6.8,1.6-11.4-9.4-2.4-11.2ZM404.1,391.9c6.9-1.3,10.7,9.3,4.7,11.9-7.7,3.3-12.9-10.3-4.7-11.9ZM408.5,323.9c4.9-5.1,13.4,1.4,8.5,7.5-5.6,7.1-13.2-2.7-8.5-7.5ZM419.3,295.3c-6.3,2.9-10.8-5.7-6-9.6,6.4-5.1,13.4,6.1,6,9.6ZM418.4,246.2c-2.5,4.3-14.5-.4-8.7-7.7,5.7-7.2,11.8,2.1,8.7,7.7ZM413.2,143.4c5,3.2,0,14.8-8.3,10-5.3-3,2.2-13.9,8.3-10ZM404.6,191.3c9.1-4.3,11.9,6.8,5.9,9.5-5.5,2.4-13.7-5.8-5.9-9.5ZM400.7,278.4c5.2,5-3.6,13.8-8.5,7.6-4.8-6.2,3.3-12.5,8.5-7.6ZM396.5,237.5c-6.3,2.9-10.8-5.7-6-9.6,6.4-5.1,13.4,6.1,6,9.6ZM384.1,186.5c-5.1-5,1.5-13.2,7.5-8.4,6.6,5.2-1.8,14.1-7.5,8.4ZM383.4,126.4c5.7-7.2,11.8,2.1,8.7,7.7-2.5,4.3-14.5-.4-8.7-7.7ZM375.4,277.7c-7.8,1.9-9.3-11.5-1.4-12.2,9-.7,7.1,10.8,1.4,12.2ZM377.3,223.5c-7.9,3.2-10.5-8.1-5-10.3,4.7-1.9,11.8,7.5,5,10.3ZM366,103.7c6.4-5.1,13.4,6.1,6,9.6-6.3,2.9-10.8-5.7-6-9.6ZM366,161.5c6.4-5.1,13.4,6.1,6,9.6-6.3,2.9-10.8-5.7-6-9.6ZM361.6,302.3c4.7-6,13.3,1.9,9.5,8.6-3,5.3-14.5-2.2-9.5-8.6ZM358.8,207.7c-3,5.3-14.5-2.2-9.5-8.6,4.7-6,13.3,1.9,9.5,8.6ZM348.6,147.6c9.1-4.3,11.9,6.8,5.9,9.5-5.5,2.4-13.7-5.8-5.9-9.5ZM344,295.3c-6.3,2.9-10.8-5.7-6-9.6,6.4-5.1,13.4,6.1,6,9.6ZM340.8,129c7.8,6.3-4.2,13.9-7.7,8.7-3.4-5.1,2.2-13.1,7.7-8.7ZM336.4,179c6.2,3.1,1.2,14.6-6.7,9.4-4-2.6-.5-13,6.7-9.4ZM336.1,231c3.4,5.1-2.2,13.1-7.7,8.7-7.8-6.3,4.2-13.9,7.7-8.7ZM322.8,279.5c-7.5,1.7-10.4-10.1-2.8-11.8,7.5-1.7,10.4,10.1,2.8,11.8ZM321.9,161.2c4.7,4.9-2.9,14.6-8.5,7.5-4.9-6.1,3.6-12.6,8.5-7.5ZM306.7,211.6c3.7-6.4,16.7,5.3,6.8,9.6-5,2.2-8.8-6.2-6.8-9.6ZM305.8,251.6c1.8,3.7-5.5,9.3-9.6,6.9-6.3-3.8,4.2-18,9.6-6.9ZM292.8,194.2c5-3.2,13.3,2.1,8.7,7.7-6.7,8.2-12.9-5.1-8.7-7.7ZM283.8,335.7c-.9-.9-.5-8.9,4.3-8.7,8.4.4,1.2,14.2-4.3,8.7ZM282.4,506.9c-6.2-4.2,5.1-16.9,9.4-8.4,3.3,6.4-4.2,11.9-9.4,8.4ZM289.7,529.7c-6.3,2.9-10.8-5.7-6-9.6,6.4-5.1,13.4,6.1,6,9.6ZM289.1,471.2c6.7,5.2-4.4,15.6-8.5,9.4-4-6,3.9-13,8.5-9.4ZM288.6,444.6c5.1,4.9-1.4,13.4-7.5,8.5-7.1-5.6,2.7-13.2,7.5-8.5ZM278.5,231.4c6.4-5.1,13.4,6.1,6,9.6-6.3,2.9-10.8-5.7-6-9.6ZM281.9,265.9c1.9,3.4-1.8,11.7-6.8,9.6-9.9-4.3,3.2-16,6.8-9.6ZM277.7,319.9c-8.4-.4-1.2-14.2,4.3-8.7.9.9.5,8.9-4.3,8.7ZM274.3,370.6c3.5,7.2-6.8,10.7-9.4,6.7-5.1-7.9,6.4-13,9.4-6.7ZM269.8,300.6c-.6,1-8.1,1-8.6,0-6-10.9,14.7-10.9,8.6,0ZM259.5,211.6c2.2-3.6,15.9-.3,9.6,6.9-5,5.7-12.9-1.6-9.6-6.9ZM260.2,243.4c3.6.5,6.8,7.7,1.5,9.9-9.8,4.1-9.3-11-1.5-9.9ZM254.2,344.6c2.3-3.9,12.6.1,10.3,5.9-2.7,6.7-14.4,1.1-10.3-5.9ZM253.1,481.1c-8.6-6.8,5.4-11.5,8-8.9,1.6,1.6,0,15.2-8,8.9ZM257.6,506.4c-4.9,2.4-8.9-6.4-6.8-9.5,4.8-7.4,17,4.6,6.8,9.5ZM250.8,458c-3.6-5.5,5.1-12.5,9.5-6.9,5.6,7-6.4,11.7-9.5,6.9ZM247.4,433.4c-5.3-3.5,2.3-15.4,8.7-7.7,4.5,5.5-3.6,11-8.7,7.7ZM249.5,330.3c-6.3,2.9-10.8-5.7-6-9.6,6.4-5.1,13.4,6.1,6,9.6ZM227.5,423.5c5.5,3.6-2.4,13.6-8.3,10.1-3.9-2.3-.3-15.7,8.3-10.1ZM216.5,398.6c8.8-.4,6.8,9,1.3,10.3-7.6,1.9-10.2-10-1.3-10.3ZM229.6,459.1c-8,3.8-8.3-8.4-7.1-9.7,4.9-5.2,15.1,5.9,7.1,9.7ZM231.8,481.1c-7.6,4.6-11.9-7.6-7.3-10.5,5.6-3.5,14.5,6.1,7.3,10.5ZM221.1,519.7c8.6-5.6,12.2,7.8,8.3,10.1-5.9,3.5-13.8-6.5-8.3-10.1ZM224.5,505.2c-2.1-3.2,1.9-11.9,6.8-9.5,10.1,5-2,16.9-6.8,9.5ZM231.8,384.3c-5.5-5.6,1.8-14.2,8-9.8,6.1,4.4-2.2,15.7-8,9.8ZM238.4,223.8c2.3-3.9,15.7-.3,10.1,8.3-3.6,5.5-13.6-2.4-10.1-8.3ZM236.7,260.6c2.3-3.9,12.6.1,10.3,5.9-2.7,6.7-14.4,1.1-10.3-5.9ZM238.4,297.9c8.3,6.9-5.2,15.2-8.6,9.5-3.2-5.3,3-14.3,8.6-9.5ZM229.7,350.4c4.9,6.1-3.6,12.6-8.5,7.5-4.7-4.9,2.9-14.6,8.5-7.5ZM220,277.9c5.5.4,6.2,8.3,1.5,10.4-9.4,4.2-9.6-10.9-1.5-10.4ZM217.3,328.7c.9.9.5,8.9-4.3,8.7-8.4-.4-1.2-14.2,4.3-8.7ZM211.9,374.3c3.3,1.8,1,13.2-6.9,9.6-7.1-3.3.7-13,6.9-9.6ZM124.7,525.5c4.5,5.5-3.6,11-8.7,7.7-5.3-3.5,2.3-15.4,8.7-7.7ZM117.4,444.9c6.4-5.1,13.4,6.1,6,9.6-6.3,2.9-10.8-5.7-6-9.6ZM128,505.5c1,.6,1,8.1,0,8.6-10.9,6-10.9-14.7,0-8.6ZM121.8,493.4c-7.8-6.3,4.2-13.9,7.7-8.7,3.4,5.1-2.2,13.1-7.7,8.7ZM126.8,473.7c-6.8,1.6-11.4-9.4-2.4-11.2,7.5-1.6,9.9,9.4,2.4,11.2ZM120.9,387.2c6.4-5.1,13.4,6.1,6,9.6-6.3,2.9-10.8-5.7-6-9.6ZM119.5,427.5c4.5,5.4-4.2,12.2-8.5,7.5-4.5-4.9,2.6-14.7,8.5-7.5ZM91.2,457.2c7.3-5.3,12.7,6.9,6.1,9.7-4.2,1.7-11.1-6.1-6.1-9.7ZM85.9,436.2c6.4-5.1,13.4,6.1,6,9.6-6.3,2.9-10.8-5.7-6-9.6ZM93.8,486.2c-2.4-4.9,6.4-8.8,9.6-6.9,6.2,3.8-4,18-9.6,6.9ZM100.6,514c-7.1,2-10.9-10.1-2.9-11.9,8.1-1.9,9,10.2,2.9,11.9ZM94.1,524.8c4.1-.6,9.1,7.8,3,10.2-9,3.6-9.6-9.2-3-10.2ZM100.3,565.2c3-5.3,14.5,2.2,9.5,8.6-4.7,6-13.3-1.9-9.5-8.6ZM104.3,418.1c-7.8-6.3,4.2-13.9,7.7-8.7,3.4,5.1-2.2,13.1-7.7,8.7ZM102.4,368.8c-6.3,2.9-10.8-5.7-6-9.6,6.4-5.1,13.4,6.1,6,9.6ZM101.4,392.1c5.2,5-3.6,13.8-8.5,7.6-4.8-6.2,3.3-12.5,8.5-7.6ZM89.6,389.2c-5.1,4-14.2-3.7-8.4-9.3,5.6-5.4,14.4,4.7,8.4,9.3ZM83.5,419.5c7.8,6.3-4.2,13.9-7.7,8.7-3.4-5.1,2.2-13.1,7.7-8.7ZM69,497.9c-5.1-5,1.5-13.2,7.5-8.4,6.6,5.2-1.8,14.1-7.5,8.4ZM74,476.6c-6.3,7.8-13.9-4.2-8.7-7.7,5.1-3.4,13.1,2.2,8.7,7.7ZM76.5,507.2c7.6,6-6.2,13.9-9.5,8.5-3.1-5.1,1.9-14.5,9.5-8.5ZM89.2,547.7c5.7,9.1-7.7,11.6-10.2,5.8-2.3-5.3,7.5-10.1,10.2-5.8ZM98.5,583.2c4.5,5.5-3.6,11-8.7,7.7-5.3-3.5,2.3-15.4,8.7-7.7ZM96,614.1c7.3-1.5,10,8.6,2.7,10.1-7.3,1.5-10-8.6-2.7-10.1ZM92.1,655.9c-6.1,2.4-8.8-8.3-3.5-10.5,6.1-2.4,8.8,8.3,3.5,10.5ZM103.5,632.2c7.3-5.3,12.7,6.9,6.1,9.7-4.2,1.7-11.1-6.1-6.1-9.7ZM105.7,608.2c-4.7-4.3,2.2-13,7.6-8.5,7.1,5.9-2.6,13.1-7.6,8.5ZM110.7,544.1c1.8-3.2,14.8.3,8.7,7.8-5.8,7.2-11.8-2.3-8.7-7.8ZM121.9,582.3c5.5.4,6.2,8.3,1.5,10.4-9.4,4.2-9.6-10.9-1.5-10.4ZM124.8,566.9c5.6-3.2,15,2.9,7.7,8.6-7.3,5.8-12.1-6.2-7.7-8.6ZM136.3,547.6c7.5-1.7,10.4,10.1,2.8,11.8-7.5,1.7-10.4-10.1-2.8-11.8ZM151.3,463.2c-8.3,1.9-10.4-11.7-1.1-11.7,6.8,0,7.7,10.3,1.1,11.7ZM153.2,482.5c-6.3,2.9-10.8-5.7-6-9.6,6.4-5.1,13.4,6.1,6,9.6ZM142.3,443.9c-5.3-3.5,2.3-15.4,8.7-7.7,4.5,5.5-3.6,11-8.7,7.7ZM147.5,386.2c-5-3.2,0-14.8,8.3-10,5.3,3-2.2,13.9-8.3,10ZM136.6,425.9c-5.8-7.3,6.2-12.1,8.7-7.7,3.2,5.6-2.9,15-8.7,7.7ZM140.2,530.7c6.4-5.1,13.4,6.1,6,9.6-6.3,2.9-10.8-5.7-6-9.6ZM146.5,522.9c-6.7-2.7-1.1-14.4,5.9-10.3,3.9,2.3-.1,12.6-5.9,10.3ZM147.6,501.6c-5.3-3.5,2.3-15.4,8.7-7.7,4.5,5.5-3.6,11-8.7,7.7ZM156.2,407.2c-3-5.6,2.9-15.1,8.7-7.8,6.1,7.6-6.9,11.1-8.7,7.8ZM175.8,452.7c-7.7,1.7-8.7-10.6-2.9-11.9,7.5-1.8,10.5,10.2,2.9,11.9ZM182.1,470.2c-3.2,5-14.8,0-10-8.3,3-5.3,13.9,2.2,10,8.3ZM170.7,430c-6.3,2.9-10.8-5.7-6-9.6,6.4-5.1,13.4,6.1,6,9.6ZM171.8,540.4c3.5,3.5-3.7,16.4-9.7,8.9-5.6-7,7.1-11.5,9.7-8.9ZM169,521c8-6.3,9.6,7.3,8,8.9-2.6,2.6-16.6-2.1-8-8.9ZM173.4,500.9c6.4-5.1,13.4,6.1,6,9.6-6.3,2.9-10.8-5.7-6-9.6ZM176.1,489.9c-7.8-6.3,4.2-13.9,7.7-8.7,3.4,5.1-2.2,13.1-7.7,8.7ZM179.6,386.6c-7.8-6.3,4.2-13.9,7.7-8.7,3.4,5.1-2.2,13.1-7.7,8.7ZM197.8,400.6c3.6,5.6-4.6,11.4-10,8.3-7.1-4.1,5.6-15.1,10-8.3ZM196.2,425.7c6.4-5.1,13.4,6.1,6,9.6-6.3,2.9-10.8-5.7-6-9.6ZM198.3,449.7c2.5-4.3,14.5.4,8.7,7.7-5.7,7.2-11.8-2.1-8.7-7.7ZM207.5,484.3c-6.3,2.9-10.8-5.7-6-9.6,6.4-5.1,13.4,6.1,6,9.6ZM200.2,508.4c-4.7-4.9,2.9-14.6,8.5-7.5,4.9,6.1-3.6,12.6-8.5,7.5ZM205.2,261.2c5.3,6.1-4.4,11.8-8.4,7.6-6.5-6.7,2.2-14.7,8.4-7.6ZM191.2,307.1c2.7-8.8,19.7-2.7,11.7,5.4-4.7,4.7-13.4.4-11.7-5.4ZM191.2,355.1c2.3-3.9,15.7-.3,10.1,8.3-3.6,5.5-13.6-2.4-10.1-8.3ZM186.8,341.1c-6.1,4.9-12.6-3.6-7.5-8.5,4.9-4.7,14.6,2.9,7.5,8.5ZM176.9,283.9c6.4-5.1,13.4,6.1,6,9.6-6.3,2.9-10.8-5.7-6-9.6ZM175,363.4c-3,5.3-13.9-2.2-10-8.3,3.2-5,14.8,0,10,8.3ZM168.9,321.5c-7.6,2.2-10.2-6.2-5.9-9.5,6.6-5.2,14.8,7,5.9,9.5ZM158,267.6c1.8-3.2,14.8.3,8.7,7.8-5.8,7.2-11.8-2.3-8.7-7.8ZM158.4,344.3c-6.3,2.9-10.8-5.7-6-9.6,6.4-5.1,13.4,6.1,6,9.6ZM151.7,293.5c7.8,6.3-4.2,13.9-7.7,8.7-3.4-5.1,2.2-13.1,7.7-8.7ZM143,316.3c7.2,5.8-2.3,11.8-7.8,8.7-3.2-1.8.3-14.8,7.8-8.7ZM139.4,354.9c5.5.4,6.2,8.3,1.5,10.4-9.4,4.2-9.6-10.9-1.5-10.4ZM133.8,412.4c-6.8,1.6-8.1-7.7-3-10.1,7.9-3.6,10.6,8.3,3,10.1ZM129.3,349.3c-4.9,4.7-14.6-2.9-7.5-8.5,6.1-4.9,12.6,3.6,7.5,8.5ZM124.7,301.4c5.2,6.5-4.5,11.6-8.5,7.6-4.6-4.7,2.7-14.8,8.5-7.6ZM117.7,373.2c4.5,5.5-3.6,11-8.7,7.7-5.3-3.5,2.3-15.4,8.7-7.7ZM112.3,327.9c2.3,5.7-8,9.7-10.3,5.9-4.1-7,7.6-12.5,10.3-5.9ZM94.9,288.6c2.2-3.6,15.9-.3,9.6,6.9-5,5.7-12.9-1.6-9.6-6.9ZM85.9,315.4c5.8-7.2,13.1,2.9,8.5,7.6-4,4-13.7-1.1-8.5-7.6ZM89.5,346.2c2.6,2.6-2.1,16.6-8.9,8-6.3-8,7.3-9.6,8.9-8ZM68.4,304.9c6.4-5.1,13.4,6.1,6,9.6-6.3,2.9-10.8-5.7-6-9.6ZM63.4,335.9c7-4.1,12.5,7.6,5.9,10.3-5.7,2.3-9.7-8-5.9-10.3ZM71.7,369.2c5.1,7.9-6.4,13-9.4,6.7-3.5-7.2,6.8-10.7,9.4-6.7ZM63.2,404.7c7.3-5.3,12.7,6.9,6.1,9.7-4.2,1.7-11.1-6.1-6.1-9.7ZM64.4,447.8c6.3-.9,7.8,11.1,1.3,12-6.3.9-7.8-11.1-1.3-12ZM55.5,398.8c-6,4.8-12.6-3.4-7.5-8.4,5.8-5.7,14.1,3.2,7.5,8.4ZM55.8,366.8c-4,4-13.7-1.1-8.5-7.6,5.8-7.2,13.1,2.9,8.5,7.6ZM56.3,328.7c2.6,2.6-2.1,16.6-8.9,8-6.3-8,7.3-9.6,8.9-8ZM31,349.7c4.7-1.9,11.8,7.5,5,10.3-7.9,3.2-10.5-8.1-5-10.3ZM34.6,377.8c5.6-.8,8.6,10.2,1.2,11.9-8.6,1.9-6.5-11.1-1.2-11.9ZM36.9,416.9c6.4-5.1,13.4,6.1,6,9.6-6.3,2.9-10.8-5.7-6-9.6ZM48,505.1c-10.6,1.7-15.9-14.7-6.2-18.6,14.1-5.6,19.4,16.4,6.2,18.6ZM50,439c-3.5-7.2,6.8-10.7,9.4-6.7,5.1,7.9-6.4,13-9.4,6.7ZM61.4,525.4c6.4-5.1,13.4,6.1,6,9.6-6.3,2.9-10.8-5.7-6-9.6ZM74.4,577c-6.3,2.9-10.8-5.7-6-9.6,6.4-5.1,13.4,6.1,6,9.6ZM78.9,597.2c6.4-5.1,13.4,6.1,6,9.6-6.3,2.9-10.8-5.7-6-9.6ZM78.9,632.6c-8.6-1.8-11.7-11.6-5-18,1.3-1.2,2.5-1.2,4.4-1.2,3.6,0,8.5,1.4,10.6,5.9,1.4,3,1.2,7.2-.6,10,1.7,1.9,2.4,4.6.4,7.4-3,4.2-8.4.3-9.8-4.1ZM93.5,681.9c-11.8,1.5-15.9-17.8-2.5-19.8,13.4-2,14.8,18.2,2.5,19.8ZM112.8,667.7c-12.5.2-12.2-19.3-1.4-20.5,14-1.5,15.5,20.3,1.4,20.5ZM134.6,645c-8.6,9-24.7-7.9-12.8-15.4,12.4-8,19.9,8,12.8,15.4ZM142.5,624.1c-16.1,4.5-18-24.7,0-18.6,8.9,3,8.5,16.2,0,18.6ZM156.5,604.8c-12.3,3.4-18.1-14.1-6.7-19.2,13.2-5.8,18.9,15.8,6.7,19.2ZM172.3,582.1c-18.4,6.1-17.7-24.2-.4-18.2,8.9,3.1,8.3,15.6.4,18.2ZM198.6,562.6c-5.2,14.7-27.5,3.1-17.5-9.5,6.1-7.8,21.1-.6,17.5,9.5ZM196.6,533.1c-3.4-5.1,2.2-13.1,7.7-8.7,7.8,6.3-4.2,13.9-7.7,8.7ZM214.3,562.9c-12.1,1.8-16.6-18.1-2.5-19.8,13.3-1.6,14,18.1,2.5,19.8ZM241.7,560.5c-10.1,9-21.5-7.7-13.5-16.1,7.9-8.3,24.7,6.3,13.5,16.1ZM256,520.2c4.5,5.5-3.6,11-8.7,7.7-5.3-3.5,2.3-15.4,8.7-7.7ZM259.9,560.9c-12.4.3-12.2-19.3-1.4-20.5,13.1-1.5,15.7,20.2,1.4,20.5ZM271.4,394.2c5.8-7.2,11.8,2.3,8.7,7.8-1.8,3.2-14.8-.3-8.7-7.8ZM285.8,420.5c4.5,5.5-3.6,11-8.7,7.7-5.3-3.5,2.3-15.4,8.7-7.7ZM289.5,557.6c-13.7,3.1-16.1-15.5-6.2-18.6,13.8-4.3,18.6,15.8,6.2,18.6ZM292.4,294.7c-4.9-6.1,3.6-12.6,8.5-7.5,4.7,4.9-2.9,14.6-8.5,7.5ZM310.1,369.8c2,4.8-5.1,7.8-8.5,5.9-7-4,5.1-14.2,8.5-5.9ZM314,552.4c-11.2,1.9-15.4-14.9-6.2-18.6,13.7-5.5,20.2,16.3,6.2,18.6ZM322.1,521c-3.1,4.8-15.1,0-9.5-6.9,4.5-5.6,13.1,1.4,9.5,6.9ZM326.3,545.2c-9-11.5,9.2-22.6,15.4-12.8,7.8,12.6-8.7,21.3-15.4,12.8ZM349.7,456.6c7.9-3.6,10.6,8.3,3,10.1-6.8,1.6-8.1-7.7-3-10.1ZM356.6,503.5c7.1,5.6-2.7,13.2-7.5,8.5-5.1-4.9,1.4-13.4,7.5-8.5ZM352.8,538.8c-12.1-8,3.6-24.8,12.8-15.4,7.1,7.1-2.2,22.5-12.8,15.4ZM386.7,527.7c-7.3,7.4-21.8-2.6-15.5-12.8,7.7-12.3,25.7,2.3,15.5,12.8ZM391.3,491.3c-6.3,2.9-10.8-5.7-6-9.6,6.4-5.1,13.4,6.1,6,9.6ZM405.1,519.1c-12.1,1.8-16.6-18.1-2.5-19.8,13.3-1.6,14,18.1,2.5,19.8ZM413.8,440.2c-6.7-6.7,5.4-14.2,10.2-7,3.8,5.6-4.4,12.9-10.2,7ZM427.9,472c-7.5,1.7-10.4-10.1-2.8-11.8,7.5-1.7,10.4,10.1,2.8,11.8Z" fill="#d67847"/><path id="_Path_-16" d="M91.5,617.6c-3.2-6.5-11.3-7.9-16.1-6.9-1.1.2-2.6,1.5-2.6,1.6-2.9,3.2-4.4,6.4-4.4,9.7,0,2.5.9,5.1,2.7,7.5,1.6,2.2,3.9,3.7,6.5,4.5,1.3.4,2.6.6,3.9.6,2.1,0,4.1-.5,6-1.5,3-1.6,4.6-4.8,5.1-8.3,0-.6.1-1.2.1-1.8,0-1.9-.4-3.9-1.2-5.5Z" fill="#fff"/><path id="_Path_-17" d="M91.5,617.6c-3.2-6.5-11.3-7.9-16.1-6.9-1.1.2-2.6,1.5-2.6,1.6-2.9,3.2-4.4,6.4-4.4,9.7,0,2.5.9,5.1,2.7,7.5,1.6,2.2,3.9,3.7,6.5,4.5,1.3.4,2.6.6,3.9.6,2.1,0,4.1-.5,6-1.5,3-1.6,4.6-4.8,5.1-8.3,0-.6.1-1.2.1-1.8,0-1.9-.4-3.9-1.2-5.5ZM78.1,631.7c-2-.6-3.9-1.9-5.1-3.6-1.5-2-2.3-4.1-2.3-6.1s1.2-5.3,3.7-8c.3-.3,1.2-.9,1.5-1,3.2-.7,10.7-.2,13.5,5.6.6,1.3.9,2.8.9,4.4s0,1.5-.2,2.2c-.5,2.5-1.7,4.7-3.7,5.8-2.5,1.3-5.6,1.5-8.3.6Z" fill="#1c1c1b"/><path id="_Path_-18" d="M84.1,614.9h0c-1.9-.9-4-1.1-5.7-.4-.4,0-.8.1-1.2.2-3.4,1-5.4,4.7-4.7,8.6.4,2,1.8,4.6,4,5.7.7.3,1.4.6,2,.7.6.1,1.2.2,1.8.2,1.3,0,2.7-.4,4.1-1.1,1.5-.8,2.7-2.2,3.3-3.9.4-1,.5-2.1.5-3.2,0-3.1-1.6-5.7-4-6.9ZM85.6,625.5c-.4.6-.8,1.2-1.4,1.6-.2.2-.4.3-.7.5-1.7.9-3.2,1.1-4.8.7-.5-.1-1-.3-1.5-.6-1.4-.7-2.7-2.6-3.1-4.5-.6-3.1.9-6,3.5-6.8.3,0,.6-.1,1-.2h.3c.6-.3,1.2-.4,1.8-.4s1.8.2,2.7.7h0c1.9.9,3.1,3,3.1,5.5,0,.8-.1,1.5-.3,2.2-.1.5-.3.9-.6,1.4Z"/></g><g id="tas"><path id="_Path_-19" d="M949.1,909.8c-1.4-4.1-4.8-4-6.5-3.7-1.7.3-2.5,1-3.2,3.7-2.1-2.8-5.2-.8-6.9.4-1.7,1.3-3.1,3.7-9.3,3.4-6.2-.3-9.5,1-10.7,1.6-1.3.6-1.4,1.3-1.7,5.1-1.8-2.1-3-2.8-5.4-1.4-2.4,1.4-1.4,3.8-1.4,3.8,0,0-13.1-5.1-21.7-8.5-2.6,2.4-7.4,3.2-8.9.7-1-1.6-1.1-3.2-.6-4.5-4.2-1.7-9.4-3.8-13.5-5.4-3.2-1.2-5.4-2.1-5.4-2.1-2.3,2.3-.8,13.3-.4,19.2,0,1.3.6,3.2,1.3,5.3,2.6-.8,5.5-.7,6.2,0,1.6,1.6.4,7.6-2.3,9.9,3.7,9.4,13.4,23.1,16.8,28.2,0,0-3.5-3-9-6.5-.2,3.2,1.2,8,3.1,12.7,1.1.2,2.3.7,3.3,1.7,2.1,2,1.9,4.7.6,6.7,2.4,4.4,3.5,6.3,5.7,8.9,1.7-.2,3.4.2,4.3,1.7.8,1.3,1.1,2.7,1,4.1,1.8,1.7,3.8,3.4,6,4.9-4.5,2.1-3.3,5.2-2.1,6.9.6.3,1.1.6,1.7,1.1,1.4-.4,5-1.3,8-1.5,3.8-.3,8.3,2.1,10,3.1,1.1.6,1.8.5,2.5,0-.8-.4-1.7-1.1-2.5-2.2-5.8-7.3,6.2-12.1,8.7-7.7,1.1-1.7,1.9-5,2.4-7.5-2.6-.8-4.9-2.3-6.5-4.5-4.3-5.8-3.4-11.7,1.6-17.2,0,0,1.6-1.4,2.6-1.6,5.6-1.5,16,1.8,17.1,9.9.8.4,1.7,1.2,2.5,2.3,3.2-3.3,3.2-9.8,3.8-13.7.3-2.3,1.4-10,2-14.8,3,.1,6.6,5.5,6.6,5.5,0-7.9.7-25.3.9-36.5-1.3-1.9-1.5-4.6.1-6.7,0-1.3-.1-2.1-1-4.6ZM873.8,949.8c-6.3,2.9-10.8-5.7-6-9.6,6.4-5.1,13.4,6.1,6,9.6ZM893.2,921.8c6.1-4.9,12.6,3.6,7.5,8.5-4.9,4.7-14.6-2.9-7.5-8.5ZM880.5,962c-5.3-3.5,2.3-15.4,8.7-7.7,4.5,5.5-3.6,11-8.7,7.7ZM898.3,977.8c-6.3,2.9-10.8-5.7-6-9.6,6.4-5.1,13.4,6.1,6,9.6ZM905.2,993.5c-6.8,1.6-8.1-7.7-3-10.1,7.9-3.6,10.6,8.3,3,10.1ZM912.3,946.3c-9.4,4.2-9.6-10.9-1.5-10.4,5.5.4,6.2,8.3,1.5,10.4ZM918.9,967.3c-5-3.2,0-14.8,8.3-10,5.3,3-2.2,13.9-8.3,10ZM929.8,925.3c-6.3,2.9-10.8-5.7-6-9.6,6.4-5.1,13.4,6.1,6,9.6ZM946.4,944.5c-3,5.3-13.9-2.2-10-8.3,3.2-5,14.8,0,10,8.3Z" fill="#d67847"/><path id="_Path_-20" d="M932.8,973.5c-3.2-6.5-11.3-7.9-16.1-6.9-1.1.2-2.6,1.5-2.6,1.6-2.9,3.2-4.4,6.4-4.4,9.7,0,2.5.9,5.1,2.7,7.5,1.6,2.2,3.9,3.7,6.5,4.5,1.3.4,2.6.6,3.9.6,2.1,0,4.1-.5,6-1.5,3-1.6,4.6-4.8,5.1-8.3,0-.6.1-1.2.1-1.8,0-1.9-.4-3.9-1.2-5.5ZM919.4,987.6c-2-.6-3.9-1.9-5.1-3.6-1.5-2-2.3-4.1-2.3-6.1s1.2-5.3,3.7-8c.3-.3,1.2-.9,1.5-1,3.2-.7,10.7-.2,13.5,5.6.6,1.3.9,2.8.9,4.4s0,1.5-.2,2.2c-.5,2.5-1.7,4.7-3.7,5.8-2.5,1.3-5.6,1.5-8.3.6Z" fill="#1c1c1b"/><path id="_Path_-21" d="M925.4,970.8h0c-1.9-.9-4-1.1-5.7-.4-.4,0-.8.1-1.2.2-3.4,1-5.4,4.7-4.7,8.6.4,2,1.8,4.6,4,5.7.7.3,1.4.6,2,.7.6.1,1.2.2,1.8.2,1.3,0,2.7-.4,4.1-1.1,1.5-.8,2.7-2.2,3.3-3.9.4-1,.5-2.1.5-3.2,0-3.1-1.6-5.7-4-6.9ZM926.9,981.3c-.4.6-.8,1.2-1.4,1.6-.2.2-.4.3-.7.5-1.7.9-3.2,1.1-4.8.7-.5-.1-1-.3-1.5-.6-1.4-.7-2.7-2.6-3.1-4.5-.6-3.1.9-6,3.5-6.8.3,0,.6-.1,1-.2h.3c.6-.3,1.2-.4,1.8-.4s1.8.2,2.7.7h0c1.9.9,3.1,3,3.1,5.5,0,.8-.1,1.5-.3,2.2-.1.5-.3.9-.6,1.4Z"/></g><g id="nsw"><path id="_Path_-22" d="M1081.2,503.9c-.8-.2-1.9-.5-3.1-.7-.5,1.8-1.9,3.3-4.2,3.8-3.9.9-6.5-1.8-7.1-4.9-2.4-1.1-4.5-2.1-4.5-2.1,0,0-5.8,6-5.8,6s-3.3.2-6.2-.2c-.4.9-.5,2-.5,3.2,8.8,5.2-3.3,16.4-7.6,10.2-.7-1.1-.7-2.6-1.5-3.2,0,0-5.2,7.7-6.8,8.9-1.6,1.2-4.6,2.3-4.6,2.3,0,0-.5-5.2-.7-7.1-.2-2.3-1.8-5.2-3.4-7.1-.9-1.2-1.6-1.9-5.7-2.6-5-.9-6.7-.1-6.7-.1,0,0-3.7-2-6.7-2.4-2.9-.3-5.8-2.4-5.8-2.4,0,0-4.9,2.8-7.6,3-.6,1.1-1.5,1.9-2.8,2.2-4,.9-6.4-1.6-7.1-4.6-.4-.1-.8-.2-.9-.1-.7.2-4.3,5.7-4.3,5.7,0,0-3.8-.9-3.8-.9l.5,4.1s-3.8,0-3.8,0c0,0,.3,2.4-1.9,3.7-.4.3-1,.5-1.6.7,2.6,2.8,3.7,7.6,1.3,8.9-6,3.3-13.3-3.2-10-8.1-.1,0-.3,0-.4,0-2.9-.1-4.1.2-9.6.1-5.5-.1-18.2-.8-18.2-.8-1,0-3.1,0-4.3,0,7.2,5.8-2.9,13.1-7.6,8.5-2.3-2.2-1.6-6.3.5-8.5-9,.1-20.8.3-31.5.3-.5.6-1.1,1-2,1.4-2.7,1.3-5.1.3-6.6-1.5-8.1,0-12.6-.3-18.8-.5,1.2,2.5.8,5.7-2.6,7.2-5.1,2.4-9.1-2.9-7.8-7.1-12.3,1-32.8.8-49.3-.1,1.4,7.7-14.1,9.1-11.3-.2-4.3,0-8.6-.1-12.5-.1,1.7,3.2.4,8.3-3.2,9.4-5.1,1.4-8.5-5.4-6.5-9.4-6,0-10.3,0-11.4,0-.3,2.1-.2,1.7-.3,4.5,2.6-1.2,5.9-1.4,7-.3,1.6,1.6,0,14.5-7.4,9.4-.2,8.2-.4,19.1-.1,28.1,5.7,2.8,4.7,8.5.2,10.3.1,9.6.2,22.5.2,35.1,3.6,2.2,3.5,9.2,0,11.1,0,14.7-.2,27.2-.4,30.7-.1,2.2-.2,6.5-.1,11.8,5.8.2,8.7,9.7,1.1,11.9-.3.1-.7.2-1,.2,0,4.7.1,9.5.2,13.8.2-1.2.9-2.2,2.2-3.1,3.2-2.1,11.9,1.9,9.5,6.8-3.6,7.2-10.7,3.1-11.7-1.6,0,5.1.2,9.2.2,11.4,1.8-.6,5.6-1.1,9.8,2.3,5.8-2.8,3.4-3,5.8-2.8,2.4.2,5.6,1.4,7.8,1.2,2.2-.2,6,.2,6.6.8.6.6,6.2,4,7.4,6.6,1.2,2.6.4,6.4,2.2,8l1.8,1.6c5.5-5.3,17.2-4.3,21.9.2,0,0,0,.6.2,1.4.7,1.3,1,2.8.8,4.3.5,2.3,1.3,4.8,2.5,6.3,4,5.2,3.8,6.2,8.4,5.8.8-3.9,6.7-6.5,10-3.3,2.3,2.3,1.6,6.3-.5,8.5,1.3,2.1,3.8,2.9,5,4.8.8,1.3,1.2,4.1,1.2,5,0,0,4.6,2.6,6.6,4,3.2,2.5,7.4,3.4,10.5,1.8,0,0,0-1-.1-2.1-5.4,6.8-14.5-2.1-8.3-7.7,3.9-3.1,8.1-.1,9,3.5,1.3-1.1,4.3-2.1,4.3-2.1,0,0,1.8,1.4,3.6,1.4,1.8,0,8-.4,8-.4,0,0,.6,1.8,3.6,1.8s5-.4,5-.4c0,0,6,4,7.8,3.8.8,0,1.9-.7,3-1.3-2.5-2.2-3.5-6-.7-8,7.4-5.1,13.3,3.4,9.1,7.7.9.3,1.6.6,1.6.6,0,0,8,.6,11.3,0,3.2-.6,5.8-1.8,9-2.6s7-3,10.7.8c0,.8,0,1.6,0,2.2,2,1.6,3,4.6,2,6.9,2.6,3.6,5,8.2,3.8,14.6,1.5.7,3.1,1.4,4.6,2,2.7-2.7,7.7-3.8,9-1.4,1,1.8,1.1,3.7.6,5.4,1.1.5,2.1,1,3.3,1.6,6.2,3.2,11.9,7,14.1,7.2s7,1.4,9.7,1.4c.8.7,2.3,3.2,3.1,4.9,0-.2.1-.5.2-.7,3.2,1.6,4,1.5,5.2.5-.5-1.6-1.1-4.7-1.3-6.1-5.9-.9-7-10.6-.2-11.6,0-5.4,2.6-6.3,4.3-13.3.9-3.8.5-12.6,2-18.4-1.8-2.3-1.1-6.6,2.2-7.5,0,0-2.5-3.5-2.5-3.5,0,0,3.4.3,4.5-1.3,1.1-1.6,3.9-5.5,5.8-10.2,1.9-4.7,4.8-6,4.8-6,0,0-.1-2.5-.1-2.5-.2,0-.4.1-.6.2-6.8,1.6-11.4-9.4-2.4-11.2,2.4-.5,4.3.3,5.5,1.7,1.3-.7,2.4-1.5,2.6-2,.3-2.7.3-7.4,2.3-12,.6-1.4,1.8-3.3,3-5.1,3.7,1.7,8.1,1.7,11.7-.2,5.1-2.7,6.4-10.5,4-15.5-1.6-3.4-4.7-5.4-7.8-6.4,0-1.2,0-2,0-2,0,0,2.7-1.1,3.1-2.4.3-1.3.8-4.7,1.9-6.3.3-2.4.5-4.4,1.1-4.8,2,.7,2.7.4,3.4-1.7-4.6-.1-8-7.6-4-10.2,4.3-2.8,10.6.6,9.9,5.1,2-.7,5.1-1.8,6.5-2.8-.5-1.3-1.6-2.4-3.9-2.1,2.2-1.1,4.8-2.5,7.1-3.9.7-.9,2.1-1.7,3-2,1.6-1.2,2.8-2.3,3.4-3.4,1.6-3.1,1-5.5,1-5.5,0,0-3.2-.5-3.2-.5,0,0,1.3-.8,2.4-3.9,1.1-3.1,2.3-4.8,4.2-6,1.9-1.1,4.7-8.2,4.7-8.2,0,0,1.4-3.4,2.6-6.7-4.1-2.3-3.9-8.4,1.3-10.5-.7-8.1-1.1-12.2.9-20.2-.5-1.7-.5-3.5.2-4.6.4-.6.8-1,1.2-1.3,1.1-4.4,2.3-9,3.2-12.8.6-2.6,1.3-5.2,2-7.8-1-.2-1.9-.6-2.6-1.4-3.7-3.7.3-12.1,6-9.5,1.4-4.1,4.2-9.7,4.9-12.9-6.1-.2-8-10.5-1.5-11.9-.1-.4-.2-.7-.2-1,0-.7.2-1.8,0-3.4l-4.9.9s-2.7,2-5.7,3.5ZM1026.2,621.9c-5.2,6.6-14.1-1.8-8.4-7.5,5-5.1,13.2,1.5,8.4,7.5ZM1022.8,589.7c5.1-3.4,13.1,2.2,8.7,7.7-6.3,7.8-13.9-4.2-8.7-7.7ZM1028.8,529.9c3.4,6.4-4.4,12-9.5,8.5-6.6-4.6,4.7-17.5,9.5-8.5ZM1022.3,559.9c3.2,5.6-2.9,15-8.7,7.7-5.8-7.3,6.2-12.1,8.7-7.7ZM1003.4,548.2c6.1,7.6-6.9,11.1-8.7,7.8-3-5.6,2.9-15.1,8.7-7.8ZM997.9,574.4c6.4-5.1,13.4,6.1,6,9.6-6.3,2.9-10.8-5.7-6-9.6ZM996.2,619.9c6.4-5.1,13.4,6.1,6,9.6-6.3,2.9-10.8-5.7-6-9.6ZM998.2,656.9c-6.3,7.8-13.9-4.2-8.7-7.7,5.1-3.4,13.1,2.2,8.7,7.7ZM988.2,577c-6.3,2.9-10.8-5.7-6-9.6,6.4-5.1,13.4,6.1,6,9.6ZM956.3,615.4c-3.4-5.1,2.2-13.1,7.7-8.7,7.8,6.3-4.2,13.9-7.7,8.7ZM961,648.7c-6.7,3.8-14.6-4.7-8.6-9.5,6.3-5,13.9,6.4,8.6,9.5ZM977,659.4c4.6,4.6-5.6,15.7-10.3,8.5-4.5-6.8,7.7-11.1,10.3-8.5ZM983.3,689c7.2,5.7-2.1,11.8-7.7,8.6-4.3-2.5.4-14.4,7.7-8.6ZM982.8,608.4c-6.8,1.6-8.1-7.7-3-10.1,7.9-3.6,10.6,8.3,3,10.1ZM978.7,532.4c6.4-5.1,13.4,6.1,6,9.6-6.3,2.9-10.8-5.7-6-9.6ZM977.7,638.3c-4.6.7-9.2-9.2-3-12,9.2-4,9.8,10.9,3,12ZM973.1,556.6c4,4-1.1,13.7-7.6,8.5-7.2-5.8,2.9-13.1,7.6-8.5ZM959.8,579.2c3-5.3,14.5,2.2,9.5,8.6-4.7,6-13.3-1.9-9.5-8.6ZM948.9,542.9c6.4-5.1,13.4,6.1,6,9.6-6.3,2.9-10.8-5.7-6-9.6ZM949,564.9c1.6,1.6,0,15.2-8,8.9-8.6-6.8,5.4-11.5,8-8.9ZM941.3,648.8c6.2,4.8-2.6,13.7-7.6,8.5-5-5.2,1.4-13.3,7.6-8.5ZM934,615.5c7.6-6.1,11.1,6.9,7.8,8.7-5.6,3-15.1-2.9-7.8-8.7ZM940.2,590.2c6.1-4.5,13.2,4.7,6,7.8-5.6,2.4-10.8-4.2-6-7.8ZM933.1,530.7c6.4-5.1,13.4,6.1,6,9.6-6.3,2.9-10.8-5.7-6-9.6ZM924.7,554.6c6.5-4.2,12.5,7.8,8.4,10.1-8.3,4.6-13.5-6.8-8.4-10.1ZM917.1,583.7c-4.9,5.1-13.4-1.4-8.5-7.5,5.6-7.1,13.2,2.7,8.5,7.5ZM922.5,636.4c-2.5,4.3-14.5-.4-8.7-7.7,5.7-7.2,11.8,2.1,8.7,7.7ZM921.7,671.5c-10.1,4.3-9.5-12.8-1.5-11.6,3.9.6,6.9,9.3,1.5,11.6ZM906.9,541.2c7.3-5.3,12.7,6.9,6.1,9.7-4.2,1.7-11.1-6.1-6.1-9.7ZM892.9,527.2c6.4-5.1,13.4,6.1,6,9.6-6.3,2.9-10.8-5.7-6-9.6ZM899.9,558c3.9,2.3.3,15.7-8.3,10.1-5.5-3.6,2.4-13.6,8.3-10.1ZM891.1,586.7c5.8-7.2,13.1,2.9,8.5,7.6-4,4-13.7-1.1-8.5-7.6ZM897.4,640.1c7.2,0,8.5,11.6,0,11.6s-7.2-11.6,0-11.6ZM888.2,621.3c4.3-4.7,13,2.2,8.5,7.5-5.9,7.1-13.1-2.6-8.5-7.5ZM887.5,547.7c4.7,8.4-6.8,13.3-10,8.3-3.9-6.1,7-13.6,10-8.3ZM880.5,641.6c-3,5.3-13.9-2.2-10-8.3,3.2-5,14.8,0,10,8.3ZM874.2,598.6c4.9-5.1,13.4,1.4,8.5,7.5-5.6,7.1-13.2-2.7-8.5-7.5ZM878.5,656.1c6.4-1.6,10.7,7.9,2.7,10-9.7,2.5-9.2-8.4-2.7-10ZM877.9,580.5c-6.3,2.9-10.8-5.7-6-9.6,6.4-5.1,13.4,6.1,6,9.6ZM865.9,531.7c6.1-2.6,11.8,10,3.1,12-7.5,1.7-7.6-10.1-3.1-12ZM856.1,646.2c6.4-5.1,13.4,6.1,6,9.6-6.3,2.9-10.8-5.7-6-9.6ZM864.6,584.6c4.7,4.9-2.9,14.6-8.5,7.5-4.9-6.1,3.6-12.6,8.5-7.5ZM858.2,622.4c-4.8-3.1,0-15.1,6.9-9.5,5.6,4.5-1.4,13.1-6.9,9.5ZM854.4,560.4c6.4-5.1,13.4,6.1,6,9.6-6.3,2.9-10.8-5.7-6-9.6ZM850.7,636.4c-5.6,3.2-15-2.9-7.7-8.6,7.3-5.8,12.1,6.2,7.7,8.6ZM839.5,664.7c-2.4-4.9,6.4-8.9,9.5-6.8,7.4,4.8-4.6,16.9-9.5,6.8ZM850.8,596.6c2.1,3.2-1.9,11.9-6.8,9.5-10.1-5,2-16.9,6.8-9.5ZM840.4,544.7c6.4-5.1,13.4,6.1,6,9.6-6.3,2.9-10.8-5.7-6-9.6ZM842.2,582.4c-3.5,3.5-16.4-3.7-8.9-9.7,7-5.6,11.5,7.1,8.9,9.7ZM827.3,617.6c-7.8-6.3,4.2-13.9,7.7-8.7,3.4,5.1-2.2,13.1-7.7,8.7ZM824.9,526.6c1.8-3.2,14.8.3,8.7,7.8-5.8,7.2-11.8-2.3-8.7-7.8ZM824.5,552.9c3.2,1.8-.3,14.8-7.8,8.7-7.2-5.8,2.3-11.8,7.8-8.7ZM810.5,533.6c3.2,1.8-.3,14.8-7.8,8.7-7.2-5.8,2.3-11.8,7.8-8.7ZM801.9,569.2c6.4-5.1,13.4,6.1,6,9.6-6.3,2.9-10.8-5.7-6-9.6ZM797,610.1c-4.4-6.2,4.1-13.5,9.8-8,5.9,5.8-5.4,14.1-9.8,8ZM791.5,549.9c5-2.2,8.8,6.2,6.8,9.6-3.7,6.4-16.7-5.3-6.8-9.6ZM787.2,535.1c5.6,7-6.4,11.7-9.5,6.9-3.6-5.5,5.1-12.5,9.5-6.9ZM780.2,561.4c8.8-.4,6.8,9,1.3,10.3-7.6,1.9-10.2-10-1.3-10.3ZM769,606.6c-3.6-4.9,2.5-13.3,7.7-8.7,8.4,7.5-3.4,14.6-7.7,8.7ZM773.2,543.9c7.8,6.3-6,12.3-9.7,8.7-2.2-2.1.7-16,9.7-8.7ZM766.7,579.2c5.3,3-2.2,13.9-8.3,10-5-3.2,0-14.8,8.3-10ZM755.5,631.4c-2.2-5,6.2-8.8,9.6-6.8,6.4,3.7-5.3,16.7-9.6,6.8ZM766,641.8c7.3-5.8,12.1,6.2,7.7,8.6-5.6,3.2-15-2.9-7.7-8.6ZM772.4,661.3c6.7-3.7,14.8,4.7,8.7,9.6-6.7,5.4-12.8-7.3-8.7-9.6ZM786.9,692.5c-6.3,2.9-10.8-5.7-6-9.6,6.4-5.1,13.4,6.1,6,9.6ZM789.5,627.7c-1.8,3.2-14.8-.3-8.7-7.8,5.8-7.2,11.8,2.3,8.7,7.8ZM786.2,581.5c7.9-5.5,15.5,6,7.7,9.5-5.4,2.4-13-5.8-7.7-9.5ZM800.3,637.4c5.6,4.5-1.4,13.1-6.9,9.5-4.8-3.1,0-15.1,6.9-9.5ZM797.9,668.4c7.3-1.5,7.6,8.4,3.1,10.2-5.6,2.2-11.6-8.4-3.1-10.2ZM799.2,706.8c-7.1-5.6,2.7-13.2,7.5-8.5,5.1,4.9-1.4,13.4-7.5,8.5ZM811,690.6c-3.4-5.1,2.2-13.1,7.7-8.7,7.8,6.3-4.2,13.9-7.7,8.7ZM819.2,654.5c3.4,5.1-2.2,13.1-7.7,8.7-7.8-6.3,4.2-13.9,7.7-8.7ZM819.6,632.4c-6.7,5.4-12.8-7.3-8.7-9.6,6.7-3.7,14.8,4.7,8.7,9.6ZM818.5,594.8c-7.2-5.7,2.1-11.8,7.7-8.6,4.3,2.5-.4,14.4-7.7,8.6ZM833.2,711.7c-7.4,4.4-14-5.8-8.2-10,7.8-5.7,12.7,7.3,8.2,10ZM824.7,676c-2.3-5.7,8-9.7,10.3-5.9,4.1,7-7.6,12.5-10.3,5.9ZM834.1,652.2c-6.3,2.9-10.8-5.7-6-9.6,6.4-5.1,13.4,6.1,6,9.6ZM840.4,686.4c6.4-5.1,13.4,6.1,6,9.6-6.3,2.9-10.8-5.7-6-9.6ZM856,723.9c-6.7,3.8-14.6-4.7-8.6-9.5,6.3-5,13.9,6.4,8.6,9.5ZM859.1,670.1c8.2-3.5,11.7,10.3,4.8,12-6.5,1.6-11.1-9.3-4.8-12ZM863.4,701.6c2.2-3.6,15.9-.3,9.6,6.9-5,5.7-12.9-1.6-9.6-6.9ZM877.9,738c-6.3,2.9-10.8-5.7-6-9.6,6.4-5.1,13.4,6.1,6,9.6ZM882.4,688.2c6.4-5.1,13.4,6.1,6,9.6-6.3,2.9-10.8-5.7-6-9.6ZM895.3,722.1c-7.7,0-7.2-12,.3-12,7.6,0,8.1,11.9-.3,12ZM908.5,683.6c-3,5.3-14.5-2.2-9.5-8.6,4.7-6,13.3,1.9,9.5,8.6ZM907.7,619c-6.3,2.9-10.8-5.7-6-9.6,6.4-5.1,13.4,6.1,6,9.6ZM913.9,696.9c6.4-5.1,13.4,6.1,6,9.6-6.3,2.9-10.8-5.7-6-9.6ZM925.2,736.2c-7.9,3.2-10.5-8.1-5-10.3,4.7-1.9,11.8,7.5,5,10.3ZM926.9,606.8c-6.2,2.4-13.3-6.3-5.8-9.5,7.1-3,12.1,7.1,5.8,9.5ZM932.3,692.9c-7.8-6.3,4.2-13.9,7.7-8.7,3.4,5.1-2.2,13.1-7.7,8.7ZM942.6,724c-8.7,2-10-12.3-1.5-12.2,6.4,0,6.8,11,1.5,12.2ZM948.9,672.4c5.8-7.2,13.1,2.9,8.5,7.6-4,4-13.7-1.1-8.5-7.6ZM949.2,748.4c-3.6-5.5,5.1-12.5,9.5-6.9,5.6,7-6.4,11.7-9.5,6.9ZM954.5,701.7c3-5.3,13.9,2.2,10,8.3-3.2,5-14.8,0-10-8.3ZM975,771.1c-5.6,3.2-15-2.9-7.7-8.6,7.3-5.8,12.1,6.2,7.7,8.6ZM971.8,737.4c-8.9-4.8,1.2-14.6,6.8-11.3,3.7,2.2.1,15.1-6.8,11.3ZM989.9,759c-6.3,2.9-10.8-5.7-6-9.6,6.4-5.1,13.4,6.1,6,9.6ZM995.1,723.9c-8.6,1.9-6.5-11.1-1.2-11.9,5.6-.8,8.6,10.2,1.2,11.9ZM998.8,685.8c-8.6-6.8,5.4-11.5,8-8.9,1.6,1.6,0,15.2-8,8.9ZM1003.8,605c-7.8,1.9-9.3-11.5-1.4-12.2,9-.7,7.1,10.8,1.4,12.2ZM1007.4,524.5c-6.3,2.9-10.8-5.7-6-9.6,6.4-5.1,13.4,6.1,6,9.6ZM1013.7,642.7c6.3-5,13.9,6.4,8.6,9.5-6.7,3.8-14.6-4.7-8.6-9.5ZM1038.8,671.9c1.9,3.9.9,10.4-3,12.4-5.9,3.2-14-.5-15.4-6.9-2.1-2.2-2.6-6.2.3-8.5,1.1-1.1,2.4-.8,3.2-1.7.3-.3,1.2-.9,1.5-1,4.1-.9,11.3.6,13.5,5.6ZM1033.4,578.4c-5.2-5,3.6-13.8,8.5-7.6,4.8,6.2-3.3,12.5-8.5,7.6ZM1038.4,620.8c-5.3-3.2,2.3-17.2,9.6-8.7,3.9,4.6-5.3,11.3-9.6,8.7ZM1044.4,552c-8.5,0-7.2-11.6,0-11.6s8.5,11.6,0,11.6ZM1067.9,552.9c3,5.6-2.9,15.1-8.7,7.8-6.1-7.5,6.9-11.1,8.7-7.8ZM1052.4,587.5c-3.9-2.3-.3-15.7,8.3-10.1,5.5,3.6-2.4,13.6-8.3,10.1ZM1057.7,608.5c-3.2-5,4.9-13,9.8-8.1,7.3,7.2-6.5,13.2-9.8,8.1ZM1072.5,526.4c-5,10.1-16.9-2-9.5-6.8,3.2-2.1,11.9,1.9,9.5,6.8Z" fill="#d67847"/><path id="_Path_-23" d="M1041.9,671.3c-3.2-6.5-11.3-7.9-16.1-6.9-1.1.2-2.6,1.5-2.6,1.6-2.9,3.2-4.4,6.4-4.4,9.7,0,2.5.9,5.1,2.7,7.5,1.6,2.2,3.9,3.7,6.5,4.5,1.3.4,2.6.6,3.9.6,2.1,0,4.1-.5,6-1.5,3-1.6,4.6-4.8,5.1-8.3,0-.6.1-1.2.1-1.8,0-1.9-.4-3.9-1.2-5.5Z" fill="#fff"/><path id="_Path_-24" d="M1041.9,671.3c-3.2-6.5-11.3-7.9-16.1-6.9-1.1.2-2.6,1.5-2.6,1.6-2.9,3.2-4.4,6.4-4.4,9.7,0,2.5.9,5.1,2.7,7.5,1.6,2.2,3.9,3.7,6.5,4.5,1.3.4,2.6.6,3.9.6,2.1,0,4.1-.5,6-1.5,3-1.6,4.6-4.8,5.1-8.3,0-.6.1-1.2.1-1.8,0-1.9-.4-3.9-1.2-5.5ZM1028.4,685.4c-2-.6-3.9-1.9-5.1-3.6-1.5-2-2.3-4.1-2.3-6.1s1.2-5.3,3.7-8c.3-.3,1.2-.9,1.5-1,3.2-.7,10.7-.2,13.5,5.6.6,1.3.9,2.8.9,4.4s0,1.5-.2,2.2c-.5,2.5-1.7,4.7-3.7,5.8-2.5,1.3-5.6,1.5-8.3.6Z" fill="#1c1c1b"/><path id="_Path_-25" d="M1034.5,668.6h0c-1.9-.9-4-1.1-5.7-.4-.4,0-.8.1-1.2.2-3.4,1-5.4,4.7-4.7,8.6.4,2,1.8,4.6,4,5.7.7.3,1.4.6,2,.7.6.1,1.2.2,1.8.2,1.3,0,2.7-.4,4.1-1.1,1.5-.8,2.7-2.2,3.3-3.9.4-1,.5-2.1.5-3.2,0-3.1-1.6-5.7-4-6.9ZM1036,679.1c-.4.6-.8,1.2-1.4,1.6-.2.2-.4.3-.7.5-1.7.9-3.2,1.1-4.8.7-.5-.1-1-.3-1.5-.6-1.4-.7-2.7-2.6-3.1-4.5-.6-3.1.9-6,3.5-6.8.3,0,.6-.1,1-.2h.3c.6-.3,1.2-.4,1.8-.4s1.8.2,2.7.7h0c1.9.9,3.1,3,3.1,5.5,0,.8-.1,1.5-.3,2.2-.1.5-.3.9-.6,1.4Z"/></g><g id="vic"><path id="_Path_-26" d="M896.3,834.4c0-.2-.2-.3-.3-.5,3.5,0,5.5.5,8.7-.1s6.8-1.1,12.5-6.8c5.7-5.6,17.3-16.7,17.9-17.5.6-.8,0-1.8,3.1-2.1,3.1-.3,22.5-2.6,29.8-3.4,0,0,3-.2,6.5-.6-.3-.2-.5-.5-.7-.8-5.6-8.6,7.8-12.2,10.1-8.3,1.5,2.5.5,5.4-1.3,7.4.4-.1.8-.3,1.2-.5,0,0,4.2-1.8,5.8-6.5-.8-1.3-1.6-2.4-2.1-3-2.6,0-7.4-1.2-9.7-1.4-2.2-.2-7.8-4-14.1-7.2-1.3-.7-2.6-1.3-3.9-1.8-1.6,4.1-6.6,6.7-9.9,2.5-1.9-2.4-1.5-4.6-.2-6.4-1.5-.6-3-1.2-4.4-1.8,1.3-6.9-.7-11.7-3.3-15.4-.5.9-1.3,1.8-2.6,2.4-6.3,2.9-10.8-5.7-6-9.6,2.2-1.8,4.5-1.6,6.2-.5,0-.2,0-.5,0-.7-3.6-3.8-6.4-1.6-9.7-.8-3.2.8-5.8,2-9,2.6-3.2.6-11.3,0-11.3,0,0,0-1.2-.5-2.8-1-1.8,1.3-4.7,1.8-6.7.4-1.4.7-2.6,1.5-3.6,1.6-1.8.2-7.8-3.8-7.8-3.8-1.2.2-7.7,1.4-8.6-1.4,0,0-6.2.4-8,.4-1.8,0-3.6-1.4-3.6-1.4,0,0-3.5,1.1-4.5,2.3,0,.8-.1,1.5-.5,2.2,0,1.7.2,3.9.2,3.9,0,0-.8.6-3.4.8-2.6.2-5-1.2-7-2.6-2-1.4-7.6-4-7.6-4,0,0,.4-1.6.3-3.2-.1-.6-.2-1.2-.5-1.8-1-1.8-3-2.2-4.4-4-.5-.6-.9-1.1-1.3-1.6-1.7,1.5-4.1,1.9-6.8-.3-1.7-1.4-2.4-2.8-2.5-4.2h-2.3c-1.6,0-3-2.4-5.6-5.8-1.2-1.6-2.3-4.3-3-6.8-.5,2-1.9,3.7-4.3,4.2-8.3,1.9-10.4-11.7-1.1-11.7.4,0,.8,0,1.2.1-1.6-.8-3.9-1.6-7.1-1.7-7.2-.2-11.1,3.6-11.1,3.6,0,0,0,0-1.6-1.4,2.4,5.3-5.7,11.5-9.9,6.1-5.2-6.5,4.6-10.9,8.7-7.8-.9-1.9-1.2-4.6-2.2-6.6-1.2-2.6-5.8-6-6.4-6.6-.6-.6-4.4-1-6.6-.8s-5.4-1-7.8-1.2,0,0-5.8,2.8c-4.5-3.6-8.7-2.7-10.3-2.1,0,.6,0,.6,0,1,0,0,.4,27.4-.3,34.5-.7,7.2-1.2,17.8-.5,21,.7,3.2,0,26.9,0,30.3s.2,6.9.5,13.3c0,0,.1-.1.2-.2,6.4-5.1,13.4,6.1,6,9.6-2.3,1.1-4.3.6-5.8-.6,0,1.8.2,3.5.2,5.1,3.3,1.3,8.9,1.7,8.2,9,4.8.4,5.2.3,5.2.3,0,0,1.4-4.6,5.2-4.3,3.8.4,9.1,3.6,10.9,3.6,1.8,0,5.1-1.1,8.2-.8,2.6-2.3,7.7-3.1,9.2-1.6.7.7.8,3.7,0,6.3.3.2.5.3.8.5,3.1,2.1,14.1,8.9,18.1,11.3,1.2-.4,2.4-.4,3.5,0,3.3-1.5,6-6.9,8.4-9.5-3.2-1.8-4.5-6.8-1.1-9.5,4.2-3.4,8.7.4,9.2,4.3.7-.3,1.3-.6,1.8-.9,2.5,2.9,6.1,4.4,9.9,4.4,1.8,0,3.6-.6,5.3-1,1,.1,4.4,0,6.9-.2-.4-2.3,1.2-5.1,3.6-5.9,0-1.1,0-1.9.7-2.2,1-.4,3.1-.7,5.4,1.9,2.3,2.6,1.2,3.9,1.2,3.9,0,0,0,0-.1,0,.9,2.3.5,5-2.2,6.6,1.5,3.4,4.9,4.2,4.9,4.2,0,0,5.1-1.1,5.6-.3.5.9,1.3,6.1,2.9,6.1s3.9-2.4,3.9-2.4c0,0,.2.2.7.5.8-2.6,2.4-4.8,5.1-4.3ZM936,788.9c6.9-2.7,11,10.9,3.2,12.1-5,.8-8.8-10-3.2-12.1ZM929,811.7c-5,5.7-12.9-1.6-9.6-6.9,2.2-3.6,15.9-.3,9.6,6.9ZM924.2,768.2c3.2,5.6-2.9,15-8.7,7.7-5.8-7.3,6.2-12.1,8.7-7.7ZM911.2,829c-6.3,2.9-10.8-5.7-6-9.6,6.4-5.1,13.4,6.1,6,9.6ZM908,787.1c3.5,7.2-6.8,10.7-9.4,6.7-5.1-7.9,6.4-13,9.4-6.7ZM773.8,739.8c-5.9,3.5-13.8-6.5-8.3-10.1,8.6-5.6,12.2,7.8,8.3,10.1ZM771.3,762.6c-4.2,1.7-11.1-6.1-6.1-9.7,7.3-5.3,12.7,6.9,6.1,9.7ZM771.4,706.6c5,6.3-6.5,13.9-9.5,8.6-3.8-6.7,4.7-14.6,9.5-8.6ZM764.3,785.6c-7.8-6.3,4.2-13.9,7.7-8.7,3.4,5.1-2.2,13.1-7.7,8.7ZM776.6,818c-8.5,0-7.2-11.6,0-11.6s8.5,11.6,0,11.6ZM794.9,733.7c6.7-5.4,12.8,7.3,8.7,9.6-6.7,3.7-14.8-4.7-8.7-9.6ZM792.1,799.2c-6.3,2.9-10.8-5.7-6-9.6,6.4-5.1,13.4,6.1,6,9.6ZM792.1,764.2c-6.3,2.9-10.8-5.7-6-9.6,6.4-5.1,13.4,6.1,6,9.6ZM800.5,769.9c5.1-3.4,13.1,2.2,8.7,7.7-6.3,7.8-13.9-4.2-8.7-7.7ZM813.3,811.6c-4.2,1.7-11.1-6.1-6.1-9.7,7.3-5.3,12.7,6.9,6.1,9.7ZM817.7,749.4c6.2-3.2,12.6,6.5,5.8,9.5-8,3.5-13.3-5.6-5.8-9.5ZM823.4,790.3c-5-5,2.9-13,8-7.9,5,5-2.9,13-8,7.9ZM837.5,772.7c-5.1-4.9,1.4-13.4,7.5-8.5,7.1,5.6-2.7,13.2-7.5,8.5ZM857.4,823.7c-10.7,5.1-21.3-7.7-12.2-16.8-1.5-2.2-1.3-4.9,2.3-6.6,7.1-3.3,10.3,2.7,8.6,6.7,1.7.9,3.3,2.3,4.3,4.3,1.8,4,1,10.1-3,12.4ZM869.5,789.1c-7.3,5.8-12.1-6.2-7.7-8.6,5.6-3.2,15,2.9,7.7,8.6ZM879.7,762.5c7.6-6.1,11.1,6.9,7.8,8.7-5.6,3-15.1-2.9-7.8-8.7ZM888.7,813.6c-7.3,5.8-12.1-6.2-7.7-8.6,5.6-3.2,15,2.9,7.7,8.6Z" fill="#d67847"/><path id="_Path_-27" d="M860.6,811.2c-3.2-6.5-11.3-7.9-16.1-6.9-1.1.2-2.6,1.5-2.6,1.6-2.9,3.2-4.4,6.4-4.4,9.7,0,2.5.9,5.1,2.7,7.5,1.6,2.2,3.9,3.7,6.5,4.5,1.3.4,2.6.6,3.9.6,2.1,0,4.1-.5,6-1.5,3-1.6,4.6-4.8,5.1-8.3,0-.6.1-1.2.1-1.8,0-1.9-.4-3.9-1.2-5.5Z" fill="#fff"/><path id="_Path_-28" d="M860.6,811.2c-3.2-6.5-11.3-7.9-16.1-6.9-1.1.2-2.6,1.5-2.6,1.6-2.9,3.2-4.4,6.4-4.4,9.7,0,2.5.9,5.1,2.7,7.5,1.6,2.2,3.9,3.7,6.5,4.5,1.3.4,2.6.6,3.9.6,2.1,0,4.1-.5,6-1.5,3-1.6,4.6-4.8,5.1-8.3,0-.6.1-1.2.1-1.8,0-1.9-.4-3.9-1.2-5.5ZM847.1,825.3c-2-.6-3.9-1.9-5.1-3.6-1.5-2-2.3-4.1-2.3-6.1s1.2-5.3,3.7-8c.3-.3,1.2-.9,1.5-1,3.2-.7,10.7-.2,13.5,5.6.6,1.3.9,2.8.9,4.4s0,1.5-.2,2.2c-.5,2.5-1.7,4.7-3.7,5.8-2.5,1.3-5.6,1.5-8.3.6Z" fill="#1c1c1b"/><path id="_Path_-29" d="M853.2,808.5h0c-1.9-.9-4-1.1-5.7-.4-.4,0-.8.1-1.2.2-3.4,1-5.4,4.7-4.7,8.6.4,2,1.8,4.6,4,5.7.7.3,1.4.6,2,.7.6.1,1.2.2,1.8.2,1.3,0,2.7-.4,4.1-1.1,1.5-.8,2.7-2.2,3.3-3.9.4-1,.5-2.1.5-3.2,0-3.1-1.6-5.7-4-6.9ZM854.7,819.1c-.4.6-.8,1.2-1.4,1.6-.2.2-.4.3-.7.5-1.7.9-3.2,1.1-4.8.7-.5-.1-1-.3-1.5-.6-1.4-.7-2.7-2.6-3.1-4.5-.6-3.1.9-6,3.5-6.8.3,0,.6-.1,1-.2h.3c.6-.3,1.2-.4,1.8-.4s1.8.2,2.7.7h0c1.9.9,3.1,3,3.1,5.5,0,.8-.1,1.5-.3,2.2-.1.5-.3.9-.6,1.4Z"/></g></svg>
