<?xml version="1.0" encoding="UTF-8"?><svg xmlns="http://www.w3.org/2000/svg" viewBox="0 0 1097.96 1015.5"><g id="nt"><path d="M670.69,401.87c.06-3.5.16-6.51.33-8.71.17-2.3.27-5.51.31-9.27-3.23,7.79-7.7,17.91-11.98,27.3-7.17,15.75-15.86,33.99-18.95,38.94,3.88-.04,7.42-.08,10.29-.09,3.58-10.61,9.63-25.31,15.85-39.12,1.36-3.01,2.75-6.04,4.15-9.03Z" fill="#d67847"/><path d="M643.15,394.52c4.87-10.4,10.38-22.17,9.69-23.53-.2-.1-.93-.27-1.58-.42-4.27-.97-14.26-3.23-12.58-12.97.97-5.64,12.34-10.13,22.11-8.73,4.31.62,7.77,2.24,10.31,4.73-.16-9.73-.34-18.96-.37-25.13-1.29-.48-2.26-1.23-2.9-2.26-2.18-3.54-.14-9.91,3.43-16.81.38-9.57.74-19.7.25-25.4-.7-8.19-.09-29.46,0-37.39-19.48,9.71-34.59,23.64-37.38,48.19-7.33,64.43,8.42,100.56-40.17,155.03,4.56.02,9.21.07,14.41.24,4.2.14,9.33.18,14.67.18-1.08-10.45,11.1-36.47,20.12-55.73Z" fill="#d67847"/><path id="_Path_" d="M530.83,27.27c-1.05,2.5-1.45,2.37.92,4.88-.79,1.32-2.5,4.61-.53,7.64-2.37-.79-4.48-2.5-4.61,6.06-1.71-4.35-2.9-4.88-2.9-4.88l-2.11,1.32-1.45-2.64s-2.9,1.45-4.74,5.27c-1.58-.66-2.37-2.24-8.04-.92-1.43.33-2.79.28-4.04-.06,1.69,4.49-3.26,10.51-7.89,7.38-.15,3.06-1.44,6.14-3.89,7.45-4.44,2.36-10.47,1.05-13.44-2.93-1.53-2.05-2.29-4.09-2.29-6.15,0-.13.02-.25.02-.38.11-2.5,1.34-5.03,3.69-7.6.08-.07.21-.17.35-.28-.61-.37-1.2-.9-1.74-1.6-.14.12-.24.21-.27.23-2.92,3.18-4.38,6.45-4.38,9.67,0,1.5.33,2.99.96,4.47-.91-.02-2.33-.23-3.32-1.23-.46,3.49-.73,7.48-1.96,8.56-.49,1.17-1.35,2.19-2.63,2.75-1.35.6-2.5.79-3.48.7-.21,2.05.85,5.28,3.98,7.36l-7.91,6.33s-1.85-.4-3.69-2.11c-.26,5.4-3.69,18.19-7.25,19.51l-2.24.53s-5.4,11.2,3.95,9.49c2.64,5.01,3.82,8.44,3.82,8.44l-3.3-.66s.47,3.13.78,5.75c3.09,1.43,5.89,6.35,3.95,9.37-4.68,7.3-16.49-4.18-7.4-9.2-.27-.37-.54-.75-.76-1.17-1.32-2.5-4.35-3.16-5.67-2.64.4,3.69,1.05,4.74,1.05,4.74,0,0-3.03,2.11-4.09.79-1.05-1.32-3.95-6.72-3.95-6.72,0,0-.66.02-1.59.02h0c.06.31.1.58.15.84.05,0,.1,0,.14,0,1.14,6.06-.31,3.32-.68,5.71-.43,2.82.65,8.45.65,12.13s-.65,6.5,0,9.53c.36,1.67.26,8.57.2,15.38.13.14.27.27.39.43,2.12,2.54,1.45,5.24-.41,7.12.02,2.58.09,4.75.25,6.09.65,5.63,0,20.57.65,26.2.18,1.56.2,2.93.16,4.2,4.1,1.87,5.81,8.75.94,10.74-.41.17-.81.27-1.19.31.24,4.09.08,8.76.08,15.71,0,2.39-.06,9.01-.14,17.3,8.05-3.12,11.41,10.39,4.51,12.07-1.73.42-3.33-.05-4.62-1.02-.18,17.85-.4,38.01-.4,42.25,0,4.46.48,17.44.81,28.37,4.91-3.05,11.75,2.86,7.27,8.51-2.34,2.96-5.02,2.98-7.01,1.66.05,2.5.06,4.48.02,5.64-.22,6.28-1.52,40.5-1.73,46.99-.12,3.73.11,6.38.45,8.59,1.58-.92,3.57-.95,5.56.67,6.14,4.99-.05,10.8-4.63,10.4-.22,4.94-.73,10.95-.73,13.26,0,3.68-.87,10.18-.87,15.16,0,2.52.33,6.55.69,10.98,4.42.42,11.81.98,19.01.82,4.2-.09,9.93-.29,17.03-.46-1.72-2.59-1.91-6.41.33-7.69,5.25-2.98,13.73,2.14,8.97,7.5,5.24-.08,11.03-.14,17.3-.12-1.2-2.2-1.01-5.01,1.36-6.88,4.58-3.61,12.13,2.64,10.43,6.98,2.78.04,5.64.1,8.57.17,5.57.14,10.22.18,14.2.17.19-.22.38-.44.6-.65,4.86-4.67,10.88-3.41,14.55.24,2.67-.13,5.05-.28,7.44-.39-6.47-3.94-6.21-15.94,3.06-17.79,13.12-2.63,14.6,12.73,6.86,17.6,1.09.01,2.24.03,3.47.07,5.47.16,10.24.22,14.71.24,12.5-12.46,23.03-27.93,30.78-47.68,29.15-74.3-22.54-126.33,58.97-167.32-.16-2.77-.26-6.3-.16-11.54,0-.45.02-.92.02-1.42-3.93-1.33-4.08-5.53-7.11-6.93-1.37,3.59,2.35,11.45-5.31,14.84-16.8,7.43-22.06-27.5,5.31-14.84,2.22-5.83,4.74-9.29,7.23-11.06,0-13.49-.17-28.29-.65-32.79-.41-3.79-.59-10.7-.68-16.28.14.18.28.37.42.55,0-.18,0-.36,0-.54-.67-.89-1.27-1.69-1.73-2.3,1.64,2.6,1.54,6.28-2.17,8-6.26,2.89-10.82-5.74-6.02-9.57.73-.58,1.46-.94,2.18-1.13l-16.26-7.69,1.83,3.67s-5.83-2.33-8.5-2c.42-2.33-.42-4.17-1.92-5.17-.32-.21-.77-.46-1.29-.72-.98-.18-1.8-.59-2.46-1.15-1.35-.6-2.6-1.14-3-1.38-.83-.5-2.58-2.58-4.5-5.75-1.92-3.17-6.17-4.75-9.58-6.5s-12.58-6.25-12.17-11.25c1.78-1.46,3.23-2.8,4.45-4.07.16-.42.36-.86.61-1.32.11-.19.47-.35.99-.47,1.11-1.32,2-2.57,2.78-3.81,1.83-2.92,8.92-14.5,9.5-19.5-1.75.75-3.17,1.58-3.17,1.58,0,0,.16-10.7,2.54-14.34-4.06-1.03-6.07-6.99-2.3-10,4.69-3.74,9.7,1.27,9.16,5.57.49-.06,1.02-.04,1.6.1.83,3.92-.08,6.5-1,7.42,2.92-.83,6.25-2.75,5.5-7.75l4.17-1.33s-2.76-1.81-2.58-4.11c-.84-.14-1.67-.44-2.43-.94-4.97-3.28,1.48-14.03,7.52-8.85,0,0,0-.01,0-.02l2.25.25,3.42-4.33s-3.17-5.92-4.25-5.83c-1.08.08-4.5,3-4.5,3l-4-8.33-8.08,5.92s4.83.75,4.67,3.17c-.17,2.42-1,4.42-5.08,5.08-4.08.67-5.83.33-5.42-2.5.42-2.83,1.25-3.17,1.25-3.17l-1.58.05c-2.21.96-4.2.47-5.63-.72-.06.09-.1.17-.13.25-.42,1.33-1.17,1.83-1.17,1.83,0,0-2.67-1.33-.25-3.08.13-.09.26-.18.4-.28-.47-.7-.8-1.51-.96-2.34-1.22.64-2.24,1.17-2.52,1.2-.67.08-2.83-1.75-4.92-.75-1.24.6-2.74,1.63-3.94,2.48,6.19-3.73,12.41,6.78,5.27,10.08-6.2,2.86-10.74-5.59-6.14-9.46-.41.29-.74.52-.94.65-.83.5-5.42,1.55-8.58-4.42-.75-1.42-1.92-3.83-1.92-3.83,0,0-3,1.92-4.25,3.83-1.93-.54-1.89-.69-1.73-.73-.84.09-5.51.54-8.28-.52l-.99-.5s-.14-.09-.36-.25c-2.98.46-5.35-1.67-6.09-4.23-1.73.58-3.13.73-2.85-.29.32-1.16,1.97-2.42-.04-3.21-1.84-.73-3.82-1.43-5.48-.44,1.96,2.57,2.41,6.12-1.37,7.64-5.57,2.24-8.52-2.74-7.79-6.63-1.28-.57-2.88-1.12-4.83-1.52-5.89-6.93-7.36-10.27-7.36-10.27,0,0-3.62,5.75-6.74,5.66v3.76ZM447.04,445.5c-4.04-4,1.12-13.72,7.59-8.48,7.17,5.8-2.92,13.1-7.59,8.48ZM455.23,254.17c5.85-7.23,11.76,2.25,8.71,7.82-1.77,3.24-14.82-.27-8.71-7.82ZM449.13,211.33c4.75-6.03,13.31,1.87,9.49,8.58-3.03,5.33-14.48-2.24-9.49-8.58ZM458.9,331.22c6.23-3.2,12.59,6.54,5.82,9.46-8.02,3.45-13.27-5.63-5.82-9.46ZM458.88,414.41c-1.49-1.47.37-10.87,6.09-8.72,7.98,3-2.19,12.55-6.09,8.72ZM478.27,375.19c-5.85,7.23-11.76-2.25-8.71-7.82,1.77-3.24,14.82.27,8.71,7.82ZM484.92,64.66c4.78,3.14.1,15.1-6.91,9.52-5.6-4.46,1.43-13.12,6.91-9.52ZM491.51,140c7.03-1.46,11,9.8,2.87,11.73-7.51,1.78-10.35-10.18-2.87-11.73ZM487.73,305.91c-5.64,2.11-8.73-6.73-3.46-8.71,5.64-2.11,8.73,6.73,3.46,8.71ZM484.04,269.02c-6.26,2.89-10.82-5.74-6.02-9.57,6.42-5.11,13.44,6.14,6.02,9.57ZM482.29,228.77c-6.25,2.89-10.82-5.74-6.02-9.57,6.42-5.11,13.44,6.14,6.02,9.57ZM481.15,190.01c-4.87,4.67-14.62-2.86-7.53-8.49,6.15-4.87,12.6,3.62,7.53,8.49ZM480.04,334.1c3.69-6.43,16.74,5.25,6.84,9.55-5.03,2.18-8.78-6.17-6.84-9.55ZM491.23,417.9c-5.64,2.11-8.73-6.73-3.46-8.71,5.64-2.11,8.73,6.73,3.46,8.71ZM495.52,187.7c6.42-5.11,13.44,6.14,6.02,9.57-6.26,2.89-10.82-5.74-6.02-9.57ZM558.44,302.2c-3.15,5.21-15.19-3.93-8.22-8.24,6.09-3.77,11.82,2.29,8.22,8.24ZM559.66,328.53c7.17,5.8-2.92,13.1-7.59,8.48-4.04-4,1.12-13.72,7.59-8.48ZM554.06,235.77c-6.25,2.89-10.82-5.74-6.02-9.57,6.42-5.11,13.44,6.14,6.02,9.57ZM540.13,202.82c-8.57-6.81,5.39-11.51,8.01-8.88,1.63,1.63-.02,15.23-8.01,8.88ZM537.64,297.18c1.63,1.63-.02,15.23-8.01,8.88-8.57-6.81,5.39-11.51,8.01-8.88ZM519.19,269.39c-7.76-6.31,4.18-13.94,7.67-8.65,3.37,5.1-2.17,13.12-7.67,8.65ZM540.38,151.83c5.38,6.72-7.27,12.83-9.55,8.67-3.66-6.67,4.69-14.76,9.55-8.67ZM532.58,78.63c5.57-3.04,15.06,2.86,7.83,8.71-7.55,6.1-11.07-6.94-7.83-8.71ZM531.63,232.54c-4.46,5.6-13.12-1.43-9.53-6.9,3.14-4.78,15.11-.1,9.53,6.9ZM522.48,200.69c-8.02,3.45-13.27-5.63-5.82-9.46,6.23-3.2,12.59,6.54,5.82,9.46ZM512.04,307.51c-6.25,2.89-10.82-5.74-6.02-9.57,6.42-5.11,13.44,6.14,6.02,9.57ZM506.79,232.27c-6.25,2.89-10.82-5.74-6.02-9.57,6.42-5.11,13.44,6.14,6.02,9.57ZM497.64,260.7c2.46-4.33,14.45.42,8.65,7.73-5.73,7.23-11.85-2.11-8.65-7.73ZM505.18,379.41c-4.16,1.73-11.06-6.09-6.12-9.67,7.32-5.31,12.75,6.92,6.12,9.67ZM512.04,342.51c-6.25,2.89-10.82-5.74-6.02-9.57,6.42-5.11,13.44,6.14,6.02,9.57ZM525.12,419.41c-5.62,3.19-14.97-2.92-7.74-8.65,7.32-5.8,12.07,6.19,7.74,8.65ZM525.69,377.39c-5.29-3.49,2.35-15.43,8.65-7.67,4.47,5.5-3.55,11.03-8.65,7.67ZM527.35,340.73c-4.92-7.19,6.71-14.92,11.25-6.76,3.77,6.78-9.09,9.92-11.25,6.76ZM539.4,267.43c-1.63-1.63.02-15.23,8.01-8.88,8.57,6.81-5.38,11.51-8.01,8.88ZM546.63,415.93c-3.22-5.31,2.99-14.26,8.65-9.52,8.29,6.95-5.21,15.2-8.65,9.52ZM559.31,374.01c-6.26,2.89-10.82-5.74-6.02-9.57,6.42-5.11,13.44,6.14,6.02,9.57ZM581.91,429.84c-13.09,4.3-18.9-12.55-8.85-17.67,11.82-6.02,20.96,13.7,8.85,17.67ZM582.2,257.14c-7.76-6.31,4.18-13.94,7.67-8.65,3.37,5.1-2.17,13.12-7.67,8.65ZM583.26,296.42c-6.35,4.99-13.91-6.45-8.59-9.48,6.71-3.82,14.62,4.74,8.59,9.48ZM588.94,198.98c-7.71,1.7-8.65-10.58-2.89-11.93,7.54-1.76,10.54,10.24,2.89,11.93ZM582.99,230.51c-1.84,3.34-13.2,1.03-9.56-6.85,3.27-7.08,12.96.69,9.56,6.85ZM581.01,323.89c5.09,5.25-2.81,12.68-7.57,6.63-3.09-3.93,3.01-11.33,7.57-6.63ZM586.52,404.9c-6.32-10.18,8.21-20.2,15.46-12.79,10.25,10.46-7.81,25.14-15.46,12.79ZM610.45,381.35c-10.2,11.61-23.51-4.69-14.62-13.75,7.43-7.56,23.73,3.38,14.62,13.75ZM606.35,361.65c-17.19,3.33-13.96-21.25-1.05-22.08,11.77-.76,13.11,19.74,1.05,22.08ZM609.89,333.64c-17.69,5.53-17.93-24.8.02-18.63,8.08,2.78,7.94,16.14-.02,18.63ZM606.78,308.62c-13.91.24-12.27-20.18,0-20.04,11.71.14,13.5,19.81,0,20.04ZM601.09,281c-6.88-6.96.71-22.97,12.81-15.44,12.61,7.84-3.69,24.65-12.81,15.44ZM604.05,213.95c6.42-5.11,13.44,6.14,6.02,9.57-6.25,2.89-10.82-5.74-6.02-9.57ZM618.6,260.15c-13.01,2.56-16.59-15.15-6.19-18.63,14.56-4.87,18.73,16.16,6.19,18.63ZM659.73,198.77c-5.78,5.94-14.13-5.39-8-9.78,6.19-4.43,13.5,4.13,8,9.78ZM642.56,163.2c6.42-5.11,13.44,6.14,6.02,9.57-6.26,2.89-10.82-5.74-6.02-9.57ZM637.93,244.36c-12.54,4.34-19.77-12.5-8.82-17.66,14.2-6.69,19.35,14.02,8.82,17.66ZM635.38,202.99c3.37,5.1-2.17,13.12-7.67,8.65-7.76-6.31,4.18-13.94,7.67-8.65ZM631.22,183.42c-4.16,1.73-11.06-6.09-6.12-9.67,7.32-5.31,12.75,6.92,6.12,9.67ZM616.56,136.34c2.24-3.63,15.92-.26,9.57,6.94-4.99,5.66-12.87-1.61-9.57-6.94ZM610.32,179.86c6.39.06,6.78,11,1.46,12.21-8.69,1.96-10.02-12.29-1.46-12.21ZM604.05,66.96c6.42-5.11,13.44,6.14,6.02,9.57-6.25,2.89-10.82-5.74-6.02-9.57ZM604.32,152.94c-5.73,7.23-11.85-2.11-8.65-7.73,2.46-4.34,14.45.42,8.65,7.73ZM596.07,122.02c-6.25,2.89-10.82-5.74-6.02-9.57,6.42-5.11,13.44,6.14,6.02,9.57ZM592.57,81.78c-6.25,2.89-10.82-5.74-6.02-9.57,6.42-5.11,13.44,6.14,6.02,9.57ZM592.14,51.22c4.57,5.25-3.67,11.2-8.71,7.71-4.68-3.24.68-16.94,8.71-7.71ZM582.96,158.75c-3.11,5.7-17.36-5.87-10.04-10.05,6.37-3.63,13.53,3.65,10.04,10.05ZM567.66,115.46c3.03-5.33,14.48,2.24,9.49,8.58-4.75,6.03-13.31-1.87-9.49-8.58ZM578.88,80.19c2.18,5.02-6.17,8.77-9.56,6.84-6.43-3.68,5.26-16.73,9.56-6.84ZM565.51,54.68c6.81-8.57,11.51,5.38,8.89,8.01-1.63,1.63-15.23-.02-8.89-8.01ZM565.54,192.95c7-5.58,11.69,6.38,6.91,9.52-5.48,3.6-12.51-5.06-6.91-9.52ZM569.01,253.57c3.85,2.3.27,15.69-8.31,10.08-5.48-3.59,2.39-13.62,8.31-10.08ZM560.21,160.5c-2.28,4.16-14.93-1.95-9.55-8.67,4.87-6.09,13.21,2,9.55,8.67ZM560.38,81.14c2.33,5.74-8.03,9.74-10.31,5.87-4.12-7.02,7.6-12.52,10.31-5.87ZM548.04,54.71c6.42-5.11,13.44,6.14,6.02,9.57-6.25,2.89-10.82-5.74-6.02-9.57ZM544.85,115.39c7.47-4.7,13.73,9.98,5.66,11.93-7.46,1.8-9.12-9.75-5.66-11.93ZM535.24,26.12c8.12-3.62,10.55,9.68,4.95,12.06-5.3,2.25-11.92-8.95-4.95-12.06ZM529.31,54.42c4.86-5.07,13.36,1.38,8.49,7.53-5.62,7.09-13.16-2.66-8.49-7.53ZM524.5,113.87c5.25-.87,12.36,11.34,3.26,13.26-8.06,1.7-10.42-12.07-3.26-13.26ZM520.8,87.03c-6.26,2.89-10.82-5.74-6.02-9.57,6.42-5.11,13.44,6.14,6.02,9.57ZM511.28,49.46c6.42-5.11,13.44,6.14,6.02,9.57-6.26,2.89-10.82-5.74-6.02-9.57ZM512.64,145.14c7.98-1.52,10.04,10.36,2.78,11.84-7.21,1.47-9.95-10.48-2.78-11.84ZM507.13,111.59c4.99,6.34-6.45,13.91-9.49,8.58-3.82-6.71,4.74-14.61,9.49-8.58ZM499.61,83.4c-7.8,1.9-10.05-6.14-5.84-9.45,6.21-4.88,15.99,6.97,5.84,9.45ZM476.27,103.7c6.42-5.11,13.44,6.14,6.02,9.57-6.25,2.89-10.82-5.74-6.02-9.57ZM477.7,133.17c4.67,4.87-2.87,14.62-8.49,7.53-4.87-6.15,3.62-12.59,8.49-7.53ZM467.83,297.98c4.47,5.5-3.55,11.03-8.65,7.67-5.29-3.49,2.35-15.43,8.65-7.67ZM454.09,94.64c5.13-5.23,14.58,1.54,11,8.29-3.75,7.07-17.87-1.29-11-8.29ZM456.38,171.05c8.57,6.81-5.38,11.51-8.01,8.88-1.63-1.63.02-15.23,8.01-8.88ZM449.85,375.67c-6.71,3.82-14.62-4.74-8.59-9.48,6.35-4.99,13.91,6.45,8.59,9.48ZM442.93,300.5c-7.02,4.12-12.53-7.6-5.87-10.3,5.74-2.33,9.74,8.03,5.87,10.3Z" fill="#d67847"/><path id="_Path_-2" d="M496.99,43.26c-3.17-6.47-11.34-7.93-16.13-6.9-1.08.23-2.56,1.53-2.65,1.62-2.92,3.19-4.38,6.45-4.38,9.67,0,2.54.91,5.07,2.73,7.51,1.63,2.18,3.95,3.69,6.5,4.47,1.27.38,2.59.6,3.92.6,2.06,0,4.13-.47,6-1.47,2.98-1.58,4.64-4.85,5.06-8.27.07-.59.12-1.18.12-1.78,0-1.95-.4-3.86-1.18-5.46Z" fill="#fff"/><path id="_Path_-3" d="M496.99,43.26c-3.17-6.47-11.34-7.93-16.13-6.9-1.08.23-2.56,1.53-2.65,1.62-2.92,3.19-4.38,6.45-4.38,9.67,0,2.54.91,5.07,2.73,7.51,1.63,2.18,3.95,3.69,6.5,4.47,1.27.38,2.59.6,3.92.6,2.06,0,4.13-.47,6-1.47,2.98-1.58,4.64-4.85,5.06-8.27.07-.59.12-1.18.12-1.78,0-1.95-.4-3.86-1.18-5.46ZM483.58,57.33c-2.03-.65-3.86-1.86-5.13-3.56-1.52-2.04-2.28-4.07-2.28-6.13,0-2.63,1.25-5.29,3.74-8.03.34-.29,1.17-.88,1.45-.96,3.18-.69,10.67-.21,13.53,5.64.62,1.26.92,2.8.92,4.37,0,.75-.08,1.51-.22,2.24-.47,2.46-1.7,4.72-3.71,5.79-2.54,1.35-5.6,1.49-8.31.63Z" fill="#1c1c1b"/><path id="_Path_-4" d="M489.59,40.57h0c-1.9-.93-3.98-1.07-5.74-.4-.43.03-.85.11-1.23.22-3.44,1.01-5.44,4.73-4.65,8.64.41,2.03,1.8,4.57,3.98,5.66.68.34,1.36.58,2.03.74.59.14,1.17.21,1.76.21,1.35,0,2.7-.37,4.06-1.1,1.54-.82,2.69-2.22,3.31-3.93.36-.98.54-2.05.52-3.18-.06-3.05-1.6-5.69-4.04-6.88ZM491.1,51.08c-.36.62-.82,1.16-1.37,1.59-.22.17-.45.32-.69.45-1.66.89-3.23,1.12-4.84.7-.51-.13-1.01-.32-1.53-.58-1.44-.72-2.72-2.58-3.12-4.53-.62-3.08.89-6,3.52-6.77.3-.09.64-.14,1-.16l.26-.06c.58-.24,1.2-.36,1.85-.36.88,0,1.8.22,2.7.66h0c1.89.92,3.08,3.01,3.13,5.45.02.79-.1,1.54-.32,2.24-.15.49-.35.94-.59,1.36Z"/></g><g id="qld"><path id="_Path_-5" d="M750.56,216.97c-22.37,11.73-53.95,17.24-78.64,29.44-.08,7.74-.7,29.34,0,37.6.47,5.53.15,15.23-.21,24.53,3.67-6.9,8.73-14.24,12.54-19.76,2.67-3.87,5.2-7.52,5.19-8.19-.1-.31-1.53-1.13-2.67-1.79-4.74-2.74-13.57-7.83-8.64-16.83,2.27-4.14,10.99-4.7,17.76-3.91,8.99,1.04,18.79,4.71,20.41,10.55,1.44,5.17-7.02,21.35-16.04,35.09-7.35,11.21-17.55,24.52-22.1,25.15-1.21.17-2.32.25-3.34.25-1.42,0-2.64-.17-3.69-.5.03,6.25.21,15.6.37,25.42,3.67,3.89,5.25,9.73,4.4,17.13-.17,1.5-1.79,5.87-4.18,11.69-.04,4.23-.14,7.8-.33,10.31-.15,2.01-.25,4.69-.31,7.79,9.15-19.45,18.66-37.12,22.21-38.51,3.29-1.28,7-1.02,10.74.75,3.33,1.58,6.5,4.28,8.93,7.63,4.85,6.68,5.57,13.95,1.82,18.53-3.28,4.02-9.29,2.29-12.52,1.36-.66-.19-1.41-.41-1.65-.41h0c-1.25.89-5.21,11.11-9.4,21.92-4.72,12.18-10.36,26.74-15.84,38.23,5.97-.18,17.8-.49,26.92-.49,3.01,0,6.31.05,9.68.12,3.65-3.32,9.25-4.3,12.98.17.06.07.1.14.16.21,6.06.2,11.28.38,14.06.38h14.93s.88,27.66.88,36v.87c.05.41.05.82,0,1.23v29.24c1.62-.02,5.9-.06,11.7-.06.67-.97,1.73-1.71,3.25-2.01,2.83-.55,4.74.42,5.82,2.03,4.11.02,8.53.06,13.03.14,1.54-3.62,5.95-6.38,9.86-1.57.49.61.83,1.22,1.04,1.81,4.54.13,8.95.31,12.97.54,15.55.9,26.61-.04,36.67-.45.33-.72.82-1.38,1.53-1.94,3.3-2.63,6.75-.93,8.33,1.8,1.32.03,2.64.07,3.97.15,3.6.22,8.79.33,14.75.37-1.49-2.29-1.53-5.58.97-7.57,5.46-4.35,11.35,3.14,8.42,7.59,10.97-.03,22.88-.19,31.73-.3,1.46-1.11,3.44-1.41,5.61-.06,1.91-.02,3.55-.03,4.81-.03,0,0,12.66.69,18.21.8,5.55.11,6.68-.23,9.62-.11.35.01.75.02,1.16.02.27-.32.58-.62.95-.92,2.56-2.04,5.02-1.48,6.87.12.69-.19,1.3-.42,1.77-.7,2.26-1.36,1.92-3.73,1.92-3.73h3.85l-.45-4.07,3.85.91s3.62-5.43,4.3-5.66c.2-.07.67.03,1.22.19-.51-3.4,1.27-7.18,5.69-7.14,4.61.05,6.1,5.74,4.57,9.37,2.74-.52,6.84-2.88,6.84-2.88,0,0,2.83,2.04,5.77,2.38,2.94.34,6.68,2.38,6.68,2.38,0,0,1.7-.79,6.68.11,4.62.84,4.96,1.59,6.07,3.14.01.02.03.04.04.06.07.1.15.21.23.32,1.36,1.81,3.51,4.3,3.73,6.22.23,1.92.68,7.13.68,7.13,0,0,2.04-1.02,3.62-2.26,1.58-1.24,6.79-8.94,6.79-8.94,0,0,.42.49,1.02,1.14-.64-4.9,4.11-9.38,8.1-7.73-.04-1.34.08-2.62.5-3.59,2.94.45,6.22.23,6.22.23l5.77-6s2.34,1.09,4.86,2.27c-.38-2.78.9-5.74,4.43-6.55,5.02-1.15,7.96,3.72,7.1,7.61,1.01.23,1.97.45,2.62.63,2.94-1.47,5.66-3.51,5.66-3.51l5.27-.97c.02.21.03.41.05.61l.35-.06c-.16-1.67-.63-3.88-1.82-6.83-1.06-2.66-2.81-7.25-4.5-11.84-2.95.56-5.16-.99-6.24-3.15-2.27-.58-4.36-1.84-5.76-3.72-1.53-2.05-2.29-4.09-2.29-6.15,0-.01,0-.02,0-.03-2.29,1.31-5.23,1.78-6.81.82-6.12-3.71,3.72-17.58,9.35-7.35.36-.47.74-.95,1.18-1.43.32-.28,1.19-.9,1.48-.98,1.06-.23,2.6-.32,4.28-.14,3.38.37,7.34,1.87,9.25,5.78.62,1.26.92,2.8.92,4.37s-.3,3.05-.87,4.41c.42,1.49.35,3.1-.29,4.48,2.35-2.14,3.52-5.52,3.52-8.83,0-1.95-.4-3.86-1.18-5.46-2.26-4.62-7.06-6.67-11.36-7.1-.03-3.09-.16-6.22-.54-8.43-.97-5.65-.48-3.71-.48-3.71l.92-4.95c-5.06.23-10.62-6.67-5.88-9.96,2.35-1.63,4.66-1.76,6.55-1.06l-2.24-2.45-1.61.97s-4.2-3.88-4.04-5.81c.16-1.94,1.94-4.36,1.62-6.3-.32-1.94-2.75-6.3-9.85-6.46.81-1.78-.16-3.55-1.62-5.17,0-3.71-.16-6.14-.16-6.14,0,0-4.52-.16-6.95-2.75-2.42-2.58-7.59-9.05-10.01-13.08-2.42-4.04-5.49-6.62-6.95-5.98-1.45.65-5.01,1.62-5.01,1.62l-10.34-15.67-1.62,3.39s-3.07-2.1-3.07-3.55-.48-3.72-.97-6.78c-.48-3.07-.16-10.98-.32-14.05-.16-3.07-2.1-7.75-6.3-10.01.32,3.39.32,4.2-.16,5.65-1.45-.97-12.6-8.4-13.08-17.28-2.42,2.75-5.98,4.68-5.33,7.27.65,2.58,4.36,7.91,4.36,7.91,0,0-6.46-6.46-7.59-5.98l-1.13.48s-6.78-14.21-6.62-16.8c.16-2.58.81-5.81.32-7.27-.48-1.45-4.36-3.07-4.36-4.52s-.65-5.17-.65-5.17l-1.94,1.29s2.26-3.39.32-6.62c-1.49-2.48-3.93-2.1-4.98-1.8,2.86,5.61-6.66,10.87-9.71,6.25-2.4-3.63-.28-8.73,3.12-9.77l-.22-.02,2.26-2.1s-5.81-4.04-5.65-7.11c.04-.83.25-1.39.53-1.78-1.58.76-3.54.33-5.72-2.41-3.8-4.78-.45-7.29,3.2-8.18-1.6-.92-2.86-1.07-3.67-.71-1.45.65-1.94,1.78-1.94,1.78,0,0-5.24-8.93-9.39-8.61l-3.58,1.81-2.33-6.67s-1.5,3.17-1.33,4.83c-3.17-1.83-5-4.67-5-4.67,0,0,1.17.17-.17-2.67-1.33-2.83-4.33-8.33-4.33-8.33,0,0,.33,3.83-.5,4.33-.83.5-6.67.67-7.33-.33s-3.67-7-3.67-7l-1.33,3.67s-8.83-5-11-6.33c-.47-.29-1.04-.67-1.64-1.11-.63,2.27-2.19,4.26-4.87,5.34-12.28,4.96-17.37-11.73-9.25-16.28,3.82-2.14,7.16-1.89,9.67-.37.02-.87-.03-1.7-.25-2.4-.67-2.17-6.17-7.5-6.67-11.5s2-12.17,2-14.83-3.17-9.33-4.33-14c-1.17-4.67-.17-7.33-.17-7.33,0,0-4.42-.38-8.31-4.66-2.79-.23-4.66-1.58-5.56-4.04-1.13-3.12-.56-7.75.89-12.87-.38-.76-.93-1.59-1.78-2.43-.92-.92-1.38-2.03-1.6-3.16-3.25,5.39-6.28,9.79-7.74,10.3-2.9,1-5.37,1.5-7.4,1.5-2.35,0-4.11-.68-5.24-2.03-5.3-6.34,4.29-25.9,12.6-41.13-3.8-2.9-9.45-7.26-10.21-8.14-1-1.17-4.58-4.92-4.17-8.25-.21-.04-.59.02-1.05.14-25.89,53.48-54.99,98.64-97.88,121.13ZM699.18,339.74c-.46,0-.91-.04-1.35-.11-4.46-.73-6.74-3.21-6.78-7.4-.05-6.7,6.2-18.13,16.73-30.58,7.96-9.42,18.64-19.41,23.63-20.3,8.19-1.46,12.59,3.45,14.85,7.83,4.93,9.57,3.93,24.63-.41,28.88-2.18,2.14-4.41,3.1-6.61,2.85-4.22-.47-7.3-5.25-8.96-7.82-.36-.56-.76-1.18-.98-1.42-.59.43-2.33,2.8-4,5.1-5.95,8.14-16.78,22.96-26.12,22.96ZM759.84,411.69c6.42-5.11,13.44,6.14,6.02,9.57-6.26,2.89-10.82-5.74-6.02-9.57ZM741.13,403.49c-7.36-7.55,2.9-23.43,13.5-14.36,10.62,9.09-5.89,22.16-13.5,14.36ZM767.14,428.61c2.28-4.16,14.93,1.95,9.55,8.67-4.87,6.09-13.21-2-9.55-8.67ZM774.91,381.19c4.75-1.92,11.82,7.55,4.96,10.31-7.86,3.16-10.51-8.06-4.96-10.31ZM775.6,446.68c6.42-5.11,13.44,6.14,6.02,9.57-6.26,2.89-10.82-5.74-6.02-9.57ZM779.69,410.45c-5.09-5.04,1.5-13.23,7.53-8.43,6.59,5.23-1.77,14.14-7.53,8.43ZM794.78,356.49c-1.77,3.24-14.82-.27-8.71-7.82,5.85-7.23,11.76,2.25,8.71,7.82ZM797.33,377.55c-6.27,1.78-11.18-9.28-4.75-11.98,8.38-3.52,12.32,9.83,4.75,11.98ZM794.12,421.35c6.39.06,6.78,11,1.46,12.21-8.69,1.96-10.02-12.29-1.46-12.21ZM796.9,384.86c1.77-3.24,14.82.27,8.71,7.82-5.85,7.23-11.76-2.25-8.71-7.82ZM811.52,347.91c-4.16,1.73-11.06-6.09-6.12-9.67,7.32-5.31,12.75,6.92,6.12,9.67ZM819.61,359.17c6.11,7.55-6.94,11.06-8.71,7.82-3.05-5.57,2.86-15.05,8.71-7.82ZM805.41,403c8.7-6,15.38,7.02,5.82,9.47-5.19,1.33-10.32-6.37-5.82-9.47ZM814.96,423.03c7.55-6.1,11.07,6.94,7.83,8.71-5.57,3.04-15.06-2.86-7.83-8.71ZM819.78,387.88c-4.55-3.25-.57-15.66,7.2-10.33,6.62,4.54-.24,15.31-7.2,10.33ZM826.5,320.72c6.22-3.2,12.59,6.54,5.82,9.46-8.02,3.45-13.27-5.63-5.82-9.46ZM829.86,399.44c6.42-5.11,13.44,6.14,6.02,9.57-6.26,2.89-10.82-5.74-6.02-9.57ZM833.31,350.71c-5.57-6.55,4.35-10.41,8.68-7.8,4.58,2.76-.67,17.22-8.68,7.8ZM843.87,364.44c6.42-5.11,13.44,6.14,6.02,9.57-6.26,2.89-10.82-5.74-6.02-9.57ZM845.91,306.11c5.57-3.04,15.06,2.86,7.83,8.71-7.55,6.1-11.07-6.94-7.83-8.71ZM853.48,326.77c6.15-4.87,12.6,3.62,7.53,8.49-4.87,4.67-14.62-2.86-7.53-8.49ZM863.44,346.39c6.49-4.23,12.51,7.83,8.36,10.1-8.35,4.56-13.5-6.76-8.36-10.1ZM873.72,368.02c8.75-4.47,12.09,6.8,5.9,9.51-6.2,2.72-12.43-6.18-5.9-9.51ZM874.48,305.77c7.32-5.8,12.07,6.19,7.74,8.65-5.62,3.19-14.97-2.92-7.74-8.65ZM870.74,295.23c-7.52,1.73-10.4-10.09-2.76-11.84,7.52-1.73,10.4,10.09,2.76,11.84ZM863.7,275.88c-10.62,1.73-15.92-14.7-6.21-18.6,14.05-5.65,19.41,16.45,6.21,18.6ZM837.4,289.75c-8.47-8.46,5.51-23.76,14.37-13.48,8.42,9.77-6.59,21.26-14.37,13.48ZM828.67,307.4c-12.49,3.25-16.12-16.16-4.37-18.67,14-2.98,14.06,16.15,4.37,18.67ZM810.76,321c-6.84,1.99-9.02-3.98-12.3-4.57-.58,3.6,4.78,7.66-.71,14.17-11.9,14.11-29.77-19.63.71-14.17,5.17-32.24,30.6-.75,12.3,4.57ZM776.17,345.8c-11.81,3.36-16.25-9.39-10.53-14.94,10.57-10.27,25.31,10.73,10.53,14.94ZM760.6,364.94c-12.74,1.66-14.35-17.04-3.15-18.83,12.86-2.05,15.07,17.28,3.15,18.83ZM756.92,367.56c14.78,4.2.04,25.21-10.53,14.94-5.71-5.55-1.28-18.3,10.53-14.94ZM732.43,445.58c-12.28,4.96-17.37-11.73-9.25-16.28,12.62-7.08,20.04,11.92,9.25,16.28ZM732.38,424.49c-7.53-7.51,3.28-23.59,13.53-14.4,9.69,8.7-4.79,23.1-13.53,14.4ZM746.16,440.88c3.14-4.78,15.11-.1,9.53,6.9-4.46,5.6-13.12-1.43-9.53-6.9ZM764.79,458.59c4.04,4-1.12,13.72-7.59,8.48-7.17-5.8,2.92-13.1,7.59-8.48ZM762.26,510.4c-7.26,1.54-7.56-8.44-3.11-10.22,5.59-2.23,11.57,8.43,3.11,10.22ZM774.62,487.75c-6.25,2.89-10.82-5.74-6.02-9.57,6.42-5.11,13.44,6.14,6.02,9.57ZM785.12,507c-6.26,2.89-10.82-5.74-6.02-9.57,6.42-5.11,13.44,6.14,6.02,9.57ZM791.48,476.66c-4.89,2.45-8.83-6.39-6.89-9.6,3.76-6.21,18.03,4.02,6.89,9.6ZM802.53,498.16c-7.54,1.74-7.55-10.12-3.11-11.98,6.09-2.55,11.77,9.98,3.11,11.98ZM800.05,446.67c5.62-7.09,13.16,2.66,8.49,7.53-4.86,5.07-13.36-1.38-8.49-7.53ZM816.63,517.5c-6.25,2.89-10.82-5.74-6.02-9.57,6.42-5.11,13.44,6.14,6.02,9.57ZM818.38,475.5c-6.26,2.89-10.82-5.74-6.02-9.57,6.42-5.11,13.44,6.14,6.02,9.57ZM829.97,495.9c-5.03,2.18-8.78-6.17-6.84-9.55,3.69-6.42,16.74,5.25,6.84,9.55ZM833,450.75c-4.87,4.67-14.62-2.86-7.53-8.49,6.15-4.87,12.6,3.62,7.53,8.49ZM837.93,459.94c4.75-1.92,11.82,7.55,4.96,10.31-7.86,3.16-10.51-8.06-4.96-10.31ZM843.03,512.4c-4.16,1.73-11.06-6.09-6.12-9.67,7.32-5.31,12.75,6.92,6.12,9.67ZM844.48,431.72c-7.52,1.73-10.4-10.09-2.76-11.84,7.52-1.73,10.4,10.09,2.76,11.84ZM853.6,489.01c-8.5,0-7.21-11.61,0-11.61s8.5,11.61,0,11.61ZM858.99,449.57c-7.55,6.1-11.07-6.94-7.83-8.71,5.57-3.04,15.06,2.86,7.83,8.71ZM861.22,393.15c-2.46,4.34-14.45-.42-8.65-7.73,5.73-7.23,11.85,2.11,8.65,7.73ZM863.23,456.42c1.63-1.63,15.23.02,8.89,8.01-6.81,8.57-11.51-5.38-8.89-8.01ZM870.89,505.25c-6.26,2.89-10.82-5.74-6.02-9.57,6.42-5.11,13.44,6.14,6.02,9.57ZM864.82,415.42c-4.87-6.15,3.62-12.59,8.49-7.53,4.67,4.87-2.87,14.62-8.49,7.53ZM882.99,482.46c-7.51,1.78-10.35-10.18-2.87-11.73,7.03-1.46,11,9.8,2.87,11.73ZM884.83,436.93c-7.58,3.31-12.93-5.37-7.69-9.5,5.62-4.43,15.72,5.99,7.69,9.5ZM885.38,388.29c7.54-1.76,10.54,10.24,2.89,11.93-7.71,1.7-8.65-10.58-2.89-11.93ZM902.76,418.1c-5.74,4.95-12.77-3.52-7.55-8.45,6.97-6.58,14.57,2.41,7.55,8.45ZM905.99,372.27c7.32-5.8,12.07,6.19,7.74,8.65-5.62,3.19-14.97-2.92-7.74-8.65ZM891.43,358.24c-1.61-.88-1.39-6.77.61-8.55,11.56-10.29,13.07,16.03-.61,8.55ZM897.15,498.25c-6.25,2.89-10.82-5.74-6.02-9.57,6.42-5.11,13.44,6.14,6.02,9.57ZM900.65,458c-6.26,2.89-10.82-5.74-6.02-9.57,6.42-5.11,13.44,6.14,6.02,9.57ZM903.91,513.76c-4.54-4.94,2.62-14.67,8.54-7.55,4.48,5.38-4.25,12.22-8.54,7.55ZM907.79,479.38c-7.76-6.31,4.18-13.94,7.67-8.65,3.37,5.1-2.17,13.12-7.67,8.65ZM914.5,438.72c-8.09,1.9-9.04-10.21-2.87-11.93,7.1-1.97,10.87,10.05,2.87,11.93ZM951.52,405.78c-5.6-7.01,7.11-11.48,9.74-8.86,3.51,3.51-3.75,16.35-9.74,8.86ZM947.67,440.25c-5.42-5.48,4.57-14.48,9.32-8.44,4.35,5.53-4.56,13.25-9.32,8.44ZM940.67,384.26c-4.62-4.67,2.68-14.75,8.48-7.59,5.24,6.47-4.48,11.63-8.48,7.59ZM941.25,423.28c-4.75,6.03-13.31-1.87-9.49-8.58,3.03-5.33,14.48,2.24,9.49,8.58ZM932.03,363.47c-7.21,1.47-9.95-10.48-2.78-11.84,7.98-1.52,10.04,10.36,2.78,11.84ZM923.41,402.01c-6.25,2.89-10.82-5.74-6.02-9.57,6.42-5.11,13.44,6.14,6.02,9.57ZM922.64,444.93c6.42-5.11,13.44,6.14,6.02,9.57-6.26,2.89-10.82-5.74-6.02-9.57ZM923.16,494.45c-5.19-4.98,3.64-13.8,8.47-7.56,4.8,6.2-3.29,12.53-8.47,7.56ZM939.75,458.38c7.51-1.78,10.35,10.18,2.87,11.73-7.03,1.46-11-9.8-2.87-11.73ZM949.15,509.93c-5.8,7.16-13.11-2.92-8.48-7.59,4-4.04,13.72,1.12,8.48,7.59ZM956.88,483.76c-8.5,0-7.21-11.61,0-11.61s8.5,11.61,0,11.61ZM965.71,444.19c4.75-1.92,11.82,7.55,4.96,10.31-7.86,3.16-10.51-8.06-4.96-10.31ZM975.89,498.28c-6.73,2.92-13.58-7.84-5.85-11.33,6.33-2.86,13.06,8.2,5.85,11.33ZM972.24,422.75c-5.07-4.86,1.38-13.36,7.53-8.49,7.1,5.62-2.66,13.16-7.53,8.49ZM991.16,469.68c-5.85,7.23-11.76-2.25-8.71-7.82,1.77-3.24,14.82.27,8.71,7.82ZM990.86,439.93c-5.8-7.32,6.19-12.07,8.65-7.73,3.2,5.62-2.92,14.96-8.65,7.73ZM1004.47,402.44c7.26-1.54,7.56,8.44,3.11,10.22-5.59,2.23-11.57-8.43-3.11-10.22ZM1001.96,487.5c-5.43-5.66,1.64-15.52,8.48-7.61,5.34,6.17-4.47,11.79-8.48,7.61ZM1006.61,457.45c-5.63-6.52,4.44-10.44,8.64-7.75,5.79,3.72-1.15,16.42-8.64,7.75ZM1020.96,505.23c-3.24-1.77.28-14.81,7.83-8.71,7.23,5.84-2.25,11.75-7.83,8.71ZM1027.98,475.46c-5.14-3.35.01-14.66,8.36-10.1,4.15,2.27-1.87,14.33-8.36,10.1ZM1047.83,491.62c-7.76-6.31,4.18-13.94,7.67-8.65,3.37,5.1-2.17,13.12-7.67,8.65ZM1065.54,414.26c7.1,5.62-2.66,13.16-7.53,8.49-5.07-4.86,1.38-13.36,7.53-8.49ZM1057.53,458.17c-1.63,1.63-15.24-.02-8.89-8.01,6.81-8.57,11.51,5.38,8.89,8.01ZM1043.03,398.88c7.52-1.73,10.4,10.09,2.76,11.84-7.52,1.73-10.4-10.09-2.76-11.84ZM1035.08,435.71c8.58-5.61,12.16,7.78,8.31,10.08-5.91,3.54-13.79-6.5-8.31-10.08ZM1024.48,384.87c3.18-2.07,11.93,1.94,9.54,6.81-4.98,10.13-16.91-2.03-9.54-6.81ZM1025.31,421.29c6.24,4.83-2.57,13.66-7.56,8.47-4.98-5.18,1.36-13.27,7.56-8.47ZM1018.82,369.12c5.04,3.22.08,14.79-8.28,10.04-5.34-3.03,2.2-13.93,8.28-10.04ZM1000.64,349.66c7.6,0,8.1,11.89-.32,11.96-7.67.07-7.15-11.97.32-11.96ZM984.42,396.51c-5.1-4.69,2.94-13.14,7.86-7.92,5.88,6.24-3.17,12.23-7.86,7.92ZM982.57,330.71c5.1-3.37,13.12,2.17,8.66,7.67-6.31,7.76-13.94-4.18-8.66-7.67ZM971.65,308.44c6.42-5.11,13.44,6.14,6.02,9.57-6.26,2.89-10.82-5.74-6.02-9.57ZM978.46,370.96c5.48,3.59-2.39,13.62-8.31,10.08-3.85-2.3-.27-15.69,8.31-10.08ZM965.42,363.51c-6.25,2.89-10.82-5.74-6.02-9.57,6.42-5.11,13.44,6.14,6.02,9.57ZM957.92,334.68c4.87,6.15-3.62,12.59-8.49,7.53-4.67-4.87,2.87-14.62,8.49-7.53ZM947.25,319.93c-1.63,1.63-15.23-.02-8.89-8.01,6.81-8.57,11.51,5.38,8.89,8.01ZM935.51,300.47c-7.51,1.78-10.35-10.18-2.87-11.73,7.03-1.46,11,9.8,2.87,11.73ZM931.64,268.17c6.11,7.55-6.94,11.06-8.71,7.82-3.05-5.57,2.87-15.05,8.71-7.82ZM919.14,245.45c6.42-5.11,13.44,6.14,6.02,9.57-6.25,2.89-10.82-5.74-6.02-9.57ZM920.04,340.91c-5.3,2.25-11.92-8.95-4.95-12.06,8.12-3.62,10.55,9.68,4.95,12.06ZM913.99,314.68c-2.63,2.63-15.34-1.84-9.74-8.86,5.99-7.49,13.24,5.35,9.74,8.86ZM904.83,285.35c4.62,4.67-2.68,14.75-8.48,7.59-5.24-6.47,4.48-11.63,8.48-7.59ZM899.19,263.73c7.76,6.31-4.18,13.94-7.67,8.65-3.37-5.1,2.17-13.12,7.67-8.65ZM886.89,325.11c5.52.36,6.19,8.33,1.52,10.4-9.45,4.18-9.58-10.93-1.52-10.4ZM877.71,258.38c-11.51,1.65-15.65-16.76-2.98-18.95,15.78-2.73,13.54,17.43,2.98,18.95ZM865.75,186.53c5.46.34,10.59,4.73,13.7,11.76,3.43,7.74,3.44,16.13.02,20.4-2.11,2.64-5.41,3.61-9.53,2.8-4.16-.82-6.05-5.09-6.85-6.92-.13-.29-.27-.61-.35-.74-2.84-.87-18.39,12.51-33.42,25.45-22.37,19.25-47.66,41.02-57.43,41.02-.21,0-.41,0-.6-.03-3.72-.38-6.18-1.63-7.29-3.72-1.92-3.61.51-9.08,2.84-13.44,2.91-5.45,26.25-25.46,47.81-42.41,21.28-16.74,45.87-34.49,51.1-34.18ZM820.8,178.38c-.09-.2-.8-.94-1.49-1.66-3.3-3.47-9.44-9.92-7.41-14.34,1.43-3.11,6.47-4.39,15.42-3.93,12.58.65,19.66,4.18,21.06,10.49,2.82,12.78-18.5,34.43-36.89,50.34-20.54,17.78-43.64,33.76-49.76,36.99-4.15,2.19-8.63,4.25-12.11,4.25-1.27,0-2.4-.27-3.34-.91-2.29-1.56-3.1-4.97-2.48-10.42,1.04-9.16,25.03-27.34,46.2-43.38,15.71-11.9,31.96-24.21,30.79-27.43Z" fill="#d67847"/><path id="_Path_-6" d="M671.32,203.6c10.33-6.56,19.86,15.58,5.38,18.35-2.4.46-4.16.41-5.51.04,0,.45-.02.89-.02,1.31-.1,5.1,0,8.59.15,11.32,1.66-.83,3.36-1.66,5.14-2.48,69.39-32.14,90.36-21.76,134.49-94.78,6.74-11.14,13.25-23.08,19.64-35.6-.12-.26-.21-.52-.26-.81-.5-2.67.42-4.25-.58-6.17-1-1.92-5.25-7.42-6-9.5-.1-.28-.18-.72-.24-1.27-12.34,1.04-12.03-16.88-2.73-19.28.62-.16,1.22-.25,1.81-.3-.44-2.47-.93-4.74-.93-4.74l-2.75,1s.83-4.58.17-7.17c-.67-2.58-2.17-5.5-3.33-6.83s-5.5-1.5-5.75-5.25,3.08-5.08,4.58-5.25c.83-.42,0-1.5-3.92-1.83-3-.26-5.07-1.55-6.14-4.95-4.32-1.84-5.91-10.26-.54-11.89.11-1.25.15-2.2-.15-3-.75-2-2.67-8.42-8.67-7.17,2.42-3.08,3.58-5.08,1.17-6.08-2.42-1-3.92,2.25-4.67,3.25s-1.5,1.08-3.5,1.75c-2,.67-2.75,2.58-3.25,5.5-.5,2.92-3.17,18.58-3.17,22.25s-.17,5.75-.17,5.75l-3.08-3.83s-3.67,12.5-5.92,16c2.92.67,7.17,1.17,8.33,8.25-1.42-1.5-3.58-4.08-3.58-4.08,0,0-1.17,2.83-2.67,4.5-1.5,1.67-4.25,4.42-4.25,4.42,0,0,2.42,2.58,2.33,5.83s-.5,4.08-1.75,8c-.92,2.87-1.91,5.7-1.99,8.8,6.3-4.34,12.89,6.5,5.62,9.86-1.4.65-2.72.71-3.86.39.29,1.93.43,4.13.32,7.2-.25,6.75,0,24.67,0,24.67,0,0-3.58,4.33-4.25,7.33-.67,3-1.17,8.42-.25,12-.91,2.54-3.62,8.31-6.08,13.42,11.4-1.94,14.8,15.51,5.22,18.83-5.41,1.87-9.83-.2-12.23-3.57-.4,1.08-.77,2.11-1.08,3.03,1.56,2.71,1.63,6.38-1.08,10.62-3.67,5.73-9.51,4.9-13.54,1.55-2.69.34-5.67.38-8.8-.06,1.84,4.82.44,11.01-5.29,12.93-13.32,4.46-18.16-13.11-8.86-17.66.29-.14.57-.25.85-.37-1.04-.69-2.08-1.44-3.11-2.29-6.22-5.17-7.58-5.58-10-13.67,0,0,0-.01-.01-.03-.41.35-.89.67-1.46.93-3.87,1.79-7.09-.84-7.85-4-3.74.2-7.16.21-10.26-1.4-3.83-2-6.5-3.92-7.92-5.5-.77-.86-3.11-3.91-5.07-6.5.09,5.48.28,12.07.67,15.74.48,4.47.65,19.09.65,32.5ZM797.72,145.06c-12.57,8.03-19.9-8.25-12.83-15.44,9.47-9.63,24.21,8.17,12.83,15.44ZM822.68,93.75c3.2,13.51-12.03,9.55-13.72,10.97-.45.38,4.4,6.19,3.53,11.23-2.07,11.98-20.34,9.54-19.27-3.16,1.01-12.02,11.27-6.4,13.99-8.11.6-.38-6.41-6.05-2.61-13.97,3.73-7.78,15.92-6.06,18.08,3.05ZM797.69,39.89c9.27-.4,6.76,10.89,1.31,12.1-7.53,1.68-10.32-11.71-1.31-12.1ZM783.12,63.1c4.29-4.67,13.01,2.17,8.54,7.55-5.92,7.12-13.08-2.61-8.54-7.55ZM787.53,148.87c8.97,8.56-7.88,24.64-15.44,12.82-7.95-12.43,7.99-19.94,15.44-12.82ZM696.67,193.08c12.53-1.8,15.18,18.11,2.49,19.8-12.64,1.69-15.67-17.91-2.49-19.8ZM674.07,177.2c6.42-5.11,13.44,6.14,6.02,9.57-6.26,2.89-10.82-5.74-6.02-9.57Z" fill="#d67847"/><path id="_Path_-7" d="M1093.03,463.39c-3.17-6.47-11.34-7.93-16.13-6.9-1.08.23-2.56,1.53-2.65,1.62-2.92,3.19-4.38,6.45-4.38,9.67,0,2.54.91,5.07,2.73,7.51,1.63,2.18,3.95,3.69,6.5,4.47,1.27.38,2.59.6,3.92.6,2.06,0,4.13-.47,6-1.47,2.98-1.58,4.64-4.85,5.06-8.27.07-.59.12-1.18.12-1.78,0-1.95-.4-3.86-1.18-5.46Z" fill="#fff"/><path id="_Path_-8" d="M1093.03,463.39c-3.17-6.47-11.34-7.93-16.13-6.9-1.08.23-2.56,1.53-2.65,1.62-2.92,3.19-4.38,6.45-4.38,9.67,0,2.54.91,5.07,2.73,7.51,1.63,2.18,3.95,3.69,6.5,4.47,1.27.38,2.59.6,3.92.6,2.06,0,4.13-.47,6-1.47,2.98-1.58,4.64-4.85,5.06-8.27.07-.59.12-1.18.12-1.78,0-1.95-.4-3.86-1.18-5.46ZM1079.61,477.46c-2.03-.65-3.86-1.86-5.13-3.56-1.52-2.04-2.28-4.07-2.28-6.13,0-2.63,1.25-5.29,3.74-8.03.34-.29,1.17-.88,1.45-.96,3.18-.69,10.67-.21,13.53,5.64.62,1.26.92,2.8.92,4.37,0,.75-.08,1.51-.22,2.24-.47,2.46-1.7,4.72-3.71,5.79-2.54,1.35-5.6,1.49-8.31.63Z" fill="#1c1c1b"/><path id="_Path_-9" d="M1085.62,460.7h0c-1.9-.93-3.98-1.07-5.74-.4-.43.03-.85.11-1.23.22-3.44,1.01-5.44,4.73-4.65,8.64.41,2.03,1.8,4.57,3.98,5.66.68.34,1.36.58,2.03.74.59.14,1.17.21,1.76.21,1.35,0,2.7-.37,4.06-1.1,1.54-.82,2.69-2.22,3.31-3.93.36-.98.54-2.05.52-3.18-.06-3.05-1.6-5.69-4.04-6.88ZM1087.13,471.21c-.36.62-.82,1.16-1.37,1.59-.22.17-.45.32-.69.45-1.66.89-3.23,1.12-4.84.7-.51-.13-1.01-.32-1.53-.58-1.44-.72-2.72-2.58-3.12-4.53-.62-3.08.89-6,3.52-6.77.3-.09.64-.14,1-.16l.26-.06c.58-.24,1.2-.36,1.85-.36.88,0,1.8.22,2.7.66h0c1.89.92,3.08,3.01,3.13,5.45.02.79-.1,1.54-.32,2.24-.15.49-.35.94-.59,1.36Z"/></g><g id="sa"><path id="_Path_-10" d="M562.46,449.8c-.98.53-2.09.91-3.34,1.06-2.17.27-4.03-.1-5.55-.88-2.48.11-4.92.26-7.66.4,3.48,3.7,4.61,9.59.06,14.36-7.84,8.21-22.31-5.57-15.74-13.94-3.91.01-8.45-.03-13.87-.17-3.01-.07-5.94-.13-8.79-.17-.44.86-1.26,1.64-2.59,2.22-3.98,1.74-7.35.17-8.89-2.32-6.46-.01-12.4.04-17.77.13-.28.28-.58.56-.93.84-3.38,2.68-6.22,1.56-7.86-.66-7.16.17-12.93.37-17.15.47-7.23.16-14.65-.4-19.07-.82.34,4.23.7,8.8.8,12.77.1,3.71-.07,16.51-.3,31.29,1.03,2.71,1,5.9-.14,8.57-.07,4.3-.14,8.65-.21,12.89,51.92-17.79,108.92-27.58,147.41-65.7-4.36-.02-9.01-.08-14.33-.24-1.46-.04-2.8-.07-4.08-.08ZM450.55,501.66c-10.97,1.76-17.06-15.1-6.18-18.66,15.31-5.02,19.65,16.5,6.18,18.66ZM464.88,493.29c-12.61-7.84,3.69-24.65,12.81-15.44,6.88,6.96-.71,22.97-12.81,15.44ZM500.13,486.3c-11.57,7.41-20.32-7.8-12.83-15.45,9.43-9.63,24.23,8.14,12.83,15.45ZM517.24,478.77c-11.68.93-13.02-19.43-1.2-20.21,12.16-.79,14.04,19.18,1.2,20.21Z" fill="#d67847"/><path id="_Path_-11" d="M753.92,812.91c-.08-1.62-.16-3.34-.25-5.11-1.22-1.83-1.51-4.31-.3-6.26-.35-7.51-.66-14.41-.66-15.86,0-3.45.74-27.14,0-30.35-.74-3.21-.25-13.82.49-20.97.74-7.16.32-34.51.32-34.51l.03-.43s.15-.08.41-.19c-.08-3.8-.34-15.83-.5-27.5-8.05.95-7.32-10.5-1.03-12.12.31-.08.61-.12.91-.15-.03-5.46,0-9.94.14-12.13.2-3.46.33-15.67.37-30.12-.1.03-.19.06-.29.09-8.69,1.96-10.02-12.29-1.46-12.21.65,0,1.24.13,1.76.34,0-12.33-.06-25.01-.16-34.52-1.86.57-3.95.34-5.53-1.17-4.47-4.29.01-11.38,5.35-9.68-.01-.4-.02-.79-.03-1.14-.28-8.67-.09-19.3.15-27.17-4.43-3.56-2.72-6.53.29-8.18.08-1.86.13-2.95.13-2.95l.24-2.44s.14,0,.39,0v-27.95c-.45,1.1-1.35,2.09-2.82,2.77-6.25,2.89-10.82-5.74-6.02-9.57,3.72-2.96,7.64-.43,8.83,2.9-.05-9.17-.88-35.2-.88-35.2h-14.93c-2.7,0-7.68-.17-13.5-.36,7.04,9.45-6.11,22.15-14.01,13.96-4.76-4.94-3.29-10.83.32-14.36-3.38-.08-6.68-.12-9.7-.12-9.03,0-20.69.31-26.72.49-4.78,9.99-9.43,17.59-13.21,19.17-2.02.84-4.03,1.27-5.87,1.27-1.59,0-3.06-.32-4.31-.95-2.18-1.11-3.69-3.16-4.37-5.94-.48-1.97.76-7.09,3.06-13.96-2.9.01-6.48.05-10.38.09-.12.18-.23.35-.33.48-2.63,3.57-6.74,6.9-10.4,6.9-.34,0-.67-.03-1-.09-2.42-.44-4.16-2.43-5.16-5.94-.11-.37-.18-.79-.24-1.22-5.33,0-10.44-.03-14.62-.18-5.33-.18-10.08-.23-14.76-.24-.31.35-.62.7-.94,1.05-48.1,53.05-96.29,53.72-157.58,75.21-.64.22-1.27.47-1.9.7-.11,6.78-.2,12.79-.25,17.19-.22,19.92,0,26.64.22,35.95.14,5.87.01,18.89-.09,27.7,3.48-1.15,6.47-2.02,8.4-2.33,6.96-1.13,19.8-2.13,28.64-1.63,8.84.5,16.54-2.76,18.99-3.13s4.01-.56,8.65,1,13.47,4.14,19.68,6.14c4.28,1.38,9.64,3.46,13.7,5.56,1.08-.72,2.37-1.22,3.9-1.39,7.39-.84,10.37,4.88,9.67,10.24,1.64.84,3.15,1.43,4.24,1.51,3.2.25,4.39.5,5.76-1.19.06-.08.12-.15.19-.22-8.74-2.42-9.14-17.26,1.46-18.78,11.79-1.68,15.17,15.41,4.63,18.56,1.84,1.28,3.75,2.52,5.88,5.01-1.63,1.38-3.51,2.44-2.32,5.89,1.44-1.07,6.7-4.95,10.72,6.2-3.38.69-4.2,1-4.2,1,0,0-.9,2.38.16,5.45,1.52-.09,3.12.43,4.45,1.81,1.21,1.26,1.59,2.84,1.42,4.37.11.03.22.06.31.09.94.31,5.33.75,6.89,2.19,1.57,1.44,2.63,2.82,4.76,8.02,2.13,5.2,7.52,10.46,9.15,13.85.15.31.32.69.51,1.09.37.4.72.86,1.05,1.4,1.02,1.67,1.38,3.08,1.29,4.26,1.42,3.78,2.81,8.2,3.17,11.68-.47.54-.84.96-1.14,1.28,4.11-.22,8.98,3.95,6.1,8.86-.4.68-1.06,1.12-1.84,1.34.45.7.83,1.25,1.09,1.55,1.38,1.63,2.51,3.95,3.2,3.63s2.51-2.76,2.88-2.44c.38.31,3.76,3.26,3.76,3.26,0,0,2.38-4.7,3.01-7.52-2.13-.06-2.63-.13-2.63-.13,0,0-2.01-3.2.25-5.7,2.26-2.51,3.95-2.57,5.64-.56-.11-1.21-.11-2.34-.02-3.41-2.63-4.22.45-8.31,4.25-8.63,2.91-3.57,7.61-9.36,11.19-11.33,4.2-2.32,6.83-3.26,9.96-4.01s3.57-1.13,4.89-4.2c.61-1.42,1.24-3.63,1.92-5.91-1.88-2.52-2.05-6.5.21-7.97,1.34-.87,2.6-1.26,3.74-1.29,1.65-2.97,3.61-6.06,6.59-3.82.38-3.76,1.88-13.97,1.88-13.97,0,0,2.01,9.15,3.32,11.15,1.32,2.01,4.07,7.21,4.07,7.21,0,0-4.14,3.76-4.76,4.32-.63.56-1.63,1.19-1.25,2.26s2.82,5.76,3.26,6.83c.38.92-.55,2.85-1.65,4.25,4.24,1.4,5.99,8.7,1.05,10.75-2.59,1.08-6.24-1.55-7.44-4.54-1.4,1.49-2.65,3.04-3.24,4.38-1.45,3.31-2.03,8.55-1.86,13.99,1.79,2.12,2.32,5.37.21,7.52-.02,2.09-.14,3.55-.29,4.75-.25,2.13-1.07,4.64-4.07,4.45-3.01-.19-5.26-.94-7.58,2.01-2.32,2.95-2.82,5.45-3.07,6.33-.25.88-.44,2.38.94,2.44,1.38.06,2.88-.63,4.57-1.75,1.3-.87,3.67-2.58,5.64-3.7.18-1.36,1.13-2.66,3.18-3.54,2.71-1.17,5.13-.39,6.72,1.14,1.94-4.32,4.97-11.46,5.95-14.39.21-.63.47-1.49.77-2.48-.39-.28-.74-.62-1.01-1.04-2.28-3.46.35-7.54,3.72-8.66.51-1.87.85-3.18.85-3.18,0,0,1.16,1.07,2.72,3.22.8.32,1.57.87,2.24,1.71,1.32,1.66,1.65,3.18,1.36,4.49.32.68.63,1.39.93,2.13-.8.46-1.52,1.09-1.58,1.16-2.92,3.19-4.38,6.45-4.38,9.67,0,1.17.2,2.33.58,3.48-.04-1.49.5-2.99,1.78-4.12.18-2.43,1.41-4.88,3.71-7.41.17-.14.46-.36.74-.55.29-.2.57-.37.71-.4,3.18-.69,10.67-.21,13.53,5.64.62,1.26.92,2.8.92,4.37,0,3.25-1.31,6.65-3.92,8.03-2.78,1.47-6.17,1.51-9.06.37-.32-.13-.63-.29-.94-.45-1.58.57-3.03.42-4.23-.19,1.36,1.37,3.01,2.39,4.81,3.02-.35,1.96-.88,3.93-1.65,5.74,2.52-1.68,6.26-1.75,7.67.42,1.42,2.18,1.56,4.14.97,5.71,1.19-.49,1.39-.75,1.39-.75,0,0,9.17,5.49,15.87,13.06-.73-4.44,2.93-12,9.75-7.54,5.19,3.39-1.58,12.54-7.33,10.53.1.14.21.28.31.43,1.79,2.52,3.29,4.96,4.55,7.26,3.28,1.01,5.89,4.42,3.71,7.81,1.01,2.53,1.65,4.56,2.01,5.86.94,3.38-1.07,5.2-1.07,5.2,0,0-1.28,1.28-1.9,3.08.43,1.22.49,2.54.04,3.73.36.87,1.02,1.75,2.11,2.59-.63,2.51-.63,3.32.56,5.45,1.19,2.13,8.21,12.6,10.72,15.48,2.51,2.88,4.32,6.02,9.15,8.71,4.11,2.3,7.99,2.37,11.07,3.15-.48-.19-.63-1.17-1.16-1.31ZM437.57,569.47c-1.28-3.76,2.81-9.3,10.67-14.43,5.92-3.87,25.18-9.2,42.17-13.91,11.85-3.28,24.09-6.67,25-7.89,0-.4-.89-1.84-1.68-3.11-2.36-3.82-5.94-9.6-4.7-14.3.51-1.95,1.82-3.53,3.9-4.67,5.64-3.11,17.72,1.31,25.35,9.28,6.34,6.63,7.82,13.98,4.05,20.16-3.46,5.66-30.94,15.62-42.6,19.64-20.47,7.06-41.3,12.95-47.41,13.42-1.36.1-2.59.15-3.72.15-7.78,0-10.32-2.27-11.01-4.33ZM538.44,596.9c-.84.11-1.63.16-2.37.16-2.82,0-4.92-.78-6.26-2.33-3.24-3.74-1.21-11.03-.12-14.95.26-.93.55-1.98.56-2.34-1.14-.56-9.33,2.34-17.25,5.14-19.11,6.76-48,16.97-58.92,10.91-2.77-1.54-4.38-3.39-4.77-5.49-.42-2.27.58-4.88,2.98-7.73,2.95-3.52,77.39-25.5,84.63-26.06,14.93-1.17,18.76,5.25,19.34,10.84,1.31,12.64-12.24,31.14-17.82,31.86ZM749.55,651.65c-6.35,4.99-13.91-6.45-8.58-9.48,6.71-3.82,14.61,4.74,8.58,9.48ZM703.09,680.34c5.52.36,6.19,8.33,1.52,10.4-9.45,4.18-9.58-10.93-1.52-10.4ZM690.14,598.96c4.47,5.5-3.55,11.03-8.65,7.67-5.29-3.49,2.35-15.43,8.65-7.67ZM692.64,557.71c7.76,6.31-4.18,13.94-7.67,8.65-3.37-5.1,2.17-13.12,7.67-8.65ZM692.16,614.39c5.05-5.09,13.23,1.49,8.44,7.53-5.23,6.59-14.14-1.77-8.44-7.53ZM702.47,545.36c-3.37-5.1,2.17-13.12,7.67-8.65,7.76,6.31-4.18,13.94-7.67,8.65ZM716.85,598c-6.25,2.89-10.82-5.74-6.02-9.57,6.42-5.11,13.44,6.14,6.02,9.57ZM704.95,580.81c-6.47,5.24-11.64-4.48-7.59-8.48,4.68-4.62,14.76,2.68,7.59,8.48ZM700.22,664.87c4.45,6.81-7.67,11.13-10.28,8.54-4.63-4.6,5.63-15.65,10.28-8.54ZM702.21,632.3c9.37-4.12,11.73,6.79,5.88,9.46-5.82,2.65-12.57-6.51-5.88-9.46ZM713.44,650.5c6.15-4.87,12.6,3.62,7.53,8.49-4.87,4.67-14.62-2.86-7.53-8.49ZM722.69,603.61c8.09-1.9,9.04,10.21,2.87,11.93-7.1,1.97-10.87-10.05-2.87-11.93ZM727.11,582c-4.82-4.76,2.91-13.66,8.44-9.32,6.04,4.75-2.96,14.74-8.44,9.32ZM723.21,528.97c-2.33-5.74,8.03-9.74,10.31-5.87,4.12,7.02-7.6,12.52-10.31,5.87ZM737.09,541.18c6.42-5.11,13.44,6.14,6.02,9.57-6.26,2.89-10.82-5.74-6.02-9.57ZM731.84,623.42c6.42-5.11,13.44,6.14,6.02,9.57-6.25,2.89-10.82-5.74-6.02-9.57ZM739.51,715.15c-6.75,1.55-8.12-7.75-2.98-10.08,7.94-3.59,10.61,8.32,2.98,10.08ZM742.94,599.62c-7.62,2.23-10.06-6.24-5.84-9.43,7.74-5.86,16.05,6.45,5.84,9.43ZM748.36,514c-6.25,2.89-10.82-5.74-6.02-9.57,6.42-5.11,13.44,6.14,6.02,9.57ZM742.24,467.13c3.3,5.13-5.08,13-9.88,8.13-6.23-6.33,6.2-13.85,9.88-8.13ZM724.84,486.93c6.42-5.11,13.44,6.14,6.02,9.57-6.26,2.89-10.82-5.74-6.02-9.57ZM723.85,564.75c-6.25,2.89-10.82-5.74-6.02-9.57,6.42-5.11,13.44,6.14,6.02,9.57ZM719.5,515.73c-5.37,2.97-13.75-2.69-10.1-8.35,4.8-7.44,16.02,5.08,10.1,8.35ZM715.27,470.47c9.19,10.24-6.89,21.05-14.4,13.52-8.71-8.73,5.7-23.21,14.4-13.52ZM705.25,490.09c7.88,7.52-4.12,22.15-14.48,13.62-9.12-7.51,4.43-23.21,14.48-13.62ZM687.71,507.48c11.34-1.36,14.03,15.49,4.48,18.61-15.77,5.14-17.12-17.09-4.48-18.61ZM683.07,530.67c7.61,11.88-8.46,19.78-15.46,12.81-9.62-9.59,8.21-24.13,15.46-12.81ZM674.72,590.96c-7.81,1.86-9.27-11.54-1.37-12.15,9.02-.69,7.12,10.78,1.37,12.15ZM651.86,547.85c8.53-8.3,23.25,5.25,14.88,13.14-9.63,9.07-23.28-4.97-14.88-13.14ZM612.73,615.85c4.12,7.02-7.6,12.52-10.31,5.87-2.33-5.74,8.03-9.74,10.31-5.87ZM598.43,582.72c11.06-1.62,15.34,15.59,4.43,18.62-13.46,3.73-17.03-16.76-4.43-18.62ZM613.34,588.98c-9.6-10.05,6.1-23.59,13.62-14.47,8.53,10.35-6.09,22.35-13.62,14.47ZM623.53,628.67c5.6,4.46-1.43,13.12-6.91,9.52-4.78-3.14-.1-15.1,6.91-9.52ZM623.62,605.36c3.18-2.07,11.93,1.94,9.54,6.81-4.98,10.13-16.91-2.03-9.54-6.81ZM641.93,620.77c7.23,5.84-2.26,11.75-7.83,8.71-3.24-1.77.27-14.81,7.83-8.71ZM645.37,591.18c4.75-1.92,11.82,7.55,4.96,10.31-7.86,3.16-10.51-8.06-4.96-10.31ZM664.66,608.65c2.4,4.88-6.36,8.88-9.54,6.81-7.37-4.79,4.56-16.95,9.54-6.81ZM643.15,576.87c-11.78,1.74-16.84-17.79-2.89-18.94,13.07-1.08,14.41,17.23,2.89,18.94ZM634.86,492.94c5.16.3,9.04,3.96,11.21,10.59,3.36,10.23,1.52,25.52-3.58,29.74-3.8,3.15-7.09,4.25-9.79,3.27-5.02-1.82-6.57-10.14-7.39-14.61-.16-.86-.33-1.75-.44-2.1-.84.27-3.78,2.75-6.64,5.15-7.71,6.5-18.93,15.94-25.93,15.95-.87,0-1.68-.15-2.4-.46-2.31-1.01-3.59-3.65-3.8-7.85-.21-4.16,4.93-10.17,9.28-14.48,5.78-5.74,13.91-12.18,21.74-17.22,8.12-5.23,14.58-8.14,17.75-7.95ZM566.91,511.61c.62-8.73,15.79-19.7,24.85-26.25,3.21-2.32,6.53-4.72,6.7-5.34-.03-.39-1.4-.61-2.61-.8-2.16-.35-4.86-.78-6.2-2.72-4.12-5.95-2.71-9.81-.81-12,4.78-5.48,17.55-6.2,26.8-1.5,4.74,2.41,12.29,8.24,9.58,20.25-1.74,7.69-29.8,30.26-45.69,35-2.07.62-3.88.93-5.44.93-2.07,0-3.68-.55-4.81-1.64-1.74-1.68-2.54-3.67-2.38-5.92ZM574.41,595.55c13.63-6.4,18.99,12.48,9.23,16.27-11.98,4.64-19.05-11.65-9.23-16.27ZM589.41,635.07c-7.32,5.8-12.07-6.19-7.74-8.65,5.62-3.19,14.97,2.92,7.74,8.65ZM599.92,649.06c-6.47,5.24-11.64-4.48-7.59-8.48,4.67-4.62,14.76,2.68,7.59,8.48ZM610.07,662.74c-6.25,2.89-10.82-5.74-6.02-9.57,6.42-5.11,13.44,6.14,6.02,9.57ZM624.4,675.16c-4.3,9.9-15.98-3.15-9.56-6.84,3.38-1.94,11.74,1.81,9.56,6.84ZM632.17,653.39c-5.03,2.18-8.78-6.17-6.84-9.55,3.69-6.42,16.74,5.25,6.84,9.55ZM637.84,667.74c-6.23-6.33,6.2-13.85,9.88-8.13,3.3,5.13-5.08,13-9.88,8.13ZM653.67,646.95c-6.88,1.33-10.68-9.3-4.65-11.89,7.69-3.3,12.94,10.29,4.65,11.89ZM663.96,629.36c-5.14-7.9,6.38-12.97,9.44-6.73,3.52,7.19-6.85,10.71-9.44,6.73ZM674.98,642.12c-7.76-6.31,4.18-13.94,7.67-8.65,3.37,5.1-2.17,13.12-7.67,8.65ZM683.11,659.24c-4.86-2.72,1.6-13.98,8.4-10.17,4.86,2.72-1.6,13.98-8.4,10.17ZM704.24,708.12c-5.29-3.49,2.35-15.43,8.65-7.67,4.47,5.5-3.56,11.03-8.65,7.67ZM709.61,725.49c-4.04-4,1.12-13.72,7.59-8.48,7.17,5.8-2.92,13.1-7.59,8.48ZM720.17,668.58c4.87-4.67,14.62,2.86,7.53,8.49-6.15,4.87-12.6-3.62-7.53-8.49ZM728.34,688.17c6.42-5.11,13.44,6.14,6.02,9.57-6.25,2.89-10.82-5.74-6.02-9.57ZM733.98,799.1c-3.37-5.1,2.17-13.12,7.67-8.65,7.76,6.31-4.18,13.94-7.67,8.65ZM745.95,780.15c-2.63,2.63-15.34-1.84-9.74-8.86,5.99-7.49,13.24,5.35,9.74,8.86ZM737.94,757.56c-7.23-5.73,2.11-11.84,7.74-8.65,4.34,2.46-.42,14.45-7.74,8.65ZM744.86,734.49c-6.25,2.89-10.82-5.74-6.02-9.57,6.42-5.11,13.44,6.14,6.02,9.57Z" fill="#d67847"/><path id="_Path_-12" d="M701.31,702.18c-3.17-6.47-11.34-7.93-16.13-6.9-1.08.23-2.56,1.53-2.65,1.62-2.92,3.19-4.38,6.45-4.38,9.67,0,2.54.91,5.07,2.73,7.51,1.63,2.18,3.95,3.69,6.5,4.47,1.27.38,2.59.6,3.92.6,2.06,0,4.13-.47,6-1.47,2.98-1.58,4.64-4.85,5.06-8.27.07-.59.12-1.18.12-1.78,0-1.95-.4-3.86-1.18-5.46ZM687.9,716.25c-2.03-.65-3.86-1.86-5.13-3.56-1.52-2.04-2.28-4.07-2.28-6.13,0-2.63,1.25-5.29,3.74-8.03.34-.29,1.17-.88,1.45-.96,3.18-.69,10.67-.21,13.53,5.64.62,1.26.92,2.8.92,4.37,0,.75-.08,1.51-.22,2.24-.47,2.46-1.7,4.72-3.71,5.79-2.54,1.35-5.6,1.49-8.31.63Z" fill="#1c1c1b"/><path id="_Path_-13" d="M693.91,699.49h0c-1.9-.93-3.98-1.07-5.74-.4-.43.03-.85.11-1.23.22-3.44,1.01-5.44,4.73-4.65,8.64.41,2.03,1.8,4.57,3.98,5.66.68.34,1.36.58,2.03.74.59.14,1.17.21,1.76.21,1.35,0,2.7-.37,4.06-1.1,1.54-.82,2.69-2.22,3.31-3.93.36-.98.54-2.05.52-3.18-.06-3.05-1.6-5.69-4.04-6.88ZM695.42,710c-.36.62-.82,1.16-1.37,1.59-.22.17-.45.32-.69.45-1.66.89-3.23,1.12-4.84.7-.51-.13-1.01-.32-1.53-.58-1.44-.72-2.72-2.58-3.12-4.53-.62-3.08.89-6,3.52-6.77.3-.09.64-.14,1-.16l.26-.06c.58-.24,1.2-.36,1.85-.36.88,0,1.8.22,2.7.66h0c1.89.92,3.08,3.01,3.13,5.45.02.79-.1,1.54-.32,2.24-.15.49-.35.94-.59,1.36Z"/></g><g id="wa"><path id="_Path_-14" d="M223.45,580.72c-51.22,5.28-53.73,50.62-80,84.52-17.75,22.9-38.63,33.42-60.9,39.95,2.59,3.24,7.92,4.88,11.72,5.91-.04-1.44.18-2.92.86-4.32,1.1-2.26,3.27-3.95,6.44-5,3.66-1.22,9.47-.44,15.54,2.09,6.16,2.56,11.26,6.42,13.66,10.32.53.87.93,1.73,1.2,2.59,1.95-.32,4.15-.42,6.57.06-.67-1.57-1.12-2.47-1.12-2.47h5.4s2.92-5.17,5.4-2.47c.07-.4.13-.76.17-1.09-6.16-8.28,6.2-22.73,16.22-34.43,5.46-6.38,10.18-11.89,10.15-14.47-.02-2.01-1.35-2.37-3.7-2.83-2.26-.44-5.07-.99-6.4-4.2-1.92-4.67-1.01-9.05,2.57-12.32,6.22-5.69,18.86-6.94,27.04-2.68,5.8,3.02,8.52,8.38,7.64,15.08-.43,3.27-7.57,15.27-16.57,27.54,1.02-.48,2.2-.95,3.54-1.39.45-.15.9-.27,1.34-.38,12-13.8,19.75-19.22,23-19.67,5.55-.77,10.54,2.17,14.04,8.29,1.26,2.21,2.24,4.66,2.94,7.18,4.38.69,6.83,1.66,8.92,1.22,3.15-.67,5.76-2.01,5.76-2.01,0,0,2.33,5.54,4.57,5.77,2.25.22,4.1-1.28,5.45-2.63,3.37.45,4.83,1.32,4.83,1.32,0,0,6.64-5.45,12.22-3.01,4.31,1.89,6.16,4.15,6.16,4.15,0,0,.42-2.58,2.11-2.64,1.69-.06,4.83.06,5.89-.56,1.07-.63,12.53-11.59,13.1-12.53.56-.94,1.38-2.07,1.57-5.33.18-3.09,1.1-9.99,7.48-12.25.25-1.36.56-2.7.84-3.89.34-1.45.77-3.26.64-3.65-1.37-1.14-10.86,1.06-20.9,3.38-18.77,4.34-44.48,10.29-53.22,4.09-1.8-1.28-2.84-3.03-3.08-5.21-.17-1.58.54-3.14,2.11-4.64,7.32-6.99,31.82-11.7,45.78-13.88,20.12-3.15,39.23-4.39,44.46-3.57,10.12,1.58,12.3,7.39,12.35,11.98.01,1.07-.11,2.2-.33,3.36.44-.31.88-.62,1.35-.96,6.64-4.83,17.8-12.28,25.06-9.46,1,.19.81-.56.81-.56,0,0,9.09,1.57,12.85,1.5,3.47-.06,18.1-2.79,26.94-6.02.11-.39.22-.78.26-1-.84-.15-4.61.47-8.26,1.06-11.38,1.85-30.43,4.95-35.41-1.04-1.43-1.72-1.63-4.07-.59-6.97.71-1.99,3.41-3.97,8-5.9,14.75-6.2,46.99-10.7,53.9-7.53,4.38,2.01,6.61,6.04,6.47,11.65,0,.05,0,.1-.01.15,1.67-.6,3.3-1.17,4.83-1.68,0-.41.01-.84.02-1.27-.19.06-.38.12-.57.19.06-.02.12-.04.18-.06.11-8.79.25-22.81.11-28.97-.22-9.31-.43-16.03-.22-35.95.04-4.11.13-9.64.23-15.9-29.64,10.84-55.93,28.98-86.1,38.53-46.38,14.68-77.99,10.28-123.33,14.95ZM330.66,607.08c-2.47,5.52-42.15,12.03-54.25,13.89-19.84,3.06-42.83,5.68-54.01,5.68-2.6,0-4.56-.14-5.7-.45-4.42-1.22-7.21-3.29-8.06-5.99-.83-2.64.23-5.84,3.05-9.24,7.7-9.26,42.03-10.74,64.75-11.72,8.96-.39,16.7-.72,17.59-1.44.48-.38-.45-2.08-1.27-3.57-1.22-2.23-2.75-4.99-2.12-7.2.76-2.67,2.79-4.41,5.88-5.04,8.62-1.74,24.53,5.42,31.53,14.18,3.14,3.93,4.04,7.69,2.6,10.89ZM364.72,581.71c2.6-1.26,7.65-2.4,12.11-3.42,3.62-.82,7.36-1.67,8.21-2.28.06-.4-.4-1.93-.81-3.29-1.44-4.79-3.86-12.79.17-16.58,3.23-3.04,9.71-2.7,19.82,1.03,14.16,5.23,20.82,11.1,19.8,17.45-1.38,8.53-16.52,15.41-25.43,18.75-10.26,3.85-25.78,7.91-35.59,8.24-.82.03-1.6.04-2.35.04-7.63,0-11.85-1.41-12.54-4.2-1.1-4.46,7.74-11.44,16.63-15.74Z" fill="#d67847"/><path id="_Path_-15" d="M434.25,343.13c.04-1.05.03-2.8,0-4.99-2.59-1.96-3.84-6.25-1.2-8.99.31-.32.63-.59.96-.83-.33-11.12-.84-24.77-.84-29.38,0-4.2.21-23.95.39-41.64-3.29-2.75-4.33-8.76.11-10.7.09-8.74.15-15.77.15-18.25,0-6.47.14-10.96-.03-14.85-5,.3-7.11-9.35-4.59-10.74,1.74-.96,3.37-1,4.76-.47.08-1.47.08-3.05-.13-4.9-.65-5.63,0-20.57-.65-26.2-.13-1.14-.2-2.9-.23-4.98-2.28,2.07-6.03,2.98-8.79,1.21-6.7-4.31,2.56-15.19,8.79-9.32.05-6.98.17-14.21-.2-15.92-.65-3.03,0-5.85,0-9.53s-1.08-9.31-.65-12.13c.35-2.26,1.67.07.83-4.86-.44,0-.93,0-1.44-.01-.45.43-1.02.82-1.7,1.14-3.41,1.58-6.31-.28-7.48-2.9-2.25-.6-4.26-1.14-4.26-1.14,0,0,.92,5.8,2.9,7.38-.53-.53-6.06-1.45-7.25-1.32.26,3.95,1.19,10.68,2.37,14.63-4.48-5.54-9.09-12.52-3.69-22.01l-2.9-3.43s-1.71,1.85-3.03.92-4.48-4.48-6.46-7.51c-1.98-3.03-8.96-11.2-11.73-12.13-2.77-.92-4.61-.4-4.61-.4,0,0-3.16-4.35-6.19-4.22-3.03.13-5.01,1.05-5.01,1.05,0,0,.26,3.69,2.24,5.54-1.85,1.58-5.01,4.88-5.8,7.25-1.98-1.32-3.95-4.35-1.45-8.04-1.32.26-6.19,5.14-8.96,5.01-2.77-.13-6.59-1.58-6.59-1.58,0,0,1.85,1.45,1.32,3.69-.53,2.24-1.98,8.96-1.71,10.94,0,0-6.03-1.62-6.59-7.78l-2.05-1.12s-1.12,5.97-2.98,7.65c-1.87,1.68-8.21,4.85-8.39,6.72s0,5.41,5.6,5.22l-.75,4.48s-5.97,1.49-6.71.56c-.75-.93-1.68-3.73-1.68-3.73,0,0-4.85,4.48-5.6,6.34,4.66,2.61,6.53,2.98,6.53,2.98,0,0-4.29-.93-7.09.19-2.8,1.12-6.53,4.85-8.21,5.97-1.68,1.12-3.73,5.04-1.12,10.63l1.87-.37s.56,3.73-.37,6.16l-.93-1.49-4.29,7.83s-16.41-7.27-18.47-8.02c-2.24,2.98-4.66,11.56-4.48,13.06,5.97,2.61,5.78,2.42,10.45,15.3-1.68-1.12-4.85-4.85-7.65-4.1,1.12,4.85.19,12.12-1.49,13.8-.4-.65-.93-1.54-1.55-2.6-.31.22-.64.42-1.03.6-6.25,2.89-10.82-5.74-6.02-9.57.59-.47,1.19-.81,1.79-1.02-2-4.39-3.39-8.64-2.52-10.72-2.42-.19-6.72-4.48-2.8-5.78-1.31-2.24-2.42-4.29-2.42-4.29,0,0-.69,1.14-1.66,2.8.97,3.24.07,7.02-3.9,7.62-.11.02-.23.02-.34.03-.38.73-.72,1.43-1.01,2.06-2.98.37-3.92.37-3.92.37,0,0-2.98,2.98-.37,6.16-1.49.19-5.22,1.49-9.33,6.16-3.45,3.92-2.68,7.7-2.24,10.25,3.6,1.67,3.81,7.45.35,9.61-.07.73-.18,1.36-.35,1.78l4.48.19.56,4.85s-11.1,6.35-13.47,8.23-4.25,3.88-3.25,6.25c-2.25,1-3.25,1.12-3.25,1.12,0,0-1.62,11-4.5,14.25-.82.92-2.11,2.21-3.64,3.61,4.6.78,7.55,8.15,1.79,10.81-4.49,2.07-8.11-1.78-8.02-5.54-2.33,1.79-4.62,3.34-6.38,4.12-4.75,2.12-21.5,9.12-26.12,10s-7,1.88-8.5,1-3.62-2.62-7.75-1.88-9.62,5.75-13.88,7.88-14,5.38-15,2c-1.88,1-7.75,5.75-9.5,7.25-.13.11-.3.24-.49.38,3.36,1.43,5.11,6.28,1.73,9.53-4.16,3.99-11.88-.93-9.61-5.95-1.6.32-3.15.3-4.38-.34-3.88-2-3.12-2.62-4.88-2.25s-2.88.62-3.75,1.38-1.88,2-3.12,1.38-2.12-2-2.12-2l.46-4.17s-.09-.07-.14-.11c-.66.81-3.19,3.75-6.82,5.78-4.25,2.38-7.88,3.38-9.75,4.38s-6.25,5.75-8.5,7.62-5,2.88-6,4.12-2.25,4.38-4.12,5.5-5.62,3.62-10.75,4.38-12.38,4.25-14.25,10.62l-2.21-.83s-1.37,5.47-3.23,10.57c-.44,1.19-.84,2-1.23,2.57-.12,2.35-1.38,4.45-4.25,4.88-5.04.76-8.75-9.95-3.18-12.09.37-.14.73-.23,1.08-.28-.01-.34-.02-.65,0-.92.12-2.61,2.36-8.46,2.36-8.46l-5.97,1s-3.36,6.72-5.6,14.43c-2.24,7.71-.5,18.04.62,25.13,1.12,7.09-.5,10.33-.5,10.33,0,0-3.44,2.31-6.41,7.96,4.13,1.16,5.92,8.22,2.7,10.05-1.52.87-3.32,1.04-4.99.73.21,4.64,1.53,9.24,2.86,12.49,1.16,2.83,2.68,7.16,4.21,11.41,6.82-2.38,9.27,7.04,3.76,9.82.08.18.16.37.24.54,2.36,5.23,5.72,9.58,9.95,12.69,1.05,4.8-.42,10.58-2.2,14.89,6.82,3.17,8.87,14.66.93,17.83l1.39,21.14c-4.48,6.1-1,17.54,3.23,21.77,1.14,1.14,2.01,2.15,2.7,3.11,2.36.22,4.63,1.44,6.32,4.08,3.18,4.96,2.22,9.22-.47,12,.61,1.31,1.31,2.62,2.15,3.96,2.47,3.96,5.43,11.1,6.08,15.59,3.38,1.17,6.21,4.61,2.77,8.96-.77.98-1.55,1.64-2.32,2.06.09,4.7.25,10,.81,14.57,1.12,9.08,5.97,14.18,10.33,21.9,4.35,7.71,7.59,16.05,8.46,19.03.14.49.3,1.01.47,1.57-1,.01-1.94.11-2.77.29-1.07.23-2.56,1.52-2.65,1.62-1.11,1.22-2.01,2.44-2.7,3.68,1.13,2.11,1.14,4.47-1.22,5.83-.15.09-.31.14-.46.21.01,2.53.92,5.04,2.73,7.47,1.35,1.81,3.19,3.16,5.23,4.01-.52,2.02-.71,4.56-.71,7.23.3,1.01.33,2.12.07,3.17.19,4.64.72,9.18.77,11.57.12,5.35-1.99,7.22-5.1,9.83-3.11,2.61-6.22,1.99-12.44-.12-.48,2.64-.5,7.7-.45,10.97.54-3.99,3.14-7.57,8.16-8.17,14.28-1.69,13.82,19.32,1.25,20.13-5.29.34-8.59-3.73-9.35-8.3.02.7.12,2.24.51,5.65.67,5.84,2.22,7.35,3.34,7.35s5.62-1.57,9.67.9c1.5.92,2.87,1.62,4.16,2.44,1.2-.38,2.41-.76,3.64-1.16,77.76-25.56,71.12-101.2,118.03-119.99,23.56-9.44,60.52-4.51,87.03-7.49,62.33-7,88.68-30.66,142.49-50.04,2.05-.74,4.1-1.46,6.17-2.17.07-3.99.13-8.1.2-12.19-1.31,2.42-3.63,4.27-7.01,4.67-13.42,1.58-15.26-19.71-1.21-20.04,4.12-.1,6.94,2.11,8.39,5.09.23-14.89.4-27.83.3-31.56-.1-3.71-.42-7.95-.74-11.94.02,0,.04,0,.06,0-.38-4.75-.76-9.12-.76-11.8,0-4.98.87-11.48.87-15.16,0-2.19.46-7.69.7-12.46-1.08-.17-2.05-.71-2.71-1.71-2.11-3.2-.72-7.55,1.97-9.24-.42-2.38-.75-5.24-.61-9.51.22-6.5,1.52-40.71,1.73-46.99ZM425.35,360.45c3.82,6.71-4.74,14.61-9.49,8.58-4.99-6.34,6.45-13.91,9.49-8.58ZM356.01,358.84c4-4.04,13.72,1.12,8.48,7.59-5.8,7.16-13.11-2.92-8.48-7.59ZM356.25,489.5c-6.26,2.89-10.82-5.74-6.02-9.57,6.42-5.11,13.44,6.14,6.02,9.57ZM304.83,396.92c-2.63-2.63,1.84-15.33,8.86-9.73,7.5,5.99-5.35,13.24-8.86,9.73ZM310.82,312.79c7.55-6.1,11.07,6.94,7.83,8.71-5.57,3.04-15.06-2.86-7.83-8.71ZM310.38,412.96c5.1-3.37,13.12,2.17,8.65,7.67-6.31,7.76-13.94-4.18-8.65-7.67ZM322.15,440.86c3.24,1.77-.27,14.81-7.83,8.71-7.23-5.84,2.26-11.75,7.83-8.71ZM313.77,465.35c7.02-4.12,12.53,7.6,5.87,10.3-5.74,2.33-9.75-8.03-5.87-10.3ZM314,490.09c4.68-4.62,14.76,2.68,7.59,8.48-6.47,5.24-11.64-4.48-7.59-8.48ZM321.83,334.13c7.98-1.52,10.04,10.36,2.78,11.84-7.21,1.47-9.95-10.48-2.78-11.84ZM327.48,359.19c6.42-5.11,13.44,6.14,6.02,9.57-6.25,2.89-10.82-5.74-6.02-9.57ZM336.23,380.19c6.42-5.11,13.44,6.14,6.02,9.57-6.25,2.89-10.82-5.74-6.02-9.57ZM342.54,403.94c5.74-2.33,9.75,8.03,5.87,10.3-7.02,4.12-12.53-7.6-5.87-10.3ZM343.23,432.68c6.21-4.88,15.99,6.97,5.84,9.44-7.8,1.9-10.05-6.14-5.84-9.44ZM352.75,335.51c-6.26,2.89-10.82-5.74-6.02-9.57,6.42-5.11,13.44,6.14,6.02,9.57ZM347.24,258.28c-6.16-6.16,5.11-11.59,8.36-8.35,3.24,3.24-2.2,14.51-8.36,8.35ZM365.99,338.19c6.42-5.11,13.44,6.14,6.02,9.57-6.25,2.89-10.82-5.74-6.02-9.57ZM374.65,379.62c7.37,4.79-4.56,16.95-9.54,6.81-2.39-4.88,6.36-8.88,9.54-6.81ZM373.3,405.88c4.02-6.99,14.22,5.13,5.9,8.52-4.83,1.97-7.84-5.14-5.9-8.52ZM376.53,430.98c7.32-5.31,12.75,6.92,6.12,9.67-4.16,1.73-11.06-6.09-6.12-9.67ZM389.75,312.86c5.52.36,6.19,8.33,1.52,10.4-9.45,4.18-9.58-10.93-1.52-10.4ZM381.74,457.18c6.42-5.11,13.44,6.14,6.02,9.57-6.26,2.89-10.82-5.74-6.02-9.57ZM393.94,350.5c7.48-1.56,9.93,9.43,2.42,11.22-6.78,1.62-11.35-9.36-2.42-11.22ZM404.11,391.88c6.88-1.33,10.68,9.3,4.65,11.89-7.69,3.3-12.94-10.29-4.65-11.89ZM408.53,323.9c4.86-5.07,13.36,1.38,8.49,7.53-5.62,7.09-13.16-2.66-8.49-7.53ZM419.27,295.26c-6.25,2.89-10.82-5.74-6.02-9.57,6.42-5.11,13.44,6.14,6.02,9.57ZM418.35,246.16c-2.46,4.33-14.45-.42-8.65-7.73,5.73-7.23,11.85,2.11,8.65,7.73ZM413.16,143.39c5.04,3.22.08,14.79-8.28,10.04-5.34-3.03,2.2-13.93,8.28-10.04ZM404.64,191.31c9.09-4.29,11.85,6.81,5.85,9.48-5.48,2.44-13.65-5.8-5.85-9.48ZM400.69,278.4c5.19,4.98-3.64,13.8-8.47,7.56-4.8-6.2,3.29-12.53,8.47-7.56ZM396.51,237.52c-6.26,2.89-10.82-5.74-6.02-9.57,6.42-5.11,13.44,6.14,6.02,9.57ZM384.08,186.46c-5.09-5.04,1.49-13.22,7.53-8.43,6.59,5.23-1.77,14.14-7.53,8.43ZM383.44,126.44c5.73-7.23,11.85,2.11,8.65,7.73-2.46,4.33-14.45-.42-8.65-7.73ZM375.39,277.73c-7.81,1.86-9.27-11.54-1.37-12.15,9.02-.69,7.12,10.78,1.37,12.15ZM377.25,223.51c-7.86,3.16-10.51-8.06-4.96-10.31,4.75-1.92,11.82,7.55,4.96,10.31ZM365.99,103.7c6.42-5.11,13.44,6.14,6.02,9.57-6.25,2.89-10.82-5.74-6.02-9.57ZM365.99,161.45c6.42-5.11,13.44,6.14,6.02,9.57-6.25,2.89-10.82-5.74-6.02-9.57ZM361.6,302.33c4.75-6.03,13.31,1.87,9.49,8.58-3.03,5.33-14.48-2.24-9.49-8.58ZM358.83,207.66c-3.04,5.33-14.48-2.24-9.49-8.58,4.75-6.03,13.31,1.87,9.49,8.58ZM348.63,147.57c9.09-4.29,11.85,6.81,5.85,9.48-5.48,2.44-13.65-5.8-5.85-9.48ZM344,295.26c-6.25,2.89-10.82-5.74-6.02-9.57,6.42-5.11,13.44,6.14,6.02,9.57ZM340.79,128.98c7.76,6.31-4.18,13.94-7.67,8.65-3.37-5.1,2.17-13.12,7.67-8.65ZM336.38,178.97c6.24,3.05,1.17,14.57-6.74,9.43-3.98-2.59-.45-12.95,6.74-9.43ZM336.05,230.99c3.37,5.1-2.17,13.12-7.67,8.65-7.76-6.31,4.18-13.94,7.67-8.65ZM322.84,279.48c-7.52,1.73-10.4-10.09-2.76-11.84,7.52-1.73,10.4,10.09,2.76,11.84ZM321.91,161.16c4.67,4.87-2.87,14.62-8.49,7.53-4.87-6.15,3.62-12.59,8.49-7.53ZM306.74,211.61c3.69-6.43,16.74,5.25,6.84,9.55-5.03,2.18-8.78-6.17-6.84-9.55ZM305.8,251.64c1.8,3.71-5.53,9.32-9.57,6.9-6.32-3.79,4.2-17.99,9.57-6.9ZM292.81,194.16c5.03-3.21,13.26,2.13,8.73,7.73-6.68,8.23-12.89-5.07-8.73-7.73ZM283.83,335.67c-.94-.92-.52-8.95,4.33-8.72,8.44.39,1.24,14.16-4.33,8.72ZM282.38,506.88c-6.21-4.16,5.09-16.95,9.43-8.44,3.26,6.4-4.23,11.92-9.43,8.44ZM289.73,529.75c-6.26,2.89-10.82-5.74-6.02-9.57,6.42-5.11,13.44,6.14,6.02,9.57ZM289.13,471.17c6.74,5.22-4.43,15.64-8.53,9.45-3.99-6.03,3.9-13.03,8.53-9.45ZM288.6,444.6c5.07,4.86-1.38,13.36-7.53,8.49-7.1-5.62,2.66-13.16,7.53-8.49ZM278.46,231.45c6.42-5.11,13.44,6.14,6.02,9.57-6.25,2.89-10.82-5.74-6.02-9.57ZM281.91,265.86c1.94,3.38-1.81,11.73-6.84,9.55-9.9-4.3,3.15-15.98,6.84-9.55ZM277.73,319.92c-8.44-.39-1.24-14.16,4.33-8.72.94.92.51,8.95-4.33,8.72ZM274.29,370.64c3.52,7.19-6.85,10.71-9.44,6.73-5.14-7.9,6.38-12.97,9.44-6.73ZM269.77,300.63c-.56,1.01-8.09,1.01-8.65,0-6.05-10.86,14.7-10.85,8.65,0ZM259.46,211.58c2.24-3.63,15.92-.26,9.57,6.94-4.99,5.66-12.87-1.6-9.57-6.94ZM260.22,243.39c3.56.51,6.78,7.69,1.51,9.88-9.81,4.07-9.25-10.98-1.51-9.88ZM254.25,344.61c2.28-3.87,12.64.13,10.3,5.87-2.71,6.66-14.43,1.15-10.3-5.87ZM253.05,481.06c-8.57-6.81,5.39-11.51,8.01-8.88,1.63,1.63-.02,15.23-8.01,8.88ZM257.58,506.4c-4.88,2.39-8.88-6.35-6.82-9.53,4.79-7.37,16.95,4.56,6.82,9.53ZM250.78,457.97c-3.6-5.47,5.06-12.5,9.53-6.9,5.58,7-6.38,11.68-9.53,6.9ZM247.37,433.39c-5.29-3.49,2.35-15.43,8.65-7.67,4.47,5.5-3.55,11.03-8.65,7.67ZM249.47,330.26c-6.25,2.89-10.82-5.74-6.02-9.57,6.42-5.11,13.44,6.14,6.02,9.57ZM227.5,423.46c5.48,3.59-2.39,13.62-8.31,10.08-3.85-2.3-.27-15.69,8.31-10.08ZM216.53,398.63c8.82-.39,6.82,8.99,1.28,10.35-7.65,1.87-10.22-9.95-1.28-10.35ZM229.62,459.1c-7.99,3.76-8.28-8.41-7.07-9.68,4.89-5.16,15.13,5.89,7.07,9.68ZM231.8,481.1c-7.58,4.63-11.88-7.61-7.29-10.48,5.56-3.47,14.54,6.06,7.29,10.48ZM221.11,519.7c8.58-5.61,12.16,7.78,8.31,10.08-5.91,3.54-13.79-6.5-8.31-10.08ZM224.5,505.22c-2.07-3.18,1.94-11.93,6.82-9.53,10.14,4.97-2.03,16.9-6.82,9.53ZM231.75,384.26c-5.49-5.65,1.81-14.22,8-9.78,6.13,4.39-2.22,15.72-8,9.78ZM238.44,223.82c2.3-3.85,15.69-.27,10.08,8.31-3.59,5.48-13.62-2.39-10.08-8.31ZM236.74,260.62c2.28-3.87,12.64.13,10.31,5.87-2.71,6.66-14.43,1.15-10.31-5.87ZM238.44,297.92c8.29,6.95-5.21,15.2-8.65,9.52-3.22-5.31,2.99-14.26,8.65-9.52ZM229.72,350.43c4.87,6.15-3.62,12.59-8.49,7.53-4.67-4.87,2.87-14.62,8.49-7.53ZM219.95,277.87c5.52.36,6.19,8.33,1.52,10.4-9.45,4.18-9.58-10.93-1.52-10.4ZM217.29,328.69c.94.92.51,8.95-4.33,8.72-8.44-.39-1.24-14.16,4.33-8.72ZM211.88,374.34c3.34,1.84,1.03,13.19-6.85,9.55-7.08-3.27.69-12.95,6.85-9.55ZM124.74,525.46c4.47,5.5-3.56,11.03-8.66,7.67-5.29-3.49,2.35-15.43,8.66-7.67ZM117.42,444.93c6.42-5.11,13.44,6.14,6.02,9.57-6.25,2.89-10.82-5.74-6.02-9.57ZM127.98,505.47c1.01.56,1.01,8.08,0,8.65-10.85,6.04-10.86-14.69,0-8.65ZM121.83,493.37c-7.76-6.31,4.18-13.94,7.67-8.65,3.37,5.1-2.17,13.12-7.67,8.65ZM126.78,473.72c-6.78,1.62-11.35-9.36-2.42-11.22,7.48-1.56,9.93,9.43,2.42,11.22ZM120.92,387.19c6.42-5.11,13.44,6.14,6.02,9.57-6.26,2.89-10.82-5.74-6.02-9.57ZM119.48,427.47c4.48,5.38-4.25,12.22-8.54,7.55-4.54-4.94,2.62-14.67,8.54-7.55ZM91.2,457.23c7.32-5.31,12.75,6.92,6.12,9.67-4.16,1.73-11.06-6.09-6.12-9.67ZM85.91,436.19c6.42-5.11,13.44,6.14,6.02,9.57-6.25,2.89-10.82-5.74-6.02-9.57ZM93.78,486.19c-2.45-4.89,6.39-8.83,9.6-6.89,6.21,3.76-4.03,18.02-9.6,6.89ZM100.64,514.05c-7.1,1.97-10.87-10.05-2.87-11.93,8.09-1.9,9.04,10.21,2.87,11.93ZM94.14,524.8c4.06-.61,9.09,7.78,3.05,10.2-9.01,3.61-9.57-9.22-3.05-10.2ZM100.28,565.19c3.03-5.33,14.48,2.24,9.49,8.58-4.75,6.03-13.31-1.87-9.49-8.58ZM104.32,418.13c-7.76-6.31,4.18-13.94,7.67-8.65,3.37,5.1-2.17,13.12-7.67,8.65ZM102.43,368.76c-6.25,2.89-10.82-5.74-6.02-9.57,6.42-5.11,13.44,6.14,6.02,9.57ZM101.36,392.15c5.19,4.98-3.64,13.8-8.47,7.56-4.8-6.2,3.29-12.53,8.47-7.56ZM89.62,389.17c-5.12,3.96-14.21-3.7-8.38-9.32,5.6-5.4,14.38,4.67,8.38,9.32ZM83.47,419.47c7.76,6.31-4.18,13.94-7.67,8.65-3.37-5.1,2.17-13.12,7.67-8.65ZM68.99,497.94c-5.09-5.04,1.49-13.22,7.53-8.43,6.59,5.23-1.77,14.14-7.53,8.43ZM73.97,476.62c-6.31,7.76-13.94-4.18-8.65-7.67,5.1-3.37,13.12,2.17,8.65,7.67ZM76.47,507.17c7.55,5.98-6.18,13.94-9.46,8.5-3.08-5.11,1.87-14.51,9.46-8.5ZM89.25,547.72c5.69,9.09-7.74,11.62-10.22,5.76-2.25-5.33,7.52-10.07,10.22-5.76ZM98.48,583.21c4.47,5.5-3.55,11.03-8.65,7.67-5.29-3.49,2.35-15.43,8.65-7.67ZM96.02,614.12c7.27-1.46,10.02,8.63,2.74,10.08-7.27,1.46-10.02-8.63-2.74-10.08ZM92.12,655.89c-6.06,2.43-8.78-8.32-3.46-10.46,6.06-2.43,8.78,8.32,3.46,10.46ZM103.46,632.22c7.32-5.31,12.75,6.92,6.12,9.67-4.16,1.73-11.06-6.09-6.12-9.67ZM105.68,608.25c-4.67-4.29,2.17-13.01,7.55-8.54,7.12,5.92-2.61,13.07-7.55,8.54ZM110.71,544.1c1.77-3.24,14.82.27,8.71,7.82-5.85,7.23-11.76-2.25-8.71-7.82ZM121.93,582.35c5.52.36,6.19,8.33,1.52,10.4-9.45,4.18-9.58-10.93-1.52-10.4ZM124.8,566.92c5.62-3.19,14.97,2.92,7.74,8.65-7.32,5.8-12.07-6.19-7.74-8.65ZM136.28,547.62c7.52-1.73,10.4,10.09,2.76,11.84-7.52,1.73-10.4-10.09-2.76-11.84ZM151.29,463.22c-8.35,1.87-10.37-11.66-1.06-11.74,6.78-.06,7.66,10.25,1.06,11.74ZM153.19,482.5c-6.25,2.89-10.82-5.74-6.02-9.57,6.42-5.11,13.44,6.14,6.02,9.57ZM142.34,443.89c-5.29-3.49,2.35-15.43,8.65-7.67,4.47,5.5-3.55,11.03-8.65,7.67ZM147.49,386.23c-5.04-3.22-.09-14.79,8.28-10.04,5.34,3.03-2.2,13.93-8.28,10.04ZM136.62,425.93c-5.8-7.32,6.19-12.07,8.65-7.73,3.2,5.62-2.92,14.96-8.65,7.73ZM140.17,530.68c6.42-5.11,13.44,6.14,6.02,9.57-6.25,2.89-10.82-5.74-6.02-9.57ZM146.48,522.9c-6.66-2.71-1.15-14.42,5.87-10.3,3.88,2.28-.13,12.63-5.87,10.3ZM147.59,501.63c-5.29-3.49,2.35-15.43,8.65-7.67,4.47,5.5-3.56,11.03-8.65,7.67ZM156.22,407.24c-3.05-5.57,2.87-15.05,8.71-7.82,6.11,7.55-6.94,11.06-8.71,7.82ZM175.82,452.72c-7.71,1.7-8.65-10.58-2.89-11.93,7.54-1.76,10.54,10.24,2.89,11.93ZM182.1,470.22c-3.22,5.04-14.79.08-10.05-8.28,3.03-5.34,13.93,2.2,10.05,8.28ZM170.7,430.01c-6.25,2.89-10.82-5.74-6.02-9.57,6.42-5.11,13.44,6.14,6.02,9.57ZM171.79,540.42c3.51,3.51-3.75,16.35-9.74,8.86-5.6-7.01,7.11-11.48,9.74-8.86ZM169.03,521.03c7.99-6.35,9.64,7.26,8.01,8.88-2.63,2.63-16.59-2.07-8.01-8.88ZM173.43,500.93c6.42-5.11,13.44,6.14,6.02,9.57-6.26,2.89-10.82-5.74-6.02-9.57ZM176.09,489.88c-7.76-6.31,4.18-13.94,7.67-8.65,3.37,5.1-2.17,13.12-7.67,8.65ZM179.59,386.63c-7.76-6.31,4.18-13.94,7.67-8.65,3.37,5.1-2.17,13.12-7.67,8.65ZM197.84,400.63c3.59,5.59-4.63,11.4-10.02,8.28-7.11-4.11,5.63-15.12,10.02-8.28ZM196.19,425.69c6.42-5.11,13.44,6.14,6.02,9.57-6.25,2.89-10.82-5.74-6.02-9.57ZM198.31,449.69c2.46-4.34,14.45.42,8.65,7.73-5.73,7.23-11.85-2.11-8.65-7.73ZM207.46,484.25c-6.26,2.89-10.82-5.74-6.02-9.57,6.42-5.11,13.44,6.14,6.02,9.57ZM200.22,508.44c-4.67-4.87,2.87-14.62,8.49-7.53,4.87,6.15-3.62,12.59-8.49,7.53ZM205.22,261.16c5.34,6.07-4.37,11.81-8.44,7.61-6.5-6.71,2.21-14.71,8.44-7.61ZM191.17,307.06c2.71-8.81,19.7-2.65,11.66,5.39-4.7,4.7-13.45.41-11.66-5.39ZM191.18,355.07c2.3-3.85,15.69-.27,10.08,8.31-3.59,5.48-13.62-2.39-10.08-8.31ZM186.8,341.09c-6.15,4.87-12.6-3.62-7.53-8.49,4.87-4.67,14.62,2.86,7.53,8.49ZM176.93,283.94c6.42-5.11,13.44,6.14,6.02,9.57-6.26,2.89-10.82-5.74-6.02-9.57ZM175.03,363.4c-3.03,5.34-13.93-2.2-10.05-8.28,3.22-5.04,14.79-.08,10.05,8.28ZM168.87,321.46c-7.56,2.16-10.23-6.17-5.94-9.53,6.62-5.18,14.82,6.99,5.94,9.53ZM157.97,267.62c1.77-3.24,14.82.27,8.71,7.82-5.85,7.23-11.76-2.25-8.71-7.82ZM158.45,344.26c-6.25,2.89-10.82-5.74-6.02-9.57,6.42-5.11,13.44,6.14,6.02,9.57ZM151.74,293.47c7.76,6.31-4.18,13.94-7.67,8.65-3.37-5.1,2.17-13.12,7.67-8.65ZM143.04,316.28c7.23,5.84-2.25,11.75-7.83,8.71-3.24-1.77.27-14.81,7.83-8.71ZM139.43,354.86c5.52.36,6.19,8.33,1.52,10.4-9.45,4.18-9.58-10.93-1.52-10.4ZM133.84,412.41c-6.75,1.55-8.12-7.75-2.98-10.08,7.94-3.59,10.61,8.32,2.98,10.08ZM129.3,349.25c-4.87,4.67-14.62-2.86-7.53-8.49,6.15-4.87,12.6,3.62,7.53,8.49ZM124.68,301.42c5.24,6.47-4.48,11.63-8.48,7.59-4.62-4.67,2.68-14.75,8.48-7.59ZM117.73,373.22c4.47,5.5-3.56,11.03-8.66,7.67-5.29-3.49,2.35-15.43,8.66-7.67ZM112.26,327.88c2.33,5.74-8.03,9.74-10.31,5.87-4.12-7.02,7.6-12.52,10.31-5.87ZM94.92,288.58c2.24-3.63,15.92-.26,9.57,6.94-4.99,5.66-12.87-1.6-9.57-6.94ZM85.87,315.42c5.8-7.16,13.11,2.92,8.48,7.59-4,4.04-13.72-1.12-8.48-7.59ZM89.52,346.18c2.63,2.63-2.07,16.58-8.89,8.01-6.35-7.98,7.26-9.64,8.89-8.01ZM68.4,304.94c6.42-5.11,13.44,6.14,6.02,9.57-6.25,2.89-10.82-5.74-6.02-9.57ZM63.45,335.86c7.02-4.12,12.53,7.6,5.87,10.3-5.74,2.33-9.75-8.03-5.87-10.3ZM71.73,369.23c5.14,7.9-6.38,12.97-9.44,6.73-3.52-7.19,6.85-10.71,9.44-6.73ZM63.2,404.73c7.32-5.31,12.75,6.92,6.12,9.67-4.16,1.73-11.06-6.09-6.12-9.67ZM64.38,447.81c6.28-.87,7.83,11.06,1.27,11.97-6.28.87-7.83-11.06-1.27-11.97ZM55.51,398.84c-6.03,4.79-12.62-3.39-7.53-8.43,5.76-5.7,14.12,3.2,7.53,8.43ZM55.84,366.76c-4,4.04-13.72-1.12-8.48-7.59,5.8-7.16,13.11,2.92,8.48,7.59ZM56.26,328.68c2.63,2.63-2.07,16.58-8.89,8.01-6.35-7.99,7.26-9.64,8.89-8.01ZM30.95,349.7c4.75-1.92,11.82,7.55,4.96,10.31-7.86,3.16-10.51-8.06-4.96-10.31ZM34.61,377.81c5.6-.82,8.61,10.19,1.2,11.86-8.63,1.95-6.53-11.08-1.2-11.86ZM36.9,416.94c6.42-5.11,13.44,6.14,6.02,9.57-6.25,2.89-10.82-5.74-6.02-9.57ZM47.98,505.12c-10.62,1.73-15.92-14.7-6.21-18.6,14.05-5.65,19.41,16.45,6.21,18.6ZM50.04,438.96c-3.52-7.19,6.85-10.71,9.44-6.73,5.14,7.9-6.38,12.97-9.44,6.73ZM61.4,525.43c6.42-5.11,13.44,6.14,6.02,9.57-6.25,2.89-10.82-5.74-6.02-9.57ZM74.42,577c-6.25,2.89-10.82-5.74-6.02-9.57,6.42-5.11,13.44,6.14,6.02,9.57ZM78.91,597.18c6.42-5.11,13.44,6.14,6.02,9.57-6.25,2.89-10.82-5.74-6.02-9.57ZM78.92,632.64c-.77-.15-1.53-.38-2.25-.68-1.65-.69-3.12-1.78-4.19-3.21-1.53-2.05-2.29-4.09-2.29-6.15,0-2.63,1.24-5.28,3.72-7.98.32-.28,1.19-.9,1.48-.98.76-.16,1.77-.26,2.89-.23,3.6.08,8.46,1.42,10.64,5.87.62,1.26.92,2.8.92,4.37,0,2-.5,4.04-1.49,5.65,1.7,1.93,2.37,4.63.36,7.43-3.03,4.22-8.37.33-9.79-4.08ZM93.49,681.85c-11.82,1.5-15.9-17.78-2.49-19.81,13.38-2.02,14.84,18.24,2.49,19.81ZM112.84,667.68c-12.47.24-12.22-19.35-1.36-20.55,13.96-1.54,15.5,20.27,1.36,20.55ZM134.61,644.97c-8.57,8.97-24.65-7.88-12.83-15.43,12.44-7.95,19.95,7.98,12.83,15.43ZM142.48,624.09c-16.15,4.52-18.01-24.66.01-18.55,8.94,3.03,8.54,16.16-.01,18.55ZM156.48,604.84c-12.33,3.4-18.07-14.14-6.66-19.15,13.18-5.79,18.86,15.79,6.66,19.15ZM172.29,582.08c-18.44,6.07-17.69-24.15-.44-18.21,8.94,3.08,8.34,15.61.44,18.21ZM198.56,562.64c-5.2,14.69-27.46,3.11-17.53-9.51,6.14-7.81,21.1-.58,17.53,9.51ZM196.58,533.11c-3.37-5.1,2.17-13.12,7.67-8.65,7.76,6.31-4.18,13.94-7.67,8.65ZM214.28,562.87c-12.11,1.77-16.63-18.11-2.49-19.8,13.27-1.59,14.01,18.12,2.49,19.8ZM241.73,560.47c-10.14,8.95-21.54-7.68-13.49-16.11,7.93-8.3,24.66,6.26,13.49,16.11ZM256.02,520.21c4.47,5.5-3.55,11.03-8.65,7.67-5.29-3.49,2.35-15.43,8.65-7.67ZM259.89,560.94c-12.44.29-12.25-19.33-1.37-20.54,13.14-1.46,15.74,20.2,1.37,20.54ZM271.43,394.16c5.85-7.23,11.76,2.25,8.71,7.82-1.77,3.24-14.82-.27-8.71-7.82ZM285.78,420.47c4.47,5.5-3.55,11.03-8.65,7.67-5.29-3.49,2.35-15.43,8.65-7.67ZM289.5,557.59c-13.67,3.12-16.07-15.52-6.16-18.64,13.78-4.34,18.62,15.79,6.16,18.64ZM292.41,294.68c-4.87-6.15,3.62-12.59,8.49-7.53,4.67,4.87-2.87,14.62-8.49,7.53ZM310.06,369.82c1.97,4.83-5.15,7.84-8.52,5.9-6.99-4.02,5.14-14.21,8.52-5.9ZM314.01,552.41c-11.21,1.87-15.43-14.92-6.17-18.65,13.71-5.52,20.2,16.31,6.17,18.65ZM322.12,520.96c-3.14,4.78-15.11.1-9.53-6.9,4.46-5.6,13.12,1.43,9.53,6.9ZM326.32,545.2c-8.97-11.47,9.24-22.65,15.39-12.78,7.84,12.59-8.71,21.33-15.39,12.78ZM349.68,456.58c7.94-3.6,10.61,8.32,2.98,10.08-6.75,1.55-8.12-7.75-2.98-10.08ZM356.59,503.51c7.1,5.62-2.66,13.16-7.53,8.49-5.07-4.86,1.38-13.36,7.53-8.49ZM352.84,538.79c-12.06-8.02,3.56-24.75,12.83-15.44,7.1,7.13-2.2,22.51-12.83,15.44ZM386.68,527.74c-7.26,7.4-21.78-2.61-15.46-12.79,7.66-12.34,25.72,2.33,15.46,12.79ZM391.26,491.25c-6.26,2.89-10.82-5.74-6.02-9.57,6.42-5.11,13.44,6.14,6.02,9.57ZM405.08,519.12c-12.11,1.77-16.63-18.11-2.49-19.8,13.27-1.59,14.01,18.12,2.49,19.8ZM413.83,440.2c-6.67-6.7,5.43-14.16,10.21-7.02,3.78,5.65-4.37,12.88-10.21,7.02ZM427.87,471.97c-7.52,1.73-10.4-10.09-2.76-11.84,7.52-1.73,10.4,10.09,2.76,11.84Z" fill="#d67847"/><path id="_Path_-16" d="M91.5,617.64c-3.17-6.47-11.34-7.93-16.13-6.9-1.08.23-2.56,1.53-2.65,1.62-2.92,3.19-4.38,6.45-4.38,9.67,0,2.54.91,5.07,2.73,7.51,1.63,2.18,3.95,3.69,6.5,4.47,1.27.38,2.59.6,3.92.6,2.06,0,4.13-.47,6-1.47,2.98-1.58,4.64-4.85,5.06-8.27.07-.59.12-1.18.12-1.78,0-1.95-.4-3.86-1.18-5.46Z" fill="#fff"/><path id="_Path_-17" d="M91.5,617.64c-3.17-6.47-11.34-7.93-16.13-6.9-1.08.23-2.56,1.53-2.65,1.62-2.92,3.19-4.38,6.45-4.38,9.67,0,2.54.91,5.07,2.73,7.51,1.63,2.18,3.95,3.69,6.5,4.47,1.27.38,2.59.6,3.92.6,2.06,0,4.13-.47,6-1.47,2.98-1.58,4.64-4.85,5.06-8.27.07-.59.12-1.18.12-1.78,0-1.95-.4-3.86-1.18-5.46ZM78.08,631.71c-2.03-.65-3.86-1.86-5.13-3.56-1.52-2.04-2.28-4.07-2.28-6.13,0-2.63,1.25-5.29,3.74-8.03.34-.29,1.17-.88,1.45-.96,3.18-.69,10.67-.21,13.53,5.64.62,1.26.92,2.8.92,4.37,0,.75-.08,1.51-.22,2.24-.47,2.46-1.7,4.72-3.71,5.79-2.54,1.35-5.6,1.49-8.31.63Z" fill="#1c1c1b"/><path id="_Path_-18" d="M84.09,614.95h0c-1.9-.93-3.98-1.07-5.74-.4-.43.03-.85.11-1.23.22-3.44,1.01-5.44,4.73-4.65,8.64.41,2.03,1.8,4.57,3.98,5.66.68.34,1.36.58,2.03.74.59.14,1.17.21,1.76.21,1.35,0,2.7-.37,4.06-1.1,1.54-.82,2.69-2.22,3.31-3.93.36-.98.54-2.05.52-3.18-.06-3.05-1.6-5.69-4.04-6.88ZM85.61,625.46c-.36.62-.82,1.16-1.37,1.59-.22.17-.45.32-.69.45-1.66.89-3.23,1.12-4.84.7-.51-.13-1.01-.32-1.53-.58-1.44-.72-2.72-2.58-3.12-4.53-.62-3.08.89-6,3.52-6.77.3-.09.64-.14,1-.16l.26-.06c.58-.24,1.2-.36,1.85-.36.88,0,1.8.22,2.7.66h0c1.89.92,3.08,3.01,3.13,5.45.02.79-.1,1.54-.32,2.24-.15.49-.35.94-.59,1.36Z"/></g><g id="tas"><path id="_Path_-19" d="M949.08,909.82c-1.41-4.09-4.8-3.95-6.49-3.67-1.69.28-2.54.99-3.25,3.67-2.12-2.82-5.22-.85-6.91.42-1.69,1.27-3.1,3.67-9.31,3.39-6.21-.28-9.45.99-10.72,1.55-1.27.56-1.41,1.27-1.69,5.08-1.83-2.12-2.96-2.82-5.36-1.41-2.4,1.41-1.41,3.81-1.41,3.81,0,0-13.06-5.1-21.66-8.53-2.62,2.4-7.44,3.18-8.91.69-.97-1.64-1.05-3.2-.6-4.54-4.01-1.61-9.06-3.62-12.93-5.15-.2-.07-.4-.15-.59-.23-3.15-1.25-5.39-2.13-5.39-2.13-2.26,2.26-.85,13.26-.42,19.19.09,1.32.56,3.17,1.26,5.28,2.6-.77,5.55-.68,6.25.02,1.63,1.63.44,7.59-2.31,9.86,2.17,4.84,4.43,9.27,5.53,11.08,2.4,3.95,11.29,17.08,11.29,17.08,0,0-3.53-2.96-9.03-6.49-.18,3.23,1.19,7.99,3.08,12.73,1.13.19,2.26.72,3.29,1.71,2.11,2.03,1.9,4.69.58,6.72,1.68,3.23,3.28,5.88,4.34,7.21.44.55.89,1.12,1.36,1.69,1.7-.25,3.36.22,4.34,1.71.85,1.28,1.13,2.74.99,4.15,1.81,1.75,3.79,3.42,6,4.87-4.46,2.13-3.26,5.19-2.07,6.9.55.25,1.1.62,1.66,1.12,1.38-.38,5.01-1.31,8.04-1.53,3.81-.28,8.33,2.12,10.02,3.1,1.1.64,1.84.5,2.49-.01-.82-.41-1.66-1.1-2.49-2.15-5.8-7.32,6.19-12.07,8.65-7.73.01.02.02.04.03.06,1.11-1.98,1.84-4.97,2.41-7.55-2.55-.77-4.87-2.28-6.5-4.47-1.83-2.45-2.73-4.97-2.73-7.51,0-3.23,1.46-6.49,4.38-9.67.09-.1,1.57-1.39,2.65-1.62,4.79-1.03,12.96.43,16.13,6.9.45.93.76,1.96.95,3.04.77.42,1.55,1.08,2.34,2.05.06.07.1.14.16.21.95-1.11,1.74-2.47,2.15-3.71.85-2.54,1.41-7.76,1.69-10.02.28-2.26,1.41-10.02,1.98-14.82,2.96.14,6.63,5.5,6.63,5.5,0,0,.14-8.89.28-13.69.12-4.04.54-16.3.67-22.85-1.3-1.91-1.54-4.57.15-6.74.03-1.28-.11-2.11-.95-4.57ZM873.82,949.83c-6.25,2.89-10.82-5.74-6.02-9.57,6.42-5.11,13.44,6.14,6.02,9.57ZM893.17,921.84c6.15-4.87,12.6,3.62,7.53,8.49-4.87,4.67-14.62-2.86-7.53-8.49ZM880.47,961.96c-5.29-3.49,2.35-15.43,8.66-7.67,4.47,5.5-3.56,11.03-8.66,7.67ZM898.33,977.83c-6.26,2.89-10.82-5.74-6.02-9.57,6.42-5.11,13.44,6.14,6.02,9.57ZM905.24,993.49c-6.75,1.55-8.12-7.75-2.98-10.08,7.94-3.59,10.61,8.32,2.98,10.08ZM912.34,946.34c-9.45,4.18-9.58-10.93-1.52-10.4,5.52.36,6.19,8.33,1.52,10.4ZM918.88,967.3c-5.04-3.22-.09-14.79,8.28-10.04,5.34,3.03-2.2,13.93-8.28,10.04ZM929.84,925.34c-6.25,2.89-10.82-5.74-6.02-9.57,6.42-5.11,13.44,6.14,6.02,9.57ZM946.43,944.48c-3.03,5.34-13.93-2.2-10.05-8.28,3.22-5.04,14.79-.08,10.05,8.28Z" fill="#d67847"/><path id="_Path_-20" d="M932.81,973.53c-3.17-6.47-11.34-7.93-16.13-6.9-1.08.23-2.56,1.53-2.65,1.62-2.92,3.19-4.38,6.45-4.38,9.67,0,2.54.91,5.07,2.73,7.51,1.63,2.18,3.95,3.69,6.5,4.47,1.27.38,2.59.6,3.92.6,2.06,0,4.13-.47,6-1.47,2.98-1.58,4.64-4.85,5.06-8.27.07-.59.12-1.18.12-1.78,0-1.95-.4-3.86-1.18-5.46ZM919.39,987.59c-2.03-.65-3.86-1.86-5.13-3.56-1.52-2.04-2.28-4.07-2.28-6.13,0-2.63,1.25-5.29,3.74-8.03.34-.29,1.17-.88,1.45-.96,3.18-.69,10.67-.21,13.53,5.64.62,1.26.92,2.8.92,4.37,0,.75-.08,1.51-.22,2.24-.47,2.46-1.7,4.72-3.71,5.79-2.54,1.35-5.6,1.49-8.31.63Z" fill="#1c1c1b"/><path id="_Path_-21" d="M925.4,970.83h0c-1.9-.93-3.98-1.07-5.74-.4-.43.03-.85.11-1.23.22-3.44,1.01-5.44,4.73-4.65,8.64.41,2.03,1.8,4.57,3.98,5.66.68.34,1.36.58,2.03.74.59.14,1.17.21,1.76.21,1.35,0,2.7-.37,4.06-1.1,1.54-.82,2.69-2.22,3.31-3.93.36-.98.54-2.05.52-3.18-.06-3.05-1.6-5.69-4.04-6.88ZM926.91,981.35c-.36.62-.82,1.16-1.37,1.59-.22.17-.45.32-.69.45-1.66.89-3.23,1.12-4.84.7-.51-.13-1.01-.32-1.53-.58-1.44-.72-2.72-2.58-3.12-4.53-.62-3.08.89-6,3.52-6.77.3-.09.64-.14,1-.16l.26-.06c.58-.24,1.2-.36,1.85-.36.88,0,1.8.22,2.7.66h0c1.89.92,3.08,3.01,3.13,5.45.02.79-.1,1.54-.32,2.24-.15.49-.35.94-.59,1.36Z"/></g><g id="nsw"><path id="_Path_-22" d="M1081.15,503.91c-.76-.21-1.94-.48-3.12-.74-.53,1.76-1.88,3.25-4.23,3.79-3.88.89-6.52-1.82-7.12-4.9-2.39-1.12-4.54-2.12-4.54-2.12l-5.77,6s-3.28.23-6.22-.23c-.38.88-.52,2.02-.51,3.22.67.35,1.31.88,1.9,1.62,4.99,6.34-6.45,13.91-9.49,8.58-.47-.83-.75-1.67-.88-2.51-.39-.44-.64-.73-.64-.73,0,0-5.21,7.7-6.79,8.94-1.58,1.24-4.62,2.26-4.62,2.26,0,0-.45-5.21-.68-7.13-.23-1.92-1.38-4.41-2.73-6.22-.24-.32-.43-.6-.62-.86-.01-.02-.03-.04-.04-.06-.87-1.19-1.63-1.85-5.68-2.59-4.98-.91-6.68-.11-6.68-.11,0,0-3.73-2.04-6.68-2.38-2.94-.34-5.77-2.38-5.77-2.38,0,0-4.53,2.6-7.24,2.94-.1.01-.21.02-.31.03-.62,1.09-1.55,1.91-2.8,2.2-4,.9-6.43-1.62-7.07-4.61-.42-.11-.75-.16-.92-.1-.68.23-4.3,5.66-4.3,5.66l-3.85-.91.45,4.07h-3.85s.34,2.38-1.92,3.73c-.43.26-.99.48-1.63.66,2.63,2.75,3.7,7.59,1.27,8.92-6.05,3.31-13.25-3.22-10.03-8.1-.13,0-.25,0-.37-.01-2.94-.11-4.07.23-9.62.11-5.55-.11-18.21-.8-18.21-.8-1.18,0-2.69,0-4.43.03.03.02.06.04.09.06,7.17,5.8-2.92,13.1-7.59,8.48-2.26-2.24-1.64-6.27.48-8.47-8.96.11-20.75.26-31.52.28-.49.55-1.14,1.04-1.98,1.43-2.73,1.26-5.15.33-6.59-1.45-5.95-.04-11.15-.15-14.75-.37-1.37-.08-2.72-.13-4.08-.15,1.17,2.51.77,5.67-2.59,7.22-5.1,2.36-9.07-2.94-7.77-7.05-9.89.42-20.82,1.3-36.05.42-4.09-.24-8.58-.41-13.2-.55,1.01,4.55-5.48,8.19-9.85,5.31-1.85-1.22-2.11-3.48-1.41-5.56-4.32-.07-8.56-.11-12.5-.13,1.67,3.24.43,8.33-3.23,9.35-5.14,1.44-8.53-5.39-6.5-9.37-6.02,0-10.29.05-11.4.06l-.21,2.15s-.04.85-.1,2.31c2.64-1.18,5.9-1.42,7.03-.29,1.58,1.58.07,14.47-7.35,9.37-.23,7.84-.42,18.33-.14,26.89.01.36.02.76.03,1.17.48.23.97.52,1.46.91,4.5,3.56,2.22,7.89-1.28,9.4.11,9.59.17,22.55.17,35.14,3.58,2.25,3.53,9.21-.01,11.12-.04,14.69-.16,27.17-.37,30.67-.13,2.16-.16,6.51-.14,11.85,5.81.2,8.68,9.73,1.12,11.94-.35.1-.68.18-1,.24.06,4.73.14,9.53.22,13.84.24-1.15.93-2.24,2.24-3.09,3.18-2.07,11.93,1.94,9.54,6.81-3.56,7.24-10.66,3.1-11.74-1.61.09,5.05.18,9.21.23,11.42,1.82-.55,5.64-1.07,9.84,2.26,5.83-2.82,3.42-3.02,5.83-2.82,2.41.2,5.63,1.41,7.84,1.21,2.21-.2,6.03.2,6.64.8.6.6,6.23,4.02,7.44,6.64,1.21,2.61.4,6.44,2.21,8.04l1.81,1.61s3.82-3.82,11.06-3.62c7.24.2,10.86,3.82,10.86,3.82,0,0,.05.55.17,1.43.73,1.27,1,2.82.77,4.3.54,2.34,1.33,4.84,2.48,6.34,2.61,3.42,4.02,5.83,5.63,5.83h2.8c.78-3.86,6.71-6.49,9.99-3.25,2.28,2.25,1.63,6.33-.53,8.51.19.24.39.5.6.77,1.41,1.81,3.42,2.21,4.42,4.02.19.34.35.74.49,1.15.25.5.38,1.1.43,1.71.22,1.19.29,2.17.29,2.17,0,0,4.63,2.61,6.64,4.02,2.01,1.41,4.42,2.82,7.04,2.61,2.61-.2,3.42-.8,3.42-.8,0,0-.09-.96-.14-2.12-.51.73-1.27,1.38-2.32,1.87-6.26,2.89-10.82-5.74-6.02-9.57,3.93-3.13,8.09-.12,9.01,3.47,1.27-1.13,4.3-2.1,4.3-2.1,0,0,1.81,1.41,3.62,1.41s8.04-.4,8.04-.4c0,0,.6,1.81,3.62,1.81s5.03-.4,5.03-.4c0,0,6.03,4.02,7.84,3.82.83-.09,1.87-.69,3.01-1.29-2.48-2.18-3.53-6.02-.66-8.01,7.35-5.07,13.26,3.45,9.14,7.68.94.33,1.59.61,1.59.61,0,0,8.04.6,11.26,0,3.22-.6,5.83-1.81,9.05-2.61s7.04-3.02,10.66.8c.04.84.05,1.56.06,2.19,1.98,1.65,3.03,4.56,2,6.92,2.61,3.6,4.98,8.22,3.77,14.63,1.53.71,3.07,1.36,4.61,2,2.74-2.69,7.66-3.79,9-1.35.99,1.81,1.1,3.71.63,5.42,1.07.49,2.15,1.01,3.25,1.58,6.23,3.22,11.86,7.04,14.08,7.24s7.04,1.41,9.65,1.41c.66.66,1.62,2.11,2.64,3.84-.02.07-.05.13-.07.2.17.27.34.55.51.85.07-.23.15-.46.21-.7,3.23,1.62,4.04,1.45,5.17.48-.49-1.6-1.08-4.71-1.33-6.09-4.5-.55-6.97-7.52-2.74-10.6.78-.56,1.64-.89,2.52-1.02.07-1.31.2-2.6.42-3.45.65-2.42,2.75-4.85,3.88-9.85.86-3.8.51-12.6,1.98-18.4-1.13-1.72-1.43-3.9-.13-5.87.54-.83,1.35-1.36,2.29-1.66l-2.52-3.46s3.39.32,4.52-1.29c1.13-1.62,3.88-5.49,5.81-10.18,1.94-4.68,4.85-5.98,4.85-5.98l-.1-2.5c-.18.06-.36.11-.56.16-6.78,1.62-11.35-9.36-2.42-11.22,2.44-.51,4.33.32,5.53,1.72,1.27-.72,2.36-1.48,2.55-2.05.32-2.75.32-7.43,2.26-11.95.62-1.44,1.76-3.29,3.03-5.14,1.77.83,3.73,1.26,5.7,1.26,2.06,0,4.13-.47,6-1.47,3.49-1.85,5.19-6.02,5.19-10.04,0-1.95-.4-3.86-1.18-5.46-1.65-3.37-4.66-5.38-7.84-6.38,0-1.16-.06-2-.06-2,0,0,2.75-1.13,3.07-2.42.32-1.29.81-4.68,1.94-6.3.32-2.42.48-4.36,1.13-4.85,1.94.65,2.58.48,3.39-1.62.01-.03.03-.07.04-.1-4.62-.13-8.01-7.59-4.01-10.23,4.28-2.83,10.62.62,9.9,5.06,1.98-.72,5.08-1.85,6.51-2.8-.48-1.29-1.62-2.42-3.88-2.1,2.21-1.14,4.79-2.5,7.13-3.92.25-.34.57-.67.98-.96.71-.52,1.41-.86,2.07-1.07,1.58-1.17,2.82-2.33,3.39-3.41,1.62-3.07.97-5.49.97-5.49l-3.23-.48s1.29-.81,2.42-3.88c1.13-3.07,2.26-4.85,4.2-5.98,1.94-1.13,4.68-8.24,4.68-8.24,0,0,1.4-3.42,2.56-6.73-3.02-1.83-4.46-6.3-.5-9.44.61-.49,1.24-.84,1.85-1.07-.27-4.01-.72-9.07-.51-12.16.12-1.78.67-4.68,1.43-8.08-.51-1.73-.52-3.48.19-4.58.36-.55.76-.99,1.19-1.33,1.07-4.42,2.26-9.05,3.16-12.82.63-2.61,1.3-5.25,2.01-7.84-.96-.17-1.88-.61-2.65-1.37-3.71-3.66.32-12.12,6-9.48.72-2.03,1.46-3.95,2.23-5.7,1.42-3.23,2.26-5.43,2.71-7.24-6.05-.25-7.98-10.48-1.54-11.91-.12-.39-.2-.75-.2-1.04,0-.7.18-1.76.08-3.38l-4.93.91s-2.72,2.04-5.66,3.51ZM1026.19,621.92c-5.23,6.59-14.14-1.77-8.44-7.53,5.05-5.09,13.23,1.49,8.44,7.53ZM1022.83,589.7c5.1-3.37,13.12,2.17,8.65,7.67-6.31,7.76-13.94-4.18-8.65-7.67ZM1028.76,529.93c3.37,6.37-4.4,11.98-9.46,8.47-6.59-4.56,4.7-17.47,9.46-8.47ZM1022.27,559.94c3.2,5.62-2.92,14.96-8.65,7.73-5.8-7.32,6.19-12.07,8.65-7.73ZM1003.41,548.16c6.11,7.55-6.94,11.06-8.71,7.82-3.05-5.57,2.86-15.05,8.71-7.82ZM997.91,574.43c6.42-5.11,13.44,6.14,6.02,9.57-6.25,2.89-10.82-5.74-6.02-9.57ZM996.16,619.92c6.42-5.11,13.44,6.14,6.02,9.57-6.25,2.89-10.82-5.74-6.02-9.57ZM998.23,656.86c-6.31,7.76-13.94-4.18-8.66-7.67,5.1-3.37,13.12,2.17,8.66,7.67ZM988.17,577c-6.26,2.89-10.82-5.74-6.02-9.57,6.42-5.11,13.44,6.14,6.02,9.57ZM956.29,615.36c-3.37-5.1,2.17-13.12,7.67-8.65,7.76,6.31-4.18,13.94-7.67,8.65ZM960.99,648.65c-6.71,3.82-14.62-4.74-8.59-9.48,6.35-4.99,13.91,6.45,8.59,9.48ZM977.01,659.41c4.63,4.6-5.63,15.65-10.28,8.54-4.45-6.81,7.67-11.13,10.28-8.54ZM983.27,689c7.23,5.73-2.11,11.84-7.74,8.65-4.34-2.46.42-14.45,7.74-8.65ZM982.83,608.4c-6.75,1.55-8.12-7.75-2.98-10.08,7.94-3.59,10.61,8.32,2.98,10.08ZM978.65,532.43c6.42-5.11,13.44,6.14,6.02,9.57-6.26,2.89-10.82-5.74-6.02-9.57ZM977.66,638.28c-4.58.71-9.19-9.25-3.05-11.95,9.17-4.04,9.85,10.9,3.05,11.95ZM973.09,556.58c4.04,4-1.12,13.72-7.59,8.48-7.17-5.8,2.92-13.1,7.59-8.48ZM959.77,579.19c3.03-5.33,14.48,2.24,9.49,8.58-4.75,6.03-13.31-1.87-9.49-8.58ZM948.9,542.93c6.42-5.11,13.44,6.14,6.02,9.57-6.25,2.89-10.82-5.74-6.02-9.57ZM949,564.92c1.63,1.63-.02,15.23-8.01,8.88-8.57-6.81,5.39-11.51,8.01-8.88ZM941.28,648.78c6.24,4.83-2.57,13.66-7.56,8.47-4.98-5.18,1.36-13.27,7.56-8.47ZM933.99,615.52c7.55-6.1,11.07,6.94,7.83,8.71-5.57,3.04-15.06-2.86-7.83-8.71ZM940.19,590.23c6.09-4.48,13.2,4.65,5.97,7.76-5.58,2.39-10.8-4.2-5.97-7.76ZM933.14,530.68c6.42-5.11,13.44,6.14,6.02,9.57-6.25,2.89-10.82-5.74-6.02-9.57ZM924.7,554.63c6.49-4.23,12.51,7.83,8.36,10.1-8.35,4.56-13.5-6.76-8.36-10.1ZM917.07,583.69c-4.86,5.07-13.36-1.38-8.49-7.53,5.62-7.09,13.16,2.66,8.49,7.53ZM922.49,636.39c-2.46,4.34-14.45-.42-8.65-7.73,5.73-7.23,11.85,2.11,8.65,7.73ZM921.65,671.49c-10.08,4.35-9.53-12.8-1.5-11.64,3.95.57,6.88,9.31,1.5,11.64ZM906.93,541.23c7.32-5.31,12.75,6.92,6.12,9.67-4.16,1.73-11.06-6.09-6.12-9.67ZM892.88,527.18c6.42-5.11,13.44,6.14,6.02,9.57-6.26,2.89-10.82-5.74-6.02-9.57ZM899.85,558.05c3.85,2.3.27,15.69-8.31,10.08-5.48-3.59,2.39-13.62,8.31-10.08ZM891.09,586.66c5.8-7.16,13.11,2.92,8.48,7.59-4,4.04-13.72-1.12-8.48-7.59ZM897.37,640.14c7.21,0,8.5,11.61,0,11.61s-7.21-11.61,0-11.61ZM888.15,621.32c4.29-4.67,13.01,2.17,8.54,7.55-5.92,7.12-13.08-2.61-8.54-7.55ZM887.48,547.69c4.75,8.36-6.82,13.32-10.05,8.28-3.88-6.08,7.01-13.62,10.05-8.28ZM880.48,641.64c-3.03,5.34-13.93-2.2-10.05-8.28,3.22-5.04,14.79-.08,10.05,8.28ZM874.16,598.64c4.86-5.07,13.36,1.38,8.49,7.53-5.62,7.09-13.16-2.66-8.49-7.53ZM878.48,656.11c6.41-1.57,10.73,7.91,2.74,10-9.68,2.53-9.17-8.43-2.74-10ZM877.89,580.5c-6.26,2.89-10.82-5.74-6.02-9.57,6.42-5.11,13.44,6.14,6.02,9.57ZM865.94,531.69c6.09-2.55,11.77,9.98,3.11,11.98-7.54,1.74-7.55-10.12-3.11-11.98ZM856.12,646.17c6.42-5.11,13.44,6.14,6.02,9.57-6.25,2.89-10.82-5.74-6.02-9.57ZM864.56,584.64c4.67,4.87-2.87,14.62-8.49,7.53-4.87-6.15,3.62-12.59,8.49-7.53ZM858.19,622.45c-4.78-3.14-.1-15.1,6.91-9.52,5.6,4.46-1.43,13.12-6.91,9.52ZM854.37,560.43c6.42-5.11,13.44,6.14,6.02,9.57-6.26,2.89-10.82-5.74-6.02-9.57ZM850.71,636.4c-5.62,3.19-14.97-2.92-7.74-8.65,7.32-5.8,12.07,6.19,7.74,8.65ZM839.49,664.67c-2.39-4.88,6.36-8.88,9.54-6.81,7.37,4.79-4.56,16.95-9.54,6.81ZM850.78,596.61c2.07,3.18-1.94,11.93-6.82,9.53-10.14-4.97,2.03-16.9,6.82-9.53ZM840.37,544.68c6.42-5.11,13.44,6.14,6.02,9.57-6.26,2.89-10.82-5.74-6.02-9.57ZM842.22,582.41c-3.51,3.51-16.36-3.75-8.86-9.73,7.01-5.6,11.48,7.11,8.86,9.73ZM827.27,617.62c-7.76-6.31,4.18-13.94,7.67-8.65,3.37,5.1-2.17,13.12-7.67,8.65ZM824.91,526.6c1.77-3.24,14.82.27,8.71,7.82-5.85,7.23-11.76-2.25-8.71-7.82ZM824.54,552.85c3.24,1.77-.28,14.81-7.83,8.71-7.23-5.84,2.25-11.75,7.83-8.71ZM810.53,533.6c3.24,1.77-.28,14.81-7.83,8.71-7.23-5.84,2.25-11.75,7.83-8.71ZM801.86,569.18c6.42-5.11,13.44,6.14,6.02,9.57-6.26,2.89-10.82-5.74-6.02-9.57ZM797.01,610.11c-4.44-6.19,4.13-13.49,9.78-8,5.94,5.78-5.39,14.13-9.78,8ZM791.46,549.94c5.03-2.18,8.78,6.17,6.84,9.55-3.69,6.43-16.74-5.25-6.84-9.55ZM787.2,535.06c5.58,7-6.39,11.68-9.53,6.9-3.6-5.47,5.06-12.5,9.53-6.9ZM780.19,561.37c8.82-.39,6.82,8.99,1.28,10.35-7.65,1.87-10.22-9.95-1.28-10.35ZM769.01,606.61c-3.59-4.93,2.46-13.27,7.67-8.67,8.45,7.46-3.38,14.55-7.67,8.67ZM773.16,543.92c7.76,6.26-5.97,12.34-9.72,8.74-2.15-2.07.71-16,9.72-8.74ZM766.68,579.17c5.34,3.03-2.2,13.93-8.28,10.04-5.04-3.22-.08-14.79,8.28-10.04ZM755.47,631.41c-2.18-5.02,6.17-8.77,9.56-6.84,6.43,3.68-5.26,16.73-9.56,6.84ZM765.95,641.75c7.32-5.8,12.07,6.19,7.74,8.65-5.62,3.19-14.97-2.92-7.74-8.65ZM772.39,661.35c6.67-3.66,14.76,4.68,8.67,9.55-6.73,5.37-12.83-7.27-8.67-9.55ZM786.87,692.49c-6.26,2.89-10.82-5.74-6.02-9.57,6.42-5.11,13.44,6.14,6.02,9.57ZM789.53,627.73c-1.77,3.24-14.82-.27-8.71-7.82,5.85-7.23,11.76,2.25,8.71,7.82ZM786.15,581.48c7.94-5.51,15.48,6.03,7.69,9.54-5.36,2.41-13.02-5.85-7.69-9.54ZM800.32,637.42c5.6,4.46-1.43,13.12-6.91,9.52-4.78-3.14-.1-15.1,6.91-9.52ZM797.91,668.43c7.26-1.54,7.56,8.44,3.11,10.22-5.59,2.23-11.57-8.43-3.11-10.22ZM799.21,706.82c-7.1-5.62,2.66-13.16,7.53-8.49,5.07,4.86-1.38,13.36-7.53,8.49ZM811,690.6c-3.37-5.1,2.17-13.12,7.67-8.65,7.76,6.31-4.18,13.94-7.67,8.65ZM819.18,654.46c3.37,5.1-2.17,13.12-7.67,8.65-7.76-6.31,4.18-13.94,7.67-8.65ZM819.58,632.4c-6.73,5.37-12.83-7.27-8.67-9.55,6.67-3.66,14.76,4.68,8.67,9.55ZM818.47,594.82c-7.23-5.73,2.11-11.84,7.74-8.65,4.34,2.46-.42,14.45-7.74,8.65ZM833.23,711.67c-7.36,4.44-14-5.76-8.21-9.96,7.79-5.65,12.67,7.27,8.21,9.96ZM824.74,675.96c-2.33-5.74,8.03-9.74,10.31-5.87,4.12,7.02-7.6,12.52-10.31,5.87ZM834.13,652.24c-6.25,2.89-10.82-5.74-6.02-9.57,6.42-5.11,13.44,6.14,6.02,9.57ZM840.37,686.42c6.42-5.11,13.44,6.14,6.02,9.57-6.26,2.89-10.82-5.74-6.02-9.57ZM855.96,723.9c-6.71,3.82-14.61-4.74-8.58-9.48,6.35-4.99,13.91,6.45,8.58,9.48ZM859.08,670.06c8.23-3.51,11.73,10.28,4.76,11.97-6.47,1.57-11.09-9.28-4.76-11.97ZM863.38,701.56c2.24-3.63,15.92-.26,9.57,6.94-4.99,5.66-12.87-1.6-9.57-6.94ZM877.89,737.99c-6.26,2.89-10.82-5.74-6.02-9.57,6.42-5.11,13.44,6.14,6.02,9.57ZM882.38,688.17c6.42-5.11,13.44,6.14,6.02,9.57-6.25,2.89-10.82-5.74-6.02-9.57ZM895.3,722.1c-7.67.07-7.15-11.97.32-11.96,7.6,0,8.1,11.89-.32,11.96ZM908.49,683.64c-3.03,5.33-14.48-2.24-9.49-8.58,4.75-6.03,13.31,1.87,9.49,8.58ZM907.65,618.99c-6.26,2.89-10.82-5.74-6.02-9.57,6.42-5.11,13.44,6.14,6.02,9.57ZM913.89,696.92c6.42-5.11,13.44,6.14,6.02,9.57-6.26,2.89-10.82-5.74-6.02-9.57ZM925.16,736.23c-7.86,3.16-10.51-8.06-4.96-10.31,4.75-1.92,11.82,7.55,4.96,10.31ZM926.88,606.77c-6.19,2.39-13.34-6.3-5.84-9.54,7.07-3.05,12.13,7.11,5.84,9.54ZM932.3,692.86c-7.76-6.31,4.18-13.94,7.67-8.65,3.37,5.1-2.17,13.12-7.67,8.65ZM942.62,724.04c-8.69,1.96-10.02-12.29-1.46-12.21,6.39.06,6.78,11,1.46,12.21ZM948.86,672.4c5.8-7.16,13.11,2.92,8.48,7.59-4,4.04-13.72-1.12-8.48-7.59ZM949.22,748.45c-3.6-5.47,5.06-12.5,9.53-6.9,5.58,7-6.39,11.68-9.53,6.9ZM954.52,701.68c3.03-5.34,13.93,2.2,10.05,8.28-3.22,5.04-14.79.08-10.05-8.28ZM974.99,771.14c-5.62,3.19-14.97-2.92-7.74-8.65,7.32-5.8,12.07,6.19,7.74,8.65ZM971.81,737.35c-8.87-4.8,1.23-14.65,6.81-11.31,3.66,2.18.12,15.07-6.81,11.31ZM989.93,758.99c-6.25,2.89-10.82-5.74-6.02-9.57,6.42-5.11,13.44,6.14,6.02,9.57ZM995.08,723.9c-8.63,1.95-6.53-11.08-1.2-11.86,5.6-.82,8.61,10.19,1.2,11.86ZM998.76,685.8c-8.57-6.81,5.39-11.51,8.01-8.88,1.63,1.63-.02,15.23-8.01,8.88ZM1003.81,604.96c-7.81,1.86-9.27-11.54-1.37-12.15,9.02-.69,7.12,10.78,1.37,12.15ZM1007.43,524.5c-6.25,2.89-10.82-5.74-6.02-9.57,6.42-5.11,13.44,6.14,6.02,9.57ZM1013.67,642.67c6.34-4.99,13.91,6.45,8.59,9.48-6.71,3.82-14.62-4.74-8.59-9.48ZM1038.83,671.87c.62,1.26.92,2.8.92,4.37,0,3.25-1.31,6.65-3.92,8.03-2.82,1.5-6.29,1.51-9.2.3-1.67-.69-3.16-1.78-4.24-3.23-.99-1.32-1.65-2.65-2-3.98-2.12-2.25-2.56-6.19.28-8.45.93-.74,1.86-1.12,2.77-1.25.14-.16.26-.32.41-.48.34-.29,1.17-.88,1.45-.96,1.74-.38,4.79-.39,7.66.63,2.35.84,4.58,2.38,5.87,5.01ZM1033.44,578.44c-5.19-4.98,3.64-13.8,8.47-7.56,4.8,6.2-3.29,12.53-8.47,7.56ZM1038.42,620.78c-5.29-3.24,2.29-17.19,9.59-8.71,3.93,4.57-5.29,11.34-9.59,8.71ZM1044.41,552c-8.5,0-7.21-11.61,0-11.61s8.5,11.61,0,11.61ZM1067.85,552.85c3.05,5.57-2.87,15.05-8.71,7.82-6.11-7.55,6.94-11.06,8.71-7.82ZM1052.42,587.53c-3.85-2.3-.27-15.69,8.31-10.08,5.48,3.59-2.39,13.62-8.31,10.08ZM1057.74,608.46c-3.23-5.04,4.87-12.99,9.82-8.12,7.28,7.16-6.54,13.25-9.82,8.12ZM1072.52,526.43c-4.98,10.13-16.91-2.03-9.54-6.81,3.18-2.07,11.93,1.94,9.54,6.81Z" fill="#d67847"/><path id="_Path_-23" d="M1041.86,671.29c-3.17-6.47-11.34-7.93-16.13-6.9-1.08.23-2.56,1.53-2.65,1.62-2.92,3.19-4.38,6.45-4.38,9.67,0,2.54.91,5.07,2.73,7.51,1.63,2.18,3.95,3.69,6.5,4.47,1.27.38,2.59.6,3.92.6,2.06,0,4.13-.47,6-1.47,2.98-1.58,4.64-4.85,5.06-8.27.07-.59.12-1.18.12-1.78,0-1.95-.4-3.86-1.18-5.46Z" fill="#fff"/><path id="_Path_-24" d="M1041.86,671.29c-3.17-6.47-11.34-7.93-16.13-6.9-1.08.23-2.56,1.53-2.65,1.62-2.92,3.19-4.38,6.45-4.38,9.67,0,2.54.91,5.07,2.73,7.51,1.63,2.18,3.95,3.69,6.5,4.47,1.27.38,2.59.6,3.92.6,2.06,0,4.13-.47,6-1.47,2.98-1.58,4.64-4.85,5.06-8.27.07-.59.12-1.18.12-1.78,0-1.95-.4-3.86-1.18-5.46ZM1028.44,685.35c-2.03-.65-3.86-1.86-5.13-3.56-1.52-2.04-2.28-4.07-2.28-6.13,0-2.63,1.25-5.29,3.74-8.03.34-.29,1.17-.88,1.45-.96,3.18-.69,10.67-.21,13.53,5.64.62,1.26.92,2.8.92,4.37,0,.75-.08,1.51-.22,2.24-.47,2.46-1.7,4.72-3.71,5.79-2.54,1.35-5.6,1.49-8.31.63Z" fill="#1c1c1b"/><path id="_Path_-25" d="M1034.45,668.59h0c-1.9-.93-3.98-1.07-5.74-.4-.43.03-.85.11-1.23.22-3.44,1.01-5.44,4.73-4.65,8.64.41,2.03,1.8,4.57,3.98,5.66.68.34,1.36.58,2.03.74.59.14,1.17.21,1.76.21,1.35,0,2.7-.37,4.06-1.1,1.54-.82,2.69-2.22,3.31-3.93.36-.98.54-2.05.52-3.18-.06-3.05-1.6-5.69-4.04-6.88ZM1035.96,679.11c-.36.62-.82,1.16-1.37,1.59-.22.17-.45.32-.69.45-1.66.89-3.23,1.12-4.84.7-.51-.13-1.01-.32-1.53-.58-1.44-.72-2.72-2.58-3.12-4.53-.62-3.08.89-6,3.52-6.77.3-.09.64-.14,1-.16l.26-.06c.58-.24,1.2-.36,1.85-.36.88,0,1.8.22,2.7.66h0c1.89.92,3.08,3.01,3.13,5.45.02.79-.1,1.54-.32,2.24-.15.49-.35.94-.59,1.36Z"/></g><g id="vic"><path id="_Path_-26" d="M896.26,834.44c-.08-.17-.17-.33-.27-.49,3.51-.06,5.51.5,8.71-.13s6.83-1.13,12.53-6.77c5.7-5.64,17.29-16.67,17.86-17.48.56-.81,0-1.82,3.13-2.13,3.13-.31,22.5-2.63,29.83-3.38,0,0,2.95-.16,6.45-.62-.26-.24-.5-.52-.71-.84-5.61-8.57,7.78-12.16,10.08-8.31,1.51,2.52.55,5.39-1.32,7.43.41-.15.81-.3,1.16-.47,0,0,4.21-1.84,5.78-6.49-.83-1.34-1.58-2.44-2.13-2.99-2.61,0-7.44-1.21-9.65-1.41-2.21-.2-7.84-4.02-14.08-7.24-1.3-.67-2.62-1.27-3.94-1.84-1.61,4.14-6.59,6.65-9.94,2.47-1.89-2.36-1.55-4.64-.23-6.43-1.51-.59-2.98-1.19-4.39-1.85,1.3-6.87-.67-11.68-3.35-15.39-.5.95-1.34,1.79-2.64,2.39-6.25,2.89-10.82-5.74-6.02-9.57,2.2-1.75,4.48-1.58,6.21-.46-.01-.23-.03-.46-.04-.7-3.62-3.82-6.44-1.61-9.66-.8-3.22.8-5.83,2.01-9.05,2.61-3.22.6-11.26,0-11.26,0,0,0-1.24-.54-2.81-1-.67.48-1.51.87-2.54,1.14-1.46.37-2.9.02-4.13-.72-1.36.69-2.62,1.49-3.59,1.6-1.81.2-7.84-3.82-7.84-3.82,0,0-2.01.4-5.03.4s-3.62-1.81-3.62-1.81c0,0-6.23.4-8.04.4s-3.62-1.41-3.62-1.41c0,0-3.49,1.11-4.55,2.35.02.77-.12,1.53-.45,2.24-.03,1.74.18,3.86.18,3.86,0,0-.8.6-3.42.8-2.61.2-5.03-1.21-7.04-2.61-2.01-1.41-7.64-4.02-7.64-4.02,0,0,.4-1.63.27-3.22-.1-.55-.24-1.15-.43-1.71-.02-.03-.03-.07-.05-.11-1.01-1.81-3.02-2.21-4.42-4.02-.47-.6-.87-1.13-1.29-1.59-1.67,1.5-4.13,1.91-6.82-.26-1.69-1.37-2.41-2.82-2.48-4.18h-2.28c-1.61,0-3.02-2.41-5.63-5.83-1.22-1.6-2.27-4.35-3.03-6.82-.49,1.96-1.9,3.69-4.31,4.23-8.35,1.87-10.37-11.66-1.06-11.74.43,0,.83.03,1.21.11-1.57-.82-3.87-1.58-7.08-1.67-7.24-.2-11.06,3.62-11.06,3.62,0,0-.02-.02-1.57-1.4,2.39,5.33-5.68,11.48-9.94,6.14-5.15-6.46,4.64-10.94,8.65-7.84-.91-1.88-1.24-4.57-2.16-6.56-1.21-2.61-5.84-6.03-6.44-6.64-.6-.6-4.42-1.01-6.64-.8s-5.43-1.01-7.84-1.21,0,0-5.83,2.82c-4.55-3.61-8.66-2.7-10.25-2.12,0,.36.01.56.01.56l-.03.43s.42,27.36-.32,34.51c-.74,7.16-1.23,17.76-.49,20.97.74,3.21,0,26.89,0,30.35,0,1.29.24,6.86.54,13.34.06-.05.12-.11.18-.16,6.42-5.11,13.44,6.14,6.02,9.57-2.28,1.05-4.32.57-5.78-.64.09,1.77.17,3.5.25,5.12,3.26,1.32,8.89,1.69,8.2,9.02,4.76.38,5.2.25,5.2.25,0,0,1.38-4.64,5.2-4.26,3.82.38,9.09,3.57,10.9,3.57s4.7-.94,7.83-.81c.12,0,.23.03.35.05,2.61-2.25,7.71-3.11,9.2-1.63.7.7.79,3.66.02,6.26.26.17.51.35.77.52,3.12,2.1,14.14,8.88,18.08,11.29,1.19-.36,2.43-.4,3.48,0,1.25-.69,2.85-1.87,4.2-3.82,1.46-2.12,2.76-4.04,4.23-5.7-3.24-1.75-4.51-6.84-1.12-9.53,4.23-3.37,8.72.37,9.17,4.29.66-.28,1.28-.55,1.83-.86,2.46,2.85,6.15,4.43,9.88,4.43,1.74,0,3.48-.36,5.11-1.07.06.01.12.03.17.04.96.11,4.37-.03,6.9-.15-.23-1.77.32-3.63,1.95-4.93.54-.43,1.09-.74,1.64-.95-.06-1.13,0-1.92.67-2.17,1-.38,3.07-.69,5.39,1.94,2.32,2.63,1.19,3.89,1.19,3.89,0,0-.05,0-.11.01.91,2.31.5,5.04-2.23,6.59,1.53,3.38,4.92,4.24,4.92,4.24,0,0,5.14-1.13,5.64-.25.5.88,1.25,6.08,2.95,6.08s3.89-2.38,3.89-2.38c0,0,.25.19.66.54.76-2.59,2.36-4.85,5.06-4.25ZM935.95,788.92c6.93-2.66,11.01,10.91,3.18,12.09-5.04.76-8.75-9.95-3.18-12.09ZM928.97,811.74c-4.99,5.66-12.87-1.6-9.57-6.94,2.24-3.63,15.92-.26,9.57,6.94ZM924.24,768.17c3.2,5.62-2.92,14.96-8.65,7.73-5.8-7.32,6.19-12.07,8.65-7.73ZM911.15,828.98c-6.26,2.89-10.82-5.74-6.02-9.57,6.42-5.11,13.44,6.14,6.02,9.57ZM907.96,787.11c3.52,7.19-6.85,10.71-9.44,6.73-5.14-7.9,6.38-12.97,9.44-6.73ZM773.82,739.77c-5.91,3.54-13.79-6.5-8.31-10.08,8.58-5.61,12.16,7.78,8.31,10.08ZM771.26,762.64c-4.16,1.73-11.06-6.09-6.12-9.67,7.32-5.31,12.75,6.92,6.12,9.67ZM771.45,706.55c5,6.34-6.45,13.91-9.49,8.58-3.82-6.71,4.74-14.61,9.49-8.58ZM764.25,785.61c-7.76-6.31,4.18-13.94,7.67-8.65,3.37,5.1-2.17,13.12-7.67,8.65ZM776.58,817.99c-8.5,0-7.21-11.61,0-11.61s8.5,11.61,0,11.61ZM794.86,733.67c6.73-5.37,12.83,7.27,8.67,9.55-6.67,3.66-14.76-4.68-8.67-9.55ZM792.12,799.23c-6.26,2.89-10.82-5.74-6.02-9.57,6.42-5.11,13.44,6.14,6.02,9.57ZM792.12,764.24c-6.26,2.89-10.82-5.74-6.02-9.57,6.42-5.11,13.44,6.14,6.02,9.57ZM800.52,769.94c5.1-3.37,13.12,2.17,8.65,7.67-6.31,7.76-13.94-4.18-8.65-7.67ZM813.27,811.63c-4.16,1.73-11.06-6.09-6.12-9.67,7.32-5.31,12.75,6.92,6.12,9.67ZM817.74,749.45c6.22-3.2,12.59,6.54,5.82,9.46-8.02,3.45-13.27-5.63-5.82-9.46ZM823.37,790.25c-5.03-5.03,2.92-12.98,7.95-7.95,5.03,5.03-2.92,12.98-7.95,7.95ZM837.45,772.73c-5.07-4.86,1.38-13.36,7.53-8.49,7.1,5.62-2.66,13.16-7.53,8.49ZM857.39,823.73c-.75.4-1.54.68-2.35.87-3.83.91-8.15-.36-10.69-3.31-.14-.16-.28-.32-.4-.49-1.52-2.04-2.28-4.07-2.28-6.13,0-2.54,1.17-5.11,3.51-7.76-1.46-2.16-1.33-4.91,2.34-6.64,7.08-3.34,10.32,2.65,8.57,6.73,1.74.91,3.31,2.29,4.3,4.32.61,1.25.92,2.78.92,4.34,0,.01,0,.02,0,.03,0,2.38-.71,4.83-2.11,6.52-.51.62-1.11,1.14-1.81,1.51ZM869.49,789.06c-7.32,5.8-12.07-6.19-7.74-8.65,5.62-3.19,14.97,2.92,7.74,8.65ZM879.73,762.51c7.55-6.1,11.07,6.94,7.83,8.71-5.57,3.04-15.06-2.86-7.83-8.71ZM888.74,813.56c-7.32,5.8-12.07-6.19-7.74-8.65,5.62-3.19,14.97,2.92,7.74,8.65Z" fill="#d67847"/><path id="_Path_-27" d="M860.56,811.23c-3.17-6.47-11.34-7.93-16.13-6.9-1.08.23-2.56,1.53-2.65,1.62-2.92,3.19-4.38,6.45-4.38,9.67,0,2.54.91,5.07,2.73,7.51,1.63,2.18,3.95,3.69,6.5,4.47,1.27.38,2.59.6,3.92.6,2.06,0,4.13-.47,6-1.47,2.98-1.58,4.64-4.85,5.06-8.27.07-.59.12-1.18.12-1.78,0-1.95-.4-3.86-1.18-5.46Z" fill="#fff"/><path id="_Path_-28" d="M860.56,811.23c-3.17-6.47-11.34-7.93-16.13-6.9-1.08.23-2.56,1.53-2.65,1.62-2.92,3.19-4.38,6.45-4.38,9.67,0,2.54.91,5.07,2.73,7.51,1.63,2.18,3.95,3.69,6.5,4.47,1.27.38,2.59.6,3.92.6,2.06,0,4.13-.47,6-1.47,2.98-1.58,4.64-4.85,5.06-8.27.07-.59.12-1.18.12-1.78,0-1.95-.4-3.86-1.18-5.46ZM847.15,825.3c-2.03-.65-3.86-1.86-5.13-3.56-1.52-2.04-2.28-4.07-2.28-6.13,0-2.63,1.25-5.29,3.74-8.03.34-.29,1.17-.88,1.45-.96,3.18-.69,10.67-.21,13.53,5.64.62,1.26.92,2.8.92,4.37,0,.75-.08,1.51-.22,2.24-.47,2.46-1.7,4.72-3.71,5.79-2.54,1.35-5.6,1.49-8.31.63Z" fill="#1c1c1b"/><path id="_Path_-29" d="M853.16,808.54h0c-1.9-.93-3.98-1.07-5.74-.4-.43.03-.85.11-1.23.22-3.44,1.01-5.44,4.73-4.65,8.64.41,2.03,1.8,4.57,3.98,5.66.68.34,1.36.58,2.03.74.59.14,1.17.21,1.76.21,1.35,0,2.7-.37,4.06-1.1,1.54-.82,2.69-2.22,3.31-3.93.36-.98.54-2.05.52-3.18-.06-3.05-1.6-5.69-4.04-6.88ZM854.67,819.05c-.36.62-.82,1.16-1.37,1.59-.22.17-.45.32-.69.45-1.66.89-3.23,1.12-4.84.7-.51-.13-1.01-.32-1.53-.58-1.44-.72-2.72-2.58-3.12-4.53-.62-3.08.89-6,3.52-6.77.3-.09.64-.14,1-.16l.26-.06c.58-.24,1.2-.36,1.85-.36.88,0,1.8.22,2.7.66h0c1.89.92,3.08,3.01,3.13,5.45.02.79-.1,1.54-.32,2.24-.15.49-.35.94-.59,1.36Z"/></g></svg>