<?xml version="1.0" encoding="UTF-8"?><svg xmlns="http://www.w3.org/2000/svg" viewBox="0 0 1097.96 1015.5"><style>
  path {
    transition: fill 0.3s ease;
    cursor: pointer;
  }

  /* Hover effect only */
  #vic:hover,
  #nsw:hover,
  #sa:hover,
  #tas:hover,
  #wa:hover,
  #qld:hover,
  #nt:hover,
  #act:hover {
    fill: #d67847;
  }
</style><g id="nt"><g id="Northern_Teritory"><g id="Northern_territory"><path d="M671.17,323.66c.25-11.54,1.51-30.86.75-39.65-.75-8.78,0-32.62,0-38.89s-1-8.78-.75-21.83c.25-13.05.25-45.17-.5-52.19-.41-3.79-.59-10.7-.68-16.28-1.44-1.91-2.59-3.44-2.59-3.44l-1.5.17-19.92-9.42,1.83,3.67s-5.83-2.33-8.5-2c.42-2.33-.42-4.17-1.92-5.17s-5.92-2.75-6.75-3.25-2.58-2.58-4.5-5.75c-1.92-3.17-6.17-4.75-9.58-6.5-3.42-1.75-12.58-6.25-12.17-11.25,4.58-3.75,7-6.75,8.83-9.67,1.83-2.92,8.92-14.5,9.5-19.5-1.75.75-3.17,1.58-3.17,1.58,0,0,.17-11.58,2.83-14.75,1.67,1.42,1.67,1.67,1.67,1.67,0,0,1.67-6.75,6.5-5.58.83,3.92-.08,6.5-1,7.42,2.92-.83,6.25-2.75,5.5-7.75l4.17-1.33s-6-3.92.25-7.58c2.58-2.75,3.17-2.25,2.25-6.33l2.25.25,3.42-4.33s-3.17-5.92-4.25-5.83c-1.08.08-4.5,3-4.5,3l-4-8.33-8.08,5.92s4.83.75,4.67,3.17c-.17,2.42-1,4.42-5.08,5.08-4.08.67-5.83.33-5.42-2.5.42-2.83,1.25-3.17,1.25-3.17l-2.58.08,1.33-4.92s-5.67,3.08-6.08,4.42c-.42,1.33-1.17,1.83-1.17,1.83,0,0-2.67-1.33-.25-3.08,2.42-1.75,7-4.33,7-4.33,0,0-1.25-1.33-2.75-.75-1.5.58-6.67,3.58-7.33,3.67-.67.08-2.83-1.75-4.92-.75-2.08,1-4.92,3.25-5.75,3.75-.83.5-5.42,1.55-8.58-4.42-.75-1.42-1.92-3.83-1.92-3.83,0,0-3,1.92-4.25,3.83-1.93-.54-1.89-.69-1.73-.73-.84.09-5.51.54-8.28-.52l-.99-.5s-4.51-3.06-5.65-4.77c-2.07.79-3.97,1.16-3.65,0,.32-1.16,1.97-2.42-.04-3.21-2.01-.8-4.19-1.59-5.93-.14-1.73,1.45-4.32,3.66-4.32,3.66,0,0-2.5-3.09-9.23-4.46-5.89-6.93-7.36-10.27-7.36-10.27,0,0-3.62,5.75-6.74,5.66-1.14-3.77-3.37-9.13-6.09-9.84-2.73-.72-6.49.57-8.14,0s-1.96-2.43-1.96-2.43l-6.29,3.71c.82,2.43,4.17,7.45,7.73,7.45s5.27-3.95,14.76,4.88c-1.05,2.5-1.45,2.37.92,4.88-.79,1.32-2.5,4.61-.53,7.64-2.37-.79-4.48-2.5-4.61,6.06-1.71-4.35-2.9-4.88-2.9-4.88l-2.11,1.32-1.45-2.64s-2.9,1.45-4.74,5.27c-1.58-.66-2.37-2.24-8.04-.92-5.67,1.32-10.28-3.43-11.47-8.3l-1.85,5.01-7.38-.79-2.11,11.33-1.19-4.35s-4.61,0-6.99,1.85c-2.37,1.85-1.05,5.4-1.05,5.4,0,0-2.64.4-4.22-1.19-.53,3.95-.79,8.57-2.5,8.83-1.71.26-4.09.26-5.14,1.85-1.05,1.58-.4,6.06,3.56,8.7l-7.91,6.33s-1.85-.4-3.69-2.11c-.26,5.4-3.69,18.19-7.25,19.51l-2.24.53s-5.4,11.2,3.95,9.49c2.64,5.01,3.82,8.44,3.82,8.44l-3.3-.66s1.45,9.62.92,9.23c-.53-.4-3.03-1.98-4.35-4.48-1.32-2.5-4.35-3.16-5.67-2.64.4,3.69,1.05,4.74,1.05,4.74,0,0-3.03,2.11-4.09.79-1.05-1.32-3.95-6.72-3.95-6.72,0,0-.66.02-1.59.02h0c1.14,6.06-.31,3.32-.68,5.71-.43,2.82.65,8.45.65,12.13s-.65,6.5,0,9.53c.65,3.03-.22,23.39.43,29.02.65,5.63,0,20.57.65,26.2.65,5.63-.65,8.88-.22,13.43s.22,9.53.22,17.54-.65,63.23-.65,70.6,1.3,37.9,1.08,44.18c-.22,6.28-1.52,40.5-1.73,46.99-.22,6.5.65,9.75,1.3,12.99.65,3.25-.65,16.24-.65,19.92s-.87,10.18-.87,15.16c0,2.73.39,7.23.78,12.09,4.38.43,11.94,1.01,19.29.84,11.29-.25,33.62-1.25,63.99-.5,30.36.75,33.37-1.25,50.18-.75,16.81.5,27.1,0,41.9.5,14.8.5,41.15-.25,47.93,0,6.77.25,15.31.5,15.31.5,0,0-1.25-44.16-.25-57.71,1-13.55-.5-57.96-.25-69.51Z" fill="#8b6e82" stroke="#ffffff" /></g></g><g id="towns"><g id="Darwin"><g id="marker"><path d="M495.59,45.85c-3.01-6.15-10.83-7.13-14.83-6.27-.68.15-1.98,1.21-2.03,1.27-4.24,4.64-5.82,10-1.57,15.69,3.45,4.63,10.15,5.8,14.93,3.26,4.48-2.38,5.68-9.5,3.5-13.96ZM495.59,45.85c-3.01-6.15-10.83-7.13-14.83-6.27-.68.15-1.98,1.21-2.03,1.27-4.24,4.64-5.82,10-1.57,15.69,3.45,4.63,10.15,5.8,14.93,3.26,4.48-2.38,5.68-9.5,3.5-13.96Z" fill="#fff"/><path d="M486.64,62.31c-4.01,0-7.98-1.8-10.42-5.07-1.82-2.45-2.73-4.97-2.73-7.51,0-3.23,1.46-6.49,4.38-9.67.1-.11,1.6-1.4,2.65-1.62,4.79-1.03,12.97.43,16.13,6.9h0c.78,1.6,1.18,3.52,1.18,5.46,0,4.02-1.7,8.19-5.19,10.04-1.87.99-3.94,1.47-6,1.47ZM475.81,49.69c0,2.06.76,4.1,2.29,6.15,2.97,3.98,9,5.29,13.44,2.93,2.61-1.39,3.92-4.78,3.92-8.03,0-1.57-.31-3.11-.92-4.37-2.86-5.85-10.35-6.32-13.53-5.64-.29.08-1.16.7-1.48.98-2.47,2.71-3.72,5.36-3.72,7.98Z" fill="#1c1c1b"/><path d="M485.39,57.72c-1.26,0-2.52-.32-3.79-.95-2.18-1.09-3.57-3.63-3.98-5.66-.79-3.91,1.21-7.63,4.65-8.64.38-.11.8-.19,1.23-.22,1.76-.67,3.84-.53,5.74.4h0c2.43,1.19,3.98,3.82,4.04,6.88.06,3.09-1.41,5.81-3.83,7.1-1.37.73-2.72,1.1-4.06,1.1ZM485.83,43.44c-.64,0-1.27.12-1.85.36l-.26.06c-.36.02-.69.07-1,.16-2.63.77-4.15,3.69-3.53,6.77.39,1.95,1.67,3.81,3.12,4.53,2.17,1.08,4.19,1.04,6.37-.12,1.88-1.01,3.02-3.17,2.97-5.65-.05-2.44-1.25-4.53-3.13-5.45-.9-.44-1.82-.66-2.7-.66Z"/></g></g></g></g><g id="qld"><g id="Queensland"><path d="M1090.27,492.6c-2.58-6.46-9.21-24.39-9.37-25.84-.16-1.45.48-13.24-.48-18.9-.97-5.65-.48-3.72-.48-3.72l2.75-14.7-3.39-3.71-1.62.97s-4.2-3.88-4.04-5.81c.16-1.94,1.94-4.36,1.62-6.3-.32-1.94-2.75-6.3-9.85-6.46.81-1.78-.16-3.55-1.62-5.17,0-3.71-.16-6.14-.16-6.14,0,0-4.52-.16-6.95-2.75-2.42-2.58-7.59-9.05-10.01-13.08-2.42-4.04-5.49-6.62-6.95-5.98-1.45.65-5.01,1.62-5.01,1.62l-10.34-15.67-1.62,3.39s-3.07-2.1-3.07-3.55-.48-3.71-.97-6.78-.16-10.98-.32-14.05c-.16-3.07-2.1-7.75-6.3-10.01.32,3.39.32,4.2-.16,5.65-1.45-.97-12.6-8.4-13.08-17.28-2.42,2.75-5.98,4.68-5.33,7.27.65,2.58,4.36,7.91,4.36,7.91,0,0-6.46-6.46-7.59-5.98l-1.13.48s-6.78-14.21-6.62-16.8c.16-2.58.81-5.81.32-7.27s-4.36-3.07-4.36-4.52-.65-5.17-.65-5.17l-1.94,1.29s2.26-3.39.32-6.62c-1.94-3.23-5.49-1.62-5.49-1.62l-.32-3.23-5.98-.48,2.26-2.1s-5.81-4.04-5.65-7.11c.16-3.07,2.58-2.58,2.58-2.58l4.85,2.42s-1.29-4.2-5.01-8.4c-3.72-4.2-6.62-5.17-8.08-4.52-1.45.65-1.94,1.78-1.94,1.78,0,0-5.24-8.93-9.39-8.61l-3.58,1.81-2.33-6.67s-1.5,3.17-1.33,4.83c-3.17-1.83-5-4.67-5-4.67,0,0,1.17.17-.17-2.67-1.33-2.83-4.33-8.33-4.33-8.33,0,0,.33,3.83-.5,4.33-.83.5-6.67.67-7.33-.33s-3.67-7-3.67-7l-1.33,3.67s-8.83-5-11-6.33c-2.17-1.33-6.5-4.67-6.5-7s.83-5.67.17-7.83c-.67-2.17-6.17-7.5-6.67-11.5s2-12.17,2-14.83-3.17-9.33-4.33-14c-1.17-4.67-.17-7.33-.17-7.33,0,0-5.83-.5-10-6.83-4.17-6.33-3.17-7.67-2.33-11,0,0,.75-3-2.42-6.17-3.17-3.17-1-8.5-1.5-9.83-.5-1.33-3.33-5.08-3.25-7,.08-1.92.25-2.58,2.33-2.5-.5-1.58-1.5-3.67-1.33-4.67s2.83-3.5,3.33-4.33c.5-.83.5-1.42.5-1.42,0,0-4.08-.67-6.58-2.58-2.5-1.92-12.08-9.17-13.08-10.33s-4.58-4.92-4.17-8.25c-.92-.17-4.67,1.33-6.17,3.25-1.83-1-2.58-1.08-2.58-1.08,0,0-1.75,4.92-4.08,6.08-2.33,1.17-5.83-.33-6.33-3s.42-4.25-.58-6.17c-1-1.92-5.25-7.42-6-9.5-.75-2.08-.33-13.08-.5-16.08s-1.58-9.5-1.58-9.5l-2.75,1s.83-4.58.17-7.17c-.67-2.58-2.17-5.5-3.33-6.83s-5.5-1.5-5.75-5.25,3.08-5.08,4.58-5.25c.83-.42,0-1.5-3.92-1.83-3.92-.33-6.25-2.42-6.83-8.67-.58-6.25.75-9.17,0-11.17s-2.67-8.42-8.67-7.17c2.42-3.08,3.58-5.08,1.17-6.08-2.42-1-3.92,2.25-4.67,3.25s-1.5,1.08-3.5,1.75c-2,.67-2.75,2.58-3.25,5.5-.5,2.92-3.17,18.58-3.17,22.25s-.17,5.75-.17,5.75l-3.08-3.83s-3.67,12.5-5.92,16c2.92.67,7.17,1.17,8.33,8.25-1.42-1.5-3.58-4.08-3.58-4.08,0,0-1.17,2.83-2.67,4.5-1.5,1.67-4.25,4.42-4.25,4.42,0,0,2.42,2.58,2.33,5.83s-.5,4.08-1.75,8c-1.25,3.92-2.67,7.75-1.67,12.33s2,7.17,1.75,13.92,0,24.67,0,24.67c0,0-3.58,4.33-4.25,7.33-.67,3-1.17,8.42-.25,12-1.58,4.42-8.58,18.58-10.33,22.08s-4,9.92-4.67,12.17c-.67,2.25-2.42,7.08-9.92,8.92-7.5,1.83-18.75,1.83-29.08-6.75-6.22-5.17-7.58-5.58-10-13.67,0,0-1.75-3.5-6.58-3.25s-9.17.75-13-1.25-6.5-3.92-7.92-5.5c-.83-.93-3.45-4.36-5.49-7.06.09,5.58.27,12.49.68,16.28.75,7.03.75,39.14.5,52.19-.25,13.05.75,15.56.75,21.83s-.75,30.11,0,38.89c.75,8.78-.5,28.1-.75,39.65-.25,11.54,1.25,55.96.25,69.51-1,13.55.25,57.71.25,57.71,0,0,18-.61,30.73-.61s30.73.88,36.88.88h14.93s.88,27.66.88,36v31.61s35.56-.44,58.39.88c22.83,1.32,36-1.32,50.49-.44,14.49.88,54.88,0,66.29,0,0,0,12.66.69,18.21.8s6.68-.23,9.62-.11c2.94.11,8.49-.11,10.75-1.47,2.26-1.36,1.92-3.73,1.92-3.73h3.85l-.45-4.07,3.85.91s3.62-5.43,4.3-5.66c.68-.23,4.41,1.36,4.41,1.36,0,0,3.96,1.47,6.68,1.13,2.72-.34,7.24-2.94,7.24-2.94,0,0,2.83,2.04,5.77,2.38s6.68,2.38,6.68,2.38c0,0,1.7-.79,6.68.11,4.98.91,4.98,1.7,6.34,3.51,1.36,1.81,2.51,4.3,2.73,6.22s.68,7.13.68,7.13c0,0,3.04-1.02,4.62-2.26,1.58-1.24,6.79-8.94,6.79-8.94,0,0,3.96,4.64,5.09,4.53s5.21-4.07,5.21-4.07c0,0-2.15-7.24-.68-10.64,2.94.45,6.22.23,6.22.23l5.77-6s6.34,2.94,9.39,4.41l2.49-2.04s5.09,1.02,7.13,1.58c2.94-1.47,5.66-3.51,5.66-3.51l5.28-.97c-.16-1.67-.63-3.88-1.82-6.83Z" fill="#8b6e82" stroke="#ffffff"/></g><g id="towns-2"><g id="Brisbane"><g id="marker-2"><path d="M1091.27,463.91c-3.01-6.15-10.83-7.13-14.83-6.27-.68.15-1.98,1.21-2.03,1.27-4.24,4.64-5.82,10-1.57,15.69,3.45,4.63,10.15,5.8,14.93,3.26,4.48-2.38,5.68-9.5,3.5-13.96ZM1091.27,463.91c-3.01-6.15-10.83-7.13-14.83-6.27-.68.15-1.98,1.21-2.03,1.27-4.24,4.64-5.82,10-1.57,15.69,3.45,4.63,10.15,5.8,14.93,3.26,4.48-2.38,5.68-9.5,3.5-13.96Z" fill="#fff"/><path d="M1082.32,480.37c-4.01,0-7.98-1.8-10.42-5.07-1.83-2.45-2.73-4.97-2.73-7.51,0-3.23,1.46-6.49,4.38-9.67.09-.1,1.59-1.4,2.65-1.62,4.79-1.03,12.96.43,16.13,6.9h0c.78,1.6,1.18,3.52,1.18,5.46,0,4.02-1.7,8.19-5.19,10.04-1.87.99-3.94,1.47-6,1.47ZM1071.49,467.75c0,2.06.76,4.1,2.29,6.15,2.97,3.98,8.99,5.29,13.44,2.93,2.61-1.39,3.92-4.78,3.92-8.03,0-1.57-.31-3.11-.92-4.37h0c-2.86-5.85-10.36-6.33-13.53-5.64-.29.08-1.16.7-1.48.98-2.48,2.71-3.72,5.36-3.72,7.98Z" fill="#1c1c1b"/><path d="M1081.06,475.77c-1.26,0-2.52-.32-3.79-.95-2.18-1.09-3.57-3.62-3.98-5.66-.79-3.91,1.21-7.63,4.65-8.64.38-.11.8-.19,1.23-.22,1.76-.67,3.84-.53,5.74.4h0c2.44,1.19,3.98,3.82,4.04,6.88.06,3.09-1.41,5.81-3.83,7.1-1.37.73-2.71,1.1-4.06,1.1ZM1081.51,461.49c-.64,0-1.27.12-1.85.36l-.26.06c-.36.02-.69.07-1,.16-2.63.77-4.15,3.69-3.52,6.77.39,1.95,1.67,3.81,3.12,4.53,2.17,1.08,4.19,1.04,6.37-.12,1.88-1.01,3.02-3.17,2.97-5.65-.04-2.44-1.24-4.53-3.13-5.45-.9-.44-1.82-.66-2.7-.66Z"/></g></g></g></g><g id="sa"><path d="M753.87,786.99c0-3.45.74-27.14,0-30.35-.74-3.21-.25-13.82.49-20.97.74-7.16.32-34.51.32-34.51l.03-.43s-1.02-44.46-.51-53.14c.51-8.69.51-72.56,0-88.4-.51-15.84.56-38.29.56-38.29l.24-2.44v-31.61c0-8.34-.88-36-.88-36h-14.93c-6.15,0-24.15-.88-36.88-.88s-30.73.61-30.73.61c0,0-8.53-.25-15.31-.5-6.77-.25-33.12.5-47.93,0-14.8-.5-25.09,0-41.9-.5s-19.82,1.51-50.18.75c-30.36-.75-52.69.25-63.99.5-7.35.16-14.91-.42-19.29-.84.32,3.99.64,8.23.74,11.94.22,8.23-.87,61.28-1.08,81.21-.22,19.92,0,26.64.22,35.95.14,6.16,0,20.18-.11,28.97-.06.02-.12.04-.18.06,3.72-1.25,6.93-2.19,8.97-2.52,6.96-1.13,19.8-2.13,28.64-1.63,8.84.5,16.54-2.76,18.99-3.13s4.01-.56,8.65,1c4.64,1.57,13.47,4.14,19.68,6.14s14.66,5.45,18.17,8.33c3.51,2.88,10.15,7.33,13.35,7.58,3.2.25,4.39.5,5.76-1.19,1.38-1.69,2.95-2.88,5.14-1.25,2.19,1.63,4.45,2.82,7.02,5.83-1.63,1.38-3.51,2.44-2.32,5.89,1.44-1.07,6.7-4.95,10.72,6.2-3.38.69-4.2,1-4.2,1,0,0-1.32,3.45,1.07,7.39,2.38,3.95,4.32,4.01,5.26,4.32.94.31,5.33.75,6.89,2.19,1.57,1.44,2.63,2.82,4.76,8.02,2.13,5.2,7.52,10.46,9.15,13.85,1.63,3.38,5.39,12.34,6.02,18.42-1.83,2.11-2.22,2.36-2.3,2.35.21.36,5.15,9.09,6.5,10.68,1.38,1.63,2.51,3.95,3.2,3.63s2.51-2.76,2.88-2.44c.38.31,3.76,3.26,3.76,3.26,0,0,2.38-4.7,3.01-7.52-2.13-.06-2.63-.13-2.63-.13,0,0-2.01-3.2.25-5.7,2.26-2.51,3.95-2.57,5.64-.56-.38-4.14.31-7.33,2.88-10.4,2.57-3.07,8.33-10.65,12.53-12.97,4.2-2.32,6.83-3.26,9.96-4.01s3.57-1.13,4.89-4.2c1.32-3.07,2.69-9.78,4.64-12.97,1.94-3.2,4.07-8.84,7.83-6.02.38-3.76,1.88-13.97,1.88-13.97,0,0,2.01,9.15,3.32,11.15,1.32,2.01,4.07,7.21,4.07,7.21,0,0-4.14,3.76-4.76,4.32-.63.56-1.63,1.19-1.25,2.26s2.82,5.76,3.26,6.83c.44,1.07-.88,3.51-2.19,4.89-1.32,1.38-7.52,6.39-9.09,9.96-1.57,3.57-2.13,9.4-1.82,15.29.31,5.89.13,8.84-.13,10.97-.25,2.13-1.07,4.64-4.07,4.45-3.01-.19-5.26-.94-7.58,2.01-2.32,2.95-2.82,5.45-3.07,6.33-.25.88-.44,2.38.94,2.44,1.38.06,2.88-.63,4.57-1.75,1.69-1.13,5.2-3.7,7.27-4.51s4.64-1.38,6.96,1.25c1.38-2.76,6.02-13.47,7.27-17.23,1.25-3.76,4.32-15.35,4.32-15.35,0,0,2.88,2.63,5.64,8.02,2.76,5.39,5.45,13.91,4.95,20.62-.5,6.7-1.94,15.98-9.71,18.61,3.45,1.13,6.33,1.69,11.59.25,5.26-1.44,5.83-2.19,5.83-2.19,0,0,12.03,7.21,18.61,16.48s9.34,17.55,10.28,20.93c.94,3.38-1.07,5.2-1.07,5.2,0,0-5.2,5.2.25,9.4-.63,2.51-.63,3.32.56,5.45,1.19,2.13,8.21,12.6,10.72,15.48,2.51,2.88,4.32,6.02,9.15,8.71,4.11,2.3,7.99,2.37,11.07,3.15-.51-10.39-1.21-25.04-1.21-27.23Z" fill="#8b6e82" stroke="#ffffff" /><g id="towns-3"><g id="Adelaide"><g id="marker-3"><path d="M700.6,702.62c-3.01-6.15-10.83-7.13-14.83-6.27-.68.15-1.98,1.21-2.03,1.27-4.24,4.64-5.82,10-1.57,15.69,3.45,4.63,10.15,5.8,14.93,3.26,4.48-2.38,5.68-9.5,3.5-13.96ZM700.6,702.62c-3.01-6.15-10.83-7.13-14.83-6.27-.68.15-1.98,1.21-2.03,1.27-4.24,4.64-5.82,10-1.57,15.69,3.45,4.63,10.15,5.8,14.93,3.26,4.48-2.38,5.68-9.5,3.5-13.96Z" fill="#fff"/><path d="M691.65,719.08c-4.01,0-7.98-1.8-10.42-5.07-1.83-2.45-2.73-4.97-2.73-7.51,0-3.23,1.46-6.49,4.38-9.67.09-.1,1.57-1.39,2.65-1.62,4.79-1.03,12.96.43,16.13,6.9.78,1.6,1.18,3.51,1.18,5.46,0,4.02-1.7,8.19-5.19,10.04-1.87.99-3.94,1.47-6,1.47ZM680.82,706.48c0,2.06.76,4.09,2.28,6.13,2.97,3.98,9,5.29,13.44,2.93,2.61-1.39,3.92-4.78,3.92-8.03,0-1.57-.31-3.11-.92-4.37h0c-2.86-5.85-10.35-6.33-13.53-5.64-.28.08-1.11.66-1.45.96-2.5,2.74-3.74,5.4-3.74,8.03Z" fill="#1c1c1b"/><path d="M690.4,714.49c-1.26,0-2.52-.32-3.79-.95-2.18-1.09-3.57-3.63-3.98-5.66-.79-3.91,1.21-7.63,4.65-8.64.38-.11.8-.19,1.23-.22,1.75-.67,3.84-.53,5.74.4h0c2.44,1.19,3.98,3.82,4.04,6.88.06,3.09-1.41,5.81-3.83,7.1-1.37.73-2.71,1.1-4.06,1.1ZM690.84,700.21c-.64,0-1.27.12-1.85.36l-.26.06c-.36.02-.69.07-1,.16-2.63.77-4.15,3.69-3.52,6.77.39,1.95,1.67,3.81,3.12,4.53,2.17,1.08,4.19,1.04,6.37-.12,1.88-1.01,3.02-3.17,2.97-5.65-.04-2.44-1.24-4.53-3.13-5.45h0c-.9-.44-1.82-.66-2.7-.66Z"/></g></g></g></g><g id="wa"><g id="western_australia"><g id="Western_australia"><path d="M363.33,625.54c1,.19.81-.56.81-.56,0,0,9.09,1.57,12.85,1.5,3.76-.06,20.62-3.26,29.01-6.83,5.98-2.54,18.12-7.43,27.12-10.45.11-8.79.25-22.81.11-28.97-.22-9.31-.43-16.02-.22-35.95.22-19.92,1.3-72.98,1.08-81.21-.22-8.23-1.52-19.06-1.52-24.04s.87-11.48.87-15.16,1.3-16.67.65-19.92c-.65-3.25-1.52-6.5-1.3-12.99.22-6.5,1.52-40.71,1.73-46.99.22-6.28-1.08-36.81-1.08-44.18s.65-62.58.65-70.6.22-12.99-.22-17.54c-.43-4.55.87-7.8.22-13.43-.65-5.63,0-20.57-.65-26.2-.65-5.63.22-25.99-.43-29.02-.65-3.03,0-5.85,0-9.53s-1.08-9.31-.65-12.13c.37-2.38,1.82.35.68-5.71-1.58,0-3.92-.03-5-.28-1.71-.4-10.02-2.64-10.02-2.64,0,0,.92,5.8,2.9,7.38-.53-.53-6.06-1.45-7.25-1.32.26,3.95,1.19,10.68,2.37,14.63-4.48-5.54-9.09-12.52-3.69-22.01l-2.9-3.43s-1.71,1.85-3.03.92c-1.32-.92-4.48-4.48-6.46-7.51s-8.96-11.2-11.73-12.13c-2.77-.92-4.61-.4-4.61-.4,0,0-3.16-4.35-6.19-4.22-3.03.13-5.01,1.05-5.01,1.05,0,0,.26,3.69,2.24,5.54-1.85,1.58-5.01,4.88-5.8,7.25-1.98-1.32-3.95-4.35-1.45-8.04-1.32.26-6.19,5.14-8.96,5.01-2.77-.13-6.59-1.58-6.59-1.58,0,0,1.85,1.45,1.32,3.69-.53,2.24-1.98,8.96-1.71,10.94,0,0-6.03-1.62-6.59-7.78l-2.05-1.12s-1.12,5.97-2.98,7.65c-1.87,1.68-8.21,4.85-8.39,6.72s0,5.41,5.6,5.22l-.75,4.48s-5.97,1.49-6.71.56c-.75-.93-1.68-3.73-1.68-3.73,0,0-4.85,4.48-5.6,6.34,4.66,2.61,6.53,2.98,6.53,2.98,0,0-4.29-.93-7.09.19-2.8,1.12-6.53,4.85-8.21,5.97-1.68,1.12-3.73,5.04-1.12,10.63l1.87-.37s.56,3.73-.37,6.16l-.93-1.49-4.29,7.83s-16.41-7.27-18.47-8.02c-2.24,2.98-4.66,11.56-4.48,13.06,5.97,2.61,5.78,2.42,10.45,15.3-1.68-1.12-4.85-4.85-7.65-4.1,1.12,4.85.19,12.12-1.49,13.8-2.61-4.29-11.19-18.84-9.33-23.32-2.42-.19-6.72-4.48-2.8-5.78-1.31-2.24-2.42-4.29-2.42-4.29,0,0-4.85,8.02-6.9,12.5-2.98.37-3.92.37-3.92.37,0,0-2.98,2.98-.37,6.16-1.49.19-5.22,1.49-9.33,6.16-4.1,4.66-2.24,9.14-2.05,11.56.19,2.42.56,8.21-.19,10.07l4.48.19.56,4.85s-11.1,6.35-13.47,8.23-4.25,3.88-3.25,6.25c-2.25,1-3.25,1.12-3.25,1.12,0,0-1.62,11-4.5,14.25s-11.5,10.88-16.25,13-21.5,9.12-26.12,10-7,1.88-8.5,1-3.62-2.62-7.75-1.88-9.62,5.75-13.88,7.88-14,5.38-15,2c-1.88,1-7.75,5.75-9.5,7.25s-8.88,5.62-12.75,3.62-3.12-2.62-4.88-2.25-2.88.62-3.75,1.38-1.88,2-3.12,1.38-2.12-2-2.12-2l.5-4.5s-2.75,3.62-7,6-7.88,3.38-9.75,4.38-6.25,5.75-8.5,7.62-5,2.88-6,4.12-2.25,4.38-4.12,5.5-5.62,3.62-10.75,4.38-12.38,4.25-14.25,10.62l-2.21-.83s-1.37,5.47-3.23,10.57c-1.87,5.1-3.11,3.48-5.85,3.86-.75-.75-1.87-7.09-1.74-9.7.12-2.61,2.36-8.46,2.36-8.46l-5.97,1s-3.36,6.72-5.6,14.43c-2.24,7.71-.5,18.04.62,25.13,1.12,7.09-.5,10.33-.5,10.33,0,0-4.11,2.74-7.22,9.58-3.11,6.84-.87,16.17,1.37,21.65,2.24,5.47,5.85,16.55,8.21,21.77,2.36,5.22,5.72,9.58,9.95,12.69,1.49,6.84-2.11,15.68-4.48,19.41-4.48-2.36-4.73-12.57-4.73-12.57l-1.37,1.24c-1.74-8.83-8.96-17.29-8.96-17.29,0,0-.5,1.62-.37,6.97.12,5.35,4.11,9.95,6.59,13.68,2.49,3.73,2.99,6.34,2.74,8.96-.25,2.61-2.49,2.74-4.48,2.11-1.99-.62-8.71-15.18-8.71-15.18l-1.49,1.37c-.5-2.61-6.34-13.19-8.46-16.79-.75,2.61-.12,5.72,1.37,9.83,1.49,4.11,8.83,15.8,12.69,20.9,3.86,5.1,17.04,27.24,19.78,31.23-4.48,6.1-1,17.54,3.23,21.77,4.23,4.23,4.85,6.72,5.85,11.07,1,4.35,2.36,8.09,4.85,12.07s5.47,11.2,6.1,15.68c.62,4.48.12,16.42,1.24,25.5,1.12,9.08,5.97,14.18,10.33,21.9,4.35,7.71,7.59,16.05,8.46,19.03.87,2.99,2.49,7.22.75,12.81-1.87,5.47-1.62,6.47-.37,8.46-4.23,3.98-1.74,20.03-1.62,25.38.12,5.35-1.99,7.22-5.1,9.83-3.11,2.61-6.22,1.99-12.44-.12-.75,4.11-.37,14.06-.37,14.06,0,0-.18.38.5,6.22.67,5.84,2.22,7.35,3.34,7.35s5.62-1.57,9.67.9c4.05,2.47,7.19,3.37,10.12,9.44,2.92,6.07,14.84,7.42,16.64,8.54s5.84,2.02,6.52,2.92c.67.9,1.12,1.8,3.37,1.35,2.25-.45,5.62-2.02,9.67-2.02s6.29,1.12,7.87,3.82c2.7-.67,7.19-2.7,12.81-1.57-.67-1.57-1.12-2.47-1.12-2.47h5.4s2.92-5.17,5.4-2.47c.67-3.6,0-4.5,0-4.5,0,0,4.72-1.35,7.19-4.27s4.5-7.64,10.57-6.74c6.07.9,6.29,2.7,6.29,2.7,0,0,4.12-4.28,4.35-5.18.22-.9-.06-1.88-.06-1.88,0,0,1.34-.14,3.59,1.66-1.8-4.05-2.18-8.98,8.77-12.59,6.95-2.29,13.49.67,13.49.67,0,0,4.36-5.74,19.56-5.84,10.12-.07,14.05,2.49,17.2,1.81s5.76-2.01,5.76-2.01c0,0,2.33,5.54,4.57,5.76,2.25.22,4.1-1.28,5.45-2.63,3.37.45,4.83,1.32,4.83,1.32,0,0,6.64-5.45,12.22-3.01,4.31,1.89,6.16,4.15,6.16,4.15,0,0,.42-2.58,2.11-2.64,1.69-.06,4.82.06,5.89-.56,1.07-.63,12.53-11.59,13.1-12.53.56-.94,1.38-2.07,1.57-5.33.19-3.26,1.19-10.78,8.58-12.6,7.39-.56,11.22-1.5,15.1-4.01,3.89-2.51,7.14-3.82,13.79-8.65,6.64-4.83,17.8-12.28,25.06-9.46Z" fill="#8b6e82" stroke="#ffffff" /></g></g><g id="towns-4"><g id="Perth"><g id="marker-4"><path d="M89.97,618.76c-3.01-6.15-10.83-7.13-14.83-6.27-.68.15-1.98,1.21-2.03,1.27-4.24,4.64-5.82,10-1.57,15.69,3.45,4.63,10.15,5.8,14.93,3.26,4.48-2.38,5.68-9.5,3.5-13.96ZM89.97,618.76c-3.01-6.15-10.83-7.13-14.83-6.27-.68.15-1.98,1.21-2.03,1.27-4.24,4.64-5.82,10-1.57,15.69,3.45,4.63,10.15,5.8,14.93,3.26,4.48-2.38,5.68-9.5,3.5-13.96Z" fill="#fff"/><path d="M81.02,635.22c-4.01,0-7.98-1.8-10.42-5.07-1.82-2.45-2.73-4.97-2.73-7.51,0-3.23,1.46-6.49,4.38-9.67.09-.1,1.58-1.39,2.65-1.62,4.8-1.03,12.97.43,16.13,6.9h0c.78,1.6,1.18,3.51,1.18,5.46,0,4.02-1.7,8.19-5.19,10.04-1.87.99-3.94,1.47-6,1.47ZM70.19,622.6c0,2.06.76,4.1,2.29,6.15,2.97,3.98,9,5.29,13.44,2.93,2.61-1.39,3.92-4.78,3.92-8.03,0-1.57-.31-3.11-.92-4.37-2.86-5.85-10.35-6.32-13.53-5.64-.29.08-1.16.7-1.48.98-2.48,2.71-3.72,5.36-3.72,7.98Z" fill="#1c1c1b"/><path d="M79.77,630.63c-1.26,0-2.52-.32-3.79-.95-2.18-1.09-3.57-3.63-3.98-5.66-.79-3.91,1.21-7.63,4.65-8.64.38-.11.8-.19,1.23-.22,1.76-.67,3.84-.53,5.74.4,2.43,1.19,3.98,3.82,4.04,6.88.06,3.09-1.41,5.81-3.83,7.1-1.37.73-2.71,1.1-4.06,1.1ZM80.21,616.35c-.64,0-1.27.12-1.85.36l-.26.06c-.36.02-.69.07-1,.16-2.63.77-4.15,3.69-3.52,6.77.39,1.95,1.67,3.81,3.12,4.53,2.17,1.08,4.19,1.04,6.37-.12,1.88-1.01,3.02-3.17,2.97-5.65-.05-2.44-1.25-4.53-3.13-5.45h0c-.9-.44-1.82-.66-2.7-.66Z"/></g></g></g></g><g id="tas"><g id="tasmania"><path d="M853.83,902.77s16.51,6.49,23,9.17c6.49,2.68,27.09,10.72,27.09,10.72,0,0-.99-2.4,1.41-3.81,2.4-1.41,3.53-.71,5.36,1.41.28-3.81.42-4.52,1.69-5.08,1.27-.56,4.52-1.83,10.72-1.55,6.21.28,7.62-2.12,9.31-3.39,1.69-1.27,4.8-3.25,6.91-.42.71-2.68,1.55-3.39,3.25-3.67,1.69-.28,5.08-.42,6.49,3.67,1.41,4.09.85,3.67.85,8.33s-.56,21.03-.71,25.82c-.14,4.8-.28,13.69-.28,13.69,0,0-3.67-5.36-6.63-5.5-.56,4.8-1.69,12.56-1.98,14.82-.28,2.26-.85,7.48-1.69,10.02-.85,2.54-3.25,5.64-5.5,5.93-2.26.28-4.66.28-5.79-1.55.14,2.12-1.13,3.95-1.13,3.95,0,0-4.23-4.94-5.93-5.5.14,3.95.14,6.21-.56,9.17-.71,2.96-1.55,8.04-3.25,10.72-1.69,2.68-3.95,7.06-4.94,8.33-.99,1.27-1.83,2.12-3.53,1.13s-6.21-3.39-10.02-3.1c-3.81.28-8.61,1.69-8.61,1.69,0,0-5.5-5.08.99-8.18-5.36-3.53-9.45-8.33-12.7-12.42-3.25-4.09-11.71-20.6-11.29-28.36,5.5,3.53,9.03,6.49,9.03,6.49,0,0-8.89-13.12-11.29-17.07-2.4-3.95-10.3-20.32-10.72-26.25-.42-5.93-1.83-16.93.42-19.19Z" fill="#d67847"/></g><g id="towns-5"><g id="Hobart"><g id="marker-5"><path d="M931.98,975.91c-3.01-6.15-10.83-7.13-14.83-6.27-.68.15-1.98,1.21-2.03,1.27-4.24,4.64-5.82,10-1.57,15.69,3.45,4.63,10.15,5.8,14.93,3.26,4.48-2.38,5.68-9.5,3.5-13.96ZM931.98,975.91c-3.01-6.15-10.83-7.13-14.83-6.27-.68.15-1.98,1.21-2.03,1.27-4.24,4.64-5.82,10-1.57,15.69,3.45,4.63,10.15,5.8,14.93,3.26,4.48-2.38,5.68-9.5,3.5-13.96Z" fill="#fff"/><path d="M923.03,992.37c-4.01,0-7.98-1.8-10.42-5.07-1.83-2.45-2.73-4.97-2.73-7.51,0-3.23,1.46-6.49,4.38-9.67.09-.1,1.57-1.39,2.65-1.62,4.79-1.03,12.96.43,16.13,6.9.78,1.6,1.18,3.51,1.18,5.46,0,4.02-1.7,8.19-5.19,10.04-1.87.99-3.94,1.47-6,1.47ZM912.2,979.77c0,2.06.76,4.09,2.28,6.13,2.97,3.98,9,5.29,13.44,2.93,2.61-1.39,3.92-4.78,3.92-8.03,0-1.57-.31-3.11-.92-4.37h0c-2.86-5.85-10.35-6.33-13.53-5.64-.28.08-1.11.66-1.45.96-2.5,2.74-3.74,5.4-3.74,8.03Z" fill="#1c1c1b"/><path d="M921.78,987.78c-1.26,0-2.52-.32-3.79-.95-2.18-1.09-3.57-3.63-3.98-5.66-.79-3.91,1.21-7.63,4.65-8.64.38-.11.8-.19,1.23-.22,1.75-.67,3.84-.53,5.74.4h0c2.44,1.19,3.98,3.82,4.04,6.88.06,3.09-1.41,5.81-3.83,7.1-1.37.73-2.71,1.1-4.06,1.1ZM922.22,973.5c-.64,0-1.27.12-1.85.36l-.26.06c-.36.02-.69.07-1,.16-2.63.77-4.15,3.69-3.52,6.77.39,1.95,1.67,3.81,3.12,4.53,2.17,1.08,4.19,1.04,6.37-.12,1.88-1.01,3.02-3.17,2.97-5.65-.04-2.44-1.24-4.53-3.13-5.45h0c-.9-.44-1.82-.66-2.7-.66Z"/></g></g></g></g><g id="nsw"><g id="new_south_wales"><g id="new-south_wales"><path d="M754.05,520.63s-1.07,22.45-.56,38.29c.51,15.84.51,79.71,0,88.4-.51,8.69.51,53.14.51,53.14,0,0,5.13-2.81,10.96,1.82,5.83-2.82,3.42-3.02,5.83-2.82,2.41.2,5.63,1.41,7.84,1.21,2.21-.2,6.03.2,6.64.8.6.6,5.23,4.02,6.44,6.64,1.21,2.61,1.4,6.44,3.21,8.04l1.81,1.61s3.82-3.82,11.06-3.62c7.24.2,9.86,3.82,9.86,3.82,0,0,1.8,8.65,4.42,12.07,2.61,3.42,4.02,5.83,5.63,5.83h3.82s2.01,2.21,4.42,2.61c2.41.4,3.22,1.61,4.63,3.42s3.42,2.21,4.42,4.02c1.01,1.81.21,5.03.21,5.03,0,0,5.63,2.61,7.64,4.02,2.01,1.41,4.42,2.82,7.04,2.61,2.61-.2,3.42-.8,3.42-.8,0,0-.4-4.22,0-5.63.4-1.41,4.83-2.82,4.83-2.82,0,0,1.81,1.41,3.62,1.41s8.04-.4,8.04-.4c0,0,.6,1.81,3.62,1.81s5.03-.4,5.03-.4c0,0,6.03,4.02,7.84,3.82,1.81-.2,4.63-2.82,7.24-2.61,2.61.2,5.83,1.61,5.83,1.61,0,0,8.04.6,11.26,0,3.22-.6,5.83-1.81,9.05-2.61,3.22-.8,6.04-3.02,9.66.8.2,4.63.8,5.63,1.8,7.44,3.02,3.82,5.44,8.85,4.03,16.29,5.63,2.61,12.26,4.42,18.5,7.64,6.23,3.22,11.86,7.04,14.08,7.24,2.21.2,7.04,1.41,9.65,1.41.66.66,1.62,2.11,2.64,3.84.07-.23.15-.46.21-.7,3.23,1.62,4.04,1.45,5.17.48-.65-2.1-1.45-6.78-1.45-6.78,0,0,2.75-1.45,2.91-2.42.16-.97-3.07-3.55-3.07-3.55,0,0-.16-5.98.48-8.4.65-2.42,2.75-4.85,3.88-9.85s.16-18.74,4.04-22.77c-2.1.16-2.58.32-2.58.32l2.75-3.39-2.58-3.55s3.39.32,4.52-1.29c1.13-1.62,3.88-5.49,5.81-10.18,1.94-4.68,4.85-5.98,4.85-5.98l-.16-4.04,2.42,2.26s-.32-4.85-.97-6.3c-.65-1.45-3.23-1.62-3.23-1.62,0,0,6.46-2.75,6.95-4.2.32-2.75.32-7.43,2.26-11.95,1.94-4.52,9.05-13.08,9.05-13.08,0,0-1.78-.97-4.2-.32,3.55-2.42,3.71-2.91,3.71-3.88s-1.29-2.42-1.29-2.42c0,0,2.26-.48,3.07-3.07.81-2.58.48-6.46.48-6.46,0,0,2.75-1.13,3.07-2.42.32-1.29.81-4.68,1.94-6.3.32-2.42.48-4.36,1.13-4.85,1.94.65,2.58.48,3.39-1.62.81-2.1,1.94-5.17,1.94-5.17,0,0,1.29.97,2.42.48,1.13-.48,6.14-2.1,8.08-3.39-.48-1.29-1.62-2.42-3.88-2.1,5.01-2.58,11.95-6.3,13.57-9.37,1.62-3.07.97-5.49.97-5.49l-3.23-.48s1.29-.81,2.42-3.88,2.26-4.85,4.2-5.98c1.94-1.13,4.68-8.24,4.68-8.24,0,0,3.71-9.05,4.04-11.95.32-2.91-.97-12.6-.65-17.44s3.88-18.09,5.98-26.81c2.1-8.72,4.68-17.77,7.59-24.39s3.39-8.88,3.07-12.44c-.32-3.55-2.1-6.3-2.1-7.75,0-.79.23-2.02.03-3.99l-5.27.97s-2.72,2.04-5.66,3.51c-2.04-.57-7.13-1.58-7.13-1.58l-2.49,2.04c-3.06-1.47-9.39-4.41-9.39-4.41l-5.77,6s-3.28.23-6.22-.23c-1.47,3.4.68,10.64.68,10.64,0,0-4.07,3.96-5.21,4.07s-5.09-4.53-5.09-4.53c0,0-5.21,7.7-6.79,8.94-1.58,1.24-3.62,2.26-3.62,2.26,0,0-.45-5.21-.68-7.13s-2.38-4.41-3.73-6.22c-1.36-1.81-1.36-2.6-6.34-3.51-4.98-.91-6.68-.11-6.68-.11,0,0-3.73-2.04-6.68-2.38s-5.77-2.38-5.77-2.38c0,0-4.53,2.6-7.24,2.94-2.72.34-6.68-1.13-6.68-1.13,0,0-3.73-1.58-4.41-1.36-.68.23-4.3,5.66-4.3,5.66l-3.85-.91.45,4.07h-3.85s.34,2.38-1.92,3.73c-2.26,1.36-7.81,1.58-10.75,1.47-2.94-.11-4.07.23-9.62.11-5.55-.11-18.21-.8-18.21-.8-11.41,0-51.8.88-66.29,0-14.49-.88-27.66,1.76-50.49.44-22.83-1.32-58.39-.88-58.39-.88l-.24,2.44Z" fill="#8b6e82" stroke="#ffffff" /></g></g><g id="towns-6"><g id="Sydney"><g id="marker-6"><path d="M1039.88,671.36c-3.01-6.15-10.83-7.13-14.83-6.27-.68.15-1.98,1.21-2.03,1.27-4.24,4.64-5.82,10-1.57,15.69,3.45,4.63,10.15,5.8,14.93,3.26,4.48-2.38,5.68-9.5,3.5-13.96ZM1039.88,671.36c-3.01-6.15-10.83-7.13-14.83-6.27-.68.15-1.98,1.21-2.03,1.27-4.24,4.64-5.82,10-1.57,15.69,3.45,4.63,10.15,5.8,14.93,3.26,4.48-2.38,5.68-9.5,3.5-13.96Z" fill="#fff"/><path d="M1030.93,687.82c-4.01,0-7.98-1.8-10.42-5.07-1.83-2.45-2.73-4.97-2.73-7.51,0-3.23,1.46-6.49,4.38-9.67.09-.1,1.57-1.39,2.65-1.62,4.79-1.03,12.96.43,16.13,6.9.78,1.6,1.18,3.51,1.18,5.46,0,4.02-1.7,8.19-5.19,10.04-1.87.99-3.94,1.47-6,1.47ZM1020.1,675.22c0,2.06.76,4.09,2.28,6.13,2.97,3.98,9,5.29,13.44,2.93,2.61-1.39,3.92-4.78,3.92-8.03,0-1.57-.31-3.11-.92-4.37h0c-2.86-5.85-10.35-6.32-13.53-5.64-.28.08-1.11.66-1.45.96-2.5,2.74-3.74,5.4-3.74,8.03Z" fill="#1c1c1b"/><path d="M1029.67,683.23c-1.26,0-2.52-.32-3.79-.95-2.18-1.09-3.57-3.63-3.98-5.66-.79-3.91,1.21-7.63,4.65-8.64.38-.11.8-.19,1.23-.22,1.75-.67,3.84-.53,5.74.4h0c2.44,1.19,3.98,3.82,4.04,6.88.06,3.09-1.41,5.81-3.83,7.1-1.37.73-2.71,1.1-4.06,1.1ZM1030.12,668.95c-.64,0-1.27.12-1.85.36l-.26.06c-.36.02-.69.07-1,.16-2.63.77-4.15,3.69-3.52,6.77.39,1.95,1.67,3.81,3.12,4.53,2.17,1.08,4.19,1.04,6.37-.12,1.88-1.01,3.02-3.17,2.97-5.65-.04-2.44-1.24-4.53-3.13-5.45h0c-.9-.44-1.82-.66-2.7-.66Z"/></g></g><g id="Canberra"><g id="marker-7"><path d="M985,701.21c-3.55-7.26-12.79-8.42-17.51-7.4-.8.17-2.33,1.43-2.4,1.5-5.01,5.47-6.87,11.81-1.85,18.53,4.08,5.46,11.98,6.85,17.63,3.85,5.29-2.81,6.71-11.21,4.14-16.48ZM985,701.21c-3.55-7.26-12.79-8.42-17.51-7.4-.8.17-2.33,1.43-2.4,1.5-5.01,5.47-6.87,11.81-1.85,18.53,4.08,5.46,11.98,6.85,17.63,3.85,5.29-2.81,6.71-11.21,4.14-16.48Z" fill="#fff"/><path d="M974.43,720.64c-4.73,0-9.42-2.12-12.3-5.98-2.15-2.89-3.23-5.87-3.23-8.87,0-3.81,1.73-7.66,5.17-11.42.11-.12,1.88-1.65,3.13-1.92,5.66-1.22,15.31.51,19.05,8.15h0c.92,1.89,1.39,4.15,1.39,6.45,0,4.75-2,9.67-6.12,11.86-2.21,1.17-4.65,1.73-7.08,1.73ZM961.64,705.77c0,2.43.9,4.83,2.7,7.24,3.5,4.69,10.62,6.25,15.87,3.46,3.08-1.64,4.63-5.65,4.63-9.49,0-1.86-.36-3.67-1.09-5.16h0c-3.38-6.9-12.22-7.46-15.98-6.66-.33.09-1.31.78-1.71,1.13-2.95,3.23-4.42,6.38-4.42,9.48Z" fill="#1c1c1b"/><path d="M972.95,715.22c-1.49,0-2.97-.38-4.48-1.13-2.58-1.29-4.22-4.28-4.7-6.68-.93-4.62,1.43-9.01,5.5-10.21.45-.13.94-.22,1.45-.26,2.07-.79,4.53-.62,6.78.47h0c2.88,1.4,4.7,4.51,4.77,8.12.07,3.65-1.66,6.86-4.52,8.39-1.62.86-3.21,1.3-4.8,1.3ZM973.46,698.37c-.76,0-1.5.14-2.17.41l-.15.06h-.16c-.42.03-.82.1-1.18.2-3.11.91-4.9,4.35-4.16,7.99.46,2.3,1.98,4.5,3.68,5.35,2.56,1.28,4.95,1.23,7.52-.14,2.22-1.19,3.57-3.74,3.51-6.67-.05-2.88-1.47-5.35-3.7-6.43h0c-1.05-.51-2.15-.77-3.19-.77Z"/></g></g></g></g><g id="vic"><g id="victoria"><path id="victoria-2" d="M935.1,809.58c.56-.81,0-1.82,3.13-2.13,3.13-.31,22.5-2.63,29.83-3.38,0,0,10.89-.58,15.66-2.8,0,0,4.34-1.89,5.86-6.69-1.02-1.72-1.98-3.18-2.64-3.84-2.61,0-7.44-1.21-9.65-1.41-2.21-.2-7.84-4.02-14.08-7.24-6.23-3.22-11.86-5.03-17.5-7.64,1.41-7.44-2.01-12.47-5.03-16.29-1.01-1.81-.6-2.82-.8-7.44-3.62-3.82-7.44-1.61-10.66-.8-3.22.8-5.83,2.01-9.05,2.61-3.22.6-11.26,0-11.26,0,0,0-3.22-1.41-5.83-1.61-2.61-.2-5.43,2.41-7.24,2.61-1.81.2-7.84-3.82-7.84-3.82,0,0-2.01.4-5.03.4s-3.62-1.81-3.62-1.81c0,0-6.23.4-8.04.4s-3.62-1.41-3.62-1.41c0,0-4.42,1.41-4.83,2.82-.4,1.41,0,5.63,0,5.63,0,0-.8.6-3.42.8-2.61.2-5.03-1.21-7.04-2.61-2.01-1.41-6.64-4.02-6.64-4.02,0,0-.2-3.22-1.21-5.03-1.01-1.81-3.02-2.21-4.42-4.02-1.41-1.81-2.21-3.02-4.63-3.42-2.41-.4-4.42-2.61-4.42-2.61h-3.82c-1.61,0-3.02-2.41-5.63-5.83-2.61-3.42-3.42-12.07-3.42-12.07,0,0-3.62-3.62-10.86-3.82-7.24-.2-11.06,3.62-11.06,3.62l-1.81-1.61c-1.81-1.61-1.01-5.43-2.21-8.04-1.21-2.61-6.84-6.03-7.44-6.64-.6-.6-4.42-1.01-6.64-.8-2.21.2-5.43-1.01-7.84-1.21-2.41-.2,0,0-5.83,2.82-5.83-4.63-10.96-1.82-10.96-1.82l-.03.43s.42,27.36-.32,34.51c-.74,7.15-1.23,17.76-.49,20.97.74,3.21,0,26.89,0,30.35,0,2.2.7,16.84,1.21,27.23.53.14.68,1.11,1.16,1.31,3.26,1.32,8.89,1.69,8.2,9.02,4.76.38,5.2.25,5.2.25,0,0,1.38-4.64,5.2-4.26,3.82.38,9.09,3.57,10.9,3.57s4.7-.94,7.83-.81c3.13.13,6.52,2.63,10.34,5.2,3.82,2.57,19.49,12.16,19.49,12.16,0,0,3.63-.88,6.27-4.7,2.63-3.82,4.7-7.02,8.27-9.09,3.57-2.07,7.14-2.32,7.96-5.14.81-2.82-1.25-4.32-1.25-4.32,0,0,5.2-4.64,11.28-3.7s7.21,4.2,7.83,5.51c.63,1.32-.75,3.89-2.82,4.2-2.07.31-3.76,1.32-5.95.19.44,2.07,2.38,3.76,3.95,3.95,1.57.19,9.78-.31,9.78-.31,0,0,.88-1.69.81-3.82-.06-2.13-.44-3.7.56-4.07,1-.38,3.07-.69,5.39,1.94,2.32,2.63,1.19,3.89,1.19,3.89,0,0-3.89.19-2.88,4.95,1,4.76,5.45,5.89,5.45,5.89,0,0,5.14-1.13,5.64-.25.5.88,1.25,6.08,2.95,6.08s3.89-2.38,3.89-2.38c0,0,6.08,4.64,9.52,11.78.88-3.57,2.07-11.34,2.07-11.34l-4.82,1.75s.31-3.7-1.32-6.39c3.51-.06,5.51.5,8.71-.13,3.2-.63,6.83-1.13,12.53-6.77,5.7-5.64,17.29-16.67,17.86-17.48Z" fill="#8b6e82" stroke="#ffffff" /></g><g id="towns-7"><g id="Melbourne"><g id="marker-8"><path d="M861.44,810.81c-3.01-6.15-10.83-7.13-14.83-6.27-.68.15-1.98,1.21-2.03,1.27-4.24,4.64-5.82,10-1.57,15.69,3.45,4.63,10.15,5.8,14.93,3.26,4.48-2.38,5.68-9.5,3.5-13.96ZM861.44,810.81c-3.01-6.15-10.83-7.13-14.83-6.27-.68.15-1.98,1.21-2.03,1.27-4.24,4.64-5.82,10-1.57,15.69,3.45,4.63,10.15,5.8,14.93,3.26,4.48-2.38,5.68-9.5,3.5-13.96Z" fill="#fff"/><path d="M852.49,827.27c-4.01,0-7.98-1.8-10.42-5.07-1.83-2.45-2.73-4.97-2.73-7.51,0-3.23,1.46-6.49,4.38-9.67.09-.1,1.57-1.39,2.65-1.62,4.79-1.03,12.96.43,16.13,6.9.78,1.6,1.18,3.51,1.18,5.46,0,4.02-1.7,8.19-5.19,10.04-1.87.99-3.94,1.47-6,1.47ZM841.66,814.67c0,2.06.76,4.09,2.28,6.13,2.97,3.98,9,5.29,13.44,2.93,2.61-1.39,3.92-4.78,3.92-8.03,0-1.57-.31-3.11-.92-4.37h0c-2.86-5.85-10.35-6.33-13.53-5.64-.28.08-1.11.66-1.45.96-2.5,2.74-3.74,5.4-3.74,8.03Z" fill="#1c1c1b"/><path d="M851.23,822.68c-1.26,0-2.52-.32-3.79-.95-2.18-1.09-3.57-3.63-3.98-5.66-.79-3.91,1.21-7.63,4.65-8.64.38-.11.8-.19,1.23-.22,1.75-.67,3.84-.53,5.74.4h0c2.44,1.19,3.98,3.82,4.04,6.88.06,3.09-1.41,5.81-3.83,7.1-1.37.73-2.71,1.1-4.06,1.1ZM851.68,808.4c-.64,0-1.27.12-1.85.36l-.26.06c-.36.02-.69.07-1,.16-2.63.77-4.15,3.69-3.52,6.77.39,1.95,1.67,3.81,3.12,4.53,2.17,1.08,4.19,1.04,6.37-.12,1.88-1.01,3.02-3.17,2.97-5.65-.04-2.44-1.24-4.53-3.13-5.45h0c-.9-.44-1.82-.66-2.7-.66Z"/></g></g></g></g></svg>
